<svg width="32" height="29" viewBox="0 0 32 29" fill="none" xmlns="http://www.w3.org/2000/svg">
<path d="M22.2561 25.9494C25.116 25.4549 27.4123 23.606 29.1183 21.4145C30.7531 19.3134 31.657 16.772 31.7016 14.1508C31.6703 13.0704 31.2182 12.0406 30.4344 11.2645C30.0681 10.8682 29.6247 10.5352 29.2402 10.1475C28.553 9.45794 28.4736 8.33108 28.3218 7.43251C27.9881 5.45326 27.0121 4.09817 25.6856 3.26053C25.1849 2.57956 24.5378 2.00949 23.7881 1.58867C17.9518 -1.59376 12.3048 3.03997 11.6013 8.61721C9.71508 9.37946 7.526 8.99718 5.63069 9.90419C4.17517 10.5991 3.07291 12.0577 2.29689 13.3849C0.733567 16.058 0.323454 19.7162 1.56117 22.5706C2.96139 25.7709 6.43004 27.7387 9.90009 28.3374C13.5708 28.9754 15.9062 26.8672 18.3069 24.6828C19.0344 25.8566 20.6195 26.232 22.2561 25.9494ZM28.8162 11.7164C30.6608 13.4059 30.3636 15.3259 29.5797 17.482C28.8834 19.3614 27.7174 21.0483 26.1838 22.395C25.7286 22.7522 25.2395 23.0674 24.7228 23.3366C25.2548 22.8261 25.7004 22.239 26.0434 21.5964C27.2769 19.3523 27.7014 16.6914 28.0003 14.2012C28.131 13.1612 28.1984 12.1148 28.2021 11.0674C28.3888 11.2988 28.5942 11.5158 28.8162 11.7164ZM18.1157 20.8945C16.1084 21.6365 15.1171 23.6995 13.0148 24.4264C10.3814 25.3334 7.38749 24.9485 5.48663 22.9096C1.28629 18.4082 7.13788 8.78846 12.975 13.4661C13.5982 13.9704 14.7168 13.2949 14.1796 12.5667C13.4855 11.6946 13.112 10.6263 13.1174 9.52869C13.1475 9.47803 13.1712 9.42411 13.1881 9.36809C13.3155 8.89209 13.4178 8.41025 13.4945 7.92437C15.0618 4.42341 21.1171 2.33131 24.5914 4.34912C25.0956 5.11552 25.4689 5.95438 25.6971 6.83395C26.2657 8.87147 26.4228 11.7547 25.0071 13.5234C24.5945 14.0251 25.109 14.8343 25.7732 14.4656L26.2008 14.225C26.3225 14.1644 26.4168 14.0632 26.4661 13.9405C26.5154 13.8178 26.5163 13.682 26.4685 13.5588C26.5758 13.3805 26.6732 13.197 26.7604 13.0089C26.6073 15.0226 26.2302 17.0149 25.6353 18.9518C25.1804 20.41 24.3887 22.5087 22.6759 22.9613C20.5786 23.5286 20.2959 20.0922 18.1157 20.8945ZM21.0869 2.20851C19.0806 2.3153 17.1336 2.90058 15.422 3.91136C16.1527 3.21051 17.0492 2.68966 18.035 2.3933C19.0208 2.09694 20.0666 2.03389 21.0831 2.2095L21.0869 2.20851ZM3.24633 22.137C2.06871 19.8527 2.53183 16.8574 3.56939 14.6202C4.13066 13.4021 5.0098 12.3434 6.12186 11.5462C7.49807 10.5671 9.37291 10.7097 10.998 10.4894C11.1519 10.4498 11.3574 10.4326 11.5738 10.3808C11.6082 10.6212 11.6608 10.8589 11.7311 11.092C6.85473 9.39935 2.4139 14.3953 2.64181 19.5272C2.68731 20.4842 2.92292 21.4239 3.33602 22.2959L3.24633 22.137ZM19.5315 23.264C19.5402 23.1058 19.4975 22.949 19.4093 22.8152C19.3211 22.6814 19.1918 22.5773 19.0392 22.5171C18.8866 22.4569 18.7183 22.4436 18.5574 22.4792C18.3966 22.5148 18.2512 22.5974 18.1414 22.7157C15.8734 24.6957 13.9972 26.9865 10.6451 26.7808C9.44597 26.6907 8.27847 26.3679 7.2134 25.832C9.7776 26.731 13.4515 26.4939 15.57 24.7461C16.1462 24.2695 18.4183 21.4615 19.1906 22.4853C19.9073 23.4284 20.4585 24.0738 21.6974 24.3168C21.9064 24.3546 22.1186 24.3729 22.3312 24.3714C20.8587 24.8135 19.5574 24.7606 19.5277 23.2649L19.5315 23.264Z" fill="#ADBBC4"/>
</svg>
