<svg width="188" height="248" viewBox="0 0 188 248" fill="none" xmlns="http://www.w3.org/2000/svg">
<path d="M98.33 35H104.028V33.852H99.492V25.046H98.33V35ZM105.644 35H111.888V33.852H106.806V30.282H110.32V29.134H106.806V26.194H111.888V25.046H105.644V35ZM115.445 35H116.607V26.194H119.309V25.046H112.799V26.194H115.445V35ZM121.936 25.158C121.852 25.4847 121.745 25.8393 121.614 26.222C121.484 26.6047 121.339 26.9873 121.18 27.37C121.031 27.7433 120.882 28.098 120.732 28.434H119.822C119.888 28.1727 119.953 27.8927 120.018 27.594C120.093 27.2953 120.158 26.9967 120.214 26.698C120.28 26.39 120.336 26.0913 120.382 25.802C120.438 25.5127 120.485 25.2467 120.522 25.004H121.838L121.936 25.158ZM125.532 35.112H127.184L128.71 34.552L129.382 33.782L129.732 33.026V31.668L129.284 30.59L128.206 29.848L125.252 29.036L124.538 28.518L124.356 28.21L124.23 27.594L124.44 26.866L124.958 26.348L125.798 26.082H126.904L128.164 26.418L128.962 26.894L129.592 25.914L128.682 25.354L127.058 24.934H125.588L124.3 25.354L123.404 26.292L123.026 27.482L123.222 28.63L123.684 29.372L124.734 30.114L127.59 30.898L128.248 31.276L128.57 31.92V32.76L128.374 33.166L128.038 33.558L126.988 33.964H125.784L124.524 33.586L123.95 33.194L123.684 32.858L122.844 33.67L123.166 34.062L124.006 34.65L125.532 35.112ZM135.982 35H137.144V30.856H140.518L141.806 30.212L142.492 29.204L142.87 27.832L142.464 26.418L141.428 25.382L140.126 25.046H135.982V35ZM137.144 29.708V26.194H140L140.826 26.432L141.428 27.034L141.666 27.874L141.428 28.7L141.022 29.302L140.182 29.708H137.144ZM144.555 35H150.253V33.852H145.717V25.046H144.555V35ZM158.037 35H159.269L155.643 25.046H154.719L151.093 35H152.325L153.361 32.018H157.001L158.037 35ZM153.767 30.87L155.181 26.796L156.595 30.87H153.767ZM162.103 35H163.251V29.988L166.499 25.046H165.127L162.677 28.812L160.227 25.046H158.855L162.103 29.988V35ZM168.927 32.186H168.129L167.779 25.004H169.277L168.927 32.186ZM167.653 34.244C167.653 33.8987 167.737 33.656 167.905 33.516C168.073 33.376 168.278 33.306 168.521 33.306C168.754 33.306 168.955 33.376 169.123 33.516C169.3 33.656 169.389 33.8987 169.389 34.244C169.389 34.58 169.3 34.8227 169.123 34.972C168.955 35.1213 168.754 35.196 168.521 35.196C168.278 35.196 168.073 35.1213 167.905 34.972C167.737 34.8227 167.653 34.58 167.653 34.244Z" fill="#50735F"/>
<rect x="0.605469" y="29.3701" width="67.4671" height="218.419"/>
<path d="M83.2752 23.4969C83.3126 23.4068 83.2402 23.2912 83.5031 23.2487C83.4377 23.2093 83.3862 23.1801 83.3068 23.1312L83.5674 23.1121C83.6457 23.0639 83.4505 22.9572 83.676 22.9343C83.689 22.9151 83.689 22.8939 83.676 22.8747C83.5779 22.8181 83.6585 22.7997 83.7239 22.7585C83.8314 22.6918 84.0476 22.6315 83.8723 22.5115L84.0336 22.3699C84.0918 22.3127 84.1384 22.2522 84.1727 22.1895C84.2054 22.0962 84.2124 21.999 84.3479 21.9292C84.4648 21.8721 84.154 21.8714 84.3106 21.8022C84.3631 21.7806 84.3316 21.6987 84.3783 21.6358C84.3982 21.6682 84.4169 21.6993 84.4403 21.7387C84.6039 21.639 84.6039 21.639 84.4905 21.5209C84.6104 21.4471 84.7231 21.37 84.8282 21.2898C84.8818 21.2529 84.9085 21.2066 84.9031 21.1598C84.8977 21.1129 84.8606 21.0687 84.799 21.0358L84.9416 21.0256C85.0136 20.9441 85.0948 20.865 85.1846 20.7888C85.3657 20.6548 85.3693 20.6193 85.1542 20.4999C85.5329 20.3329 85.7292 20.1075 85.8659 19.8605C85.9302 19.7436 85.9512 19.6186 86.1428 19.5246C86.1678 19.5097 86.1871 19.4923 86.1994 19.4733C86.2118 19.4544 86.217 19.4342 86.2147 19.4141C86.2124 19.394 86.2027 19.3744 86.1861 19.3564C86.1696 19.3384 86.1465 19.3224 86.1183 19.3093H86.2912C86.2912 19.1309 86.5635 19.0319 86.7937 18.8864L86.5413 18.8712C86.5062 18.7366 86.8416 18.8401 86.8416 18.7302C87.0134 18.7087 87.0648 18.6236 87.1069 18.5537C87.1489 18.4839 87.3406 18.4001 87.1069 18.3061L87.3605 18.2693C87.2751 18.1086 87.2985 18.0858 87.5801 18.0756V17.8553L87.8244 17.8115C87.9506 17.8883 87.9996 17.9511 87.8629 18.047C87.7461 18.127 87.711 18.2375 87.6351 18.3334C87.5958 18.3954 87.5441 18.4548 87.4808 18.5105C87.2227 18.6973 87.0113 18.9019 86.8521 19.1188C86.8206 19.1646 86.7166 19.1938 86.6687 19.2376C86.6208 19.2814 86.6885 19.3182 86.5612 19.3474C86.4677 19.3684 86.4209 19.4573 86.3684 19.5201C86.2398 19.6732 86.1814 19.8452 85.9489 19.9703C85.9237 19.9837 85.9084 20.0015 85.9056 20.0205C85.9547 20.3278 85.6006 20.5539 85.3587 20.7983C85.093 21.0685 84.8758 21.3519 84.7102 21.6447C84.5746 21.8828 84.4882 22.133 84.2229 22.347C84.1703 22.3908 84.1925 22.4613 84.1773 22.5191C84.1739 22.5518 84.1617 22.5841 84.1411 22.615C84.0862 22.6785 83.891 22.7096 83.9904 22.8093C83.7286 22.9877 83.8537 23.2201 83.7064 23.4087C83.6328 23.502 83.7064 23.6214 83.5253 23.6919C83.5124 23.6979 83.5023 23.7056 83.496 23.7142C83.4897 23.7228 83.4873 23.7322 83.4891 23.7414C83.5942 23.9319 83.3547 24.0951 83.3477 24.276C83.3377 24.3136 83.3147 24.3498 83.2799 24.3827C83.163 24.5275 83.0462 24.671 82.9293 24.8164C82.8604 24.9085 82.7891 24.9377 82.5788 24.9434C82.5094 25.0539 82.4401 25.1641 82.3708 25.2742C82.3603 25.2926 82.3299 25.3136 82.3381 25.3275C82.4654 25.518 82.1441 25.6818 82.2282 25.8698C82.0085 25.9561 82.1032 26.12 81.9361 26.2197C81.9291 26.2235 81.9361 26.2317 81.9291 26.2412L82.1055 26.2876C82.0354 26.3727 81.9653 26.4571 81.8975 26.5416C81.8614 26.5737 81.8387 26.6096 81.8309 26.647C81.8461 26.7822 81.707 26.8914 81.6416 27.0121C81.5837 27.1067 81.5365 27.2032 81.5002 27.301C81.4209 27.5481 81.39 27.799 81.4079 28.0496C81.4056 28.1066 81.3911 28.1633 81.3647 28.2185C81.2864 28.4414 81.2361 28.663 81.3834 28.8859C81.3915 28.8979 81.4149 28.9125 81.4079 28.9202C81.2723 29.0713 81.4722 29.2192 81.4149 29.3729C81.37 29.5213 81.345 29.6714 81.3401 29.8218C81.3319 29.8904 81.3518 29.9596 81.3483 30.0282C81.3448 30.0967 81.3296 30.1552 81.3179 30.2231C81.3611 30.251 81.4768 30.2936 81.4687 30.3272C81.4079 30.5812 81.5505 30.8485 81.3752 31.1006C81.492 31.2714 81.3565 31.4619 81.5283 31.6308C81.5715 31.6746 81.5283 31.7426 81.5411 31.7985C81.5867 32.0251 81.5481 32.2594 81.7444 32.4728C81.7596 32.4899 81.7514 32.5185 81.7736 32.5261C82.1242 32.6569 81.9863 32.8588 81.9232 33.0062C81.8426 33.1966 81.9852 33.3465 82.0342 33.5141C82.0447 33.549 82.1032 33.5871 82.088 33.6157C82.0347 33.7365 82.062 33.8636 82.1651 33.9745C82.2101 34.043 82.2373 34.1146 82.2457 34.1872C82.2909 34.2894 82.3527 34.3893 82.4304 34.4856C82.4678 34.5491 82.5472 34.6272 82.5122 34.6729C82.3801 34.826 82.5449 34.8945 82.7459 34.965C82.7283 35.0215 82.7108 35.0761 82.691 35.1396C82.8849 35.1688 82.9726 35.2273 83.0065 35.346C83.0696 35.5619 83.253 35.7644 83.2776 35.9899C83.2776 36.0292 83.246 36.1441 83.4575 36.141C83.4715 36.141 83.4914 36.181 83.5008 36.2045C83.5732 36.3759 83.6433 36.548 83.7134 36.7194C83.9647 36.7575 83.8034 36.9175 83.9027 36.9512C84.0804 37.0147 83.9775 37.0852 84.0196 37.1474C84.0733 37.2279 84.1524 37.3026 84.2533 37.3684C84.3561 37.4319 84.4741 37.4788 84.3818 37.5754C84.376 37.5811 84.4239 37.6046 84.4508 37.6166C84.4777 37.6287 84.5326 37.6395 84.5302 37.6427C84.4601 37.7544 84.7102 37.8033 84.702 37.9049C84.6944 37.9392 84.704 37.974 84.73 38.0055C84.7559 38.0371 84.7971 38.0642 84.8493 38.084C84.9194 38.1119 84.917 38.2325 84.9661 38.2357C85.1613 38.2484 85.0666 38.331 85.1168 38.3697C85.1812 38.4199 85.2527 38.4672 85.3307 38.5113C85.5328 38.6186 85.5153 38.7291 85.4265 38.8523C85.86 38.8859 85.8495 38.9653 85.8098 39.2047L85.9383 39.1818C86.1161 39.335 86.2769 39.4938 86.4198 39.6574C86.5249 39.7971 86.7306 39.9254 86.6593 40.0854C86.9316 40.2054 87.191 40.3121 87.2845 40.4994C87.3172 40.5667 87.316 40.6733 87.5533 40.653C87.5766 40.653 87.621 40.7222 87.6561 40.7597C87.7309 40.841 87.6888 40.9712 87.9564 40.9737C87.9676 40.9747 87.9782 40.9771 87.9873 40.9808C87.9964 40.9844 88.0039 40.9892 88.009 40.9946C88.0721 41.1362 88.314 41.2175 88.4086 41.342C88.4436 41.3878 88.5025 41.4271 88.5781 41.455C88.6648 41.493 88.7236 41.5466 88.744 41.6061C88.8078 41.7104 88.9205 41.8039 89.0712 41.8772C89.2216 41.9465 89.3415 42.0333 89.4218 42.1312C89.4397 42.153 89.466 42.1725 89.4989 42.1884C89.6052 42.2423 89.7151 42.2944 89.8237 42.3478C89.687 42.4379 90.0703 42.443 89.9277 42.5344C89.9558 42.542 89.985 42.549 90.0119 42.5579C90.1042 42.5884 90.2526 42.6087 90.2783 42.6513C90.3706 42.8062 90.7083 42.8557 90.7796 43.0189C90.7925 43.0507 90.9222 43.0754 91.0063 43.0888C91.1232 43.1065 91.2038 43.1192 91.24 43.1992C91.2599 43.2399 91.4363 43.257 91.5906 43.2583C91.5041 43.1878 91.4282 43.1123 91.33 43.0469C91.082 42.8689 90.8578 42.6816 90.6593 42.4862C90.3017 42.1554 89.9651 41.8195 89.6204 41.4855C89.3084 41.1832 88.9041 40.9096 88.5781 40.6118C88.3841 40.42 88.2147 40.2212 88.0709 40.0168C87.8169 39.715 87.5942 39.4057 87.4037 39.0904C87.3362 38.9339 87.2543 38.7795 87.1583 38.6275C86.9748 38.3818 86.8077 38.1303 86.5834 37.896C86.4665 37.769 86.3567 37.6516 86.3684 37.5081C86.0342 37.2738 86.1744 36.9664 85.9594 36.7131C85.9173 36.6629 85.9757 36.5899 85.9594 36.5302C85.9313 36.4477 85.9804 36.3499 85.825 36.2864C85.8717 35.9746 85.5609 35.7022 85.4884 35.4025C85.4394 35.1993 85.3272 35.0006 85.2886 34.7974C85.2412 34.5453 85.154 34.2959 85.028 34.0519C84.9673 33.9338 85.0152 33.798 84.9731 33.6779C84.9205 33.5262 84.9544 33.3662 84.8119 33.2227C84.7861 33.1747 84.7766 33.1246 84.7838 33.0747C84.7785 33.0185 84.7672 32.9626 84.7499 32.9071C84.6646 32.6779 84.5361 32.4512 84.501 32.2201C84.4823 32.0969 84.4005 31.9794 84.4064 31.8588C84.4122 31.7381 84.397 31.6346 84.3842 31.5216C84.3444 31.2876 84.3444 31.0521 84.3842 30.8181C84.2206 30.7317 84.5396 30.6752 84.4274 30.5742C84.355 30.5107 84.4543 30.4155 84.4905 30.3336C84.5711 30.1545 84.5746 29.9659 84.6401 29.7843C84.7488 29.484 84.8855 29.1868 85.0047 28.8871C85.1036 28.6395 85.1975 28.3912 85.2863 28.1423C85.3354 28.0045 85.3704 27.8655 85.409 27.7271C85.4627 27.5277 85.5083 27.327 85.5714 27.1289C85.5936 27.0578 85.6719 26.9918 85.6941 26.9207C85.7631 26.6927 85.8215 26.4635 85.8787 26.2343C85.9115 26.1073 85.8893 25.9657 85.9675 25.8463C86.1054 25.638 86.0844 25.4113 86.2889 25.2113C86.4291 25.0704 86.4747 24.9015 86.5623 24.7446C86.5729 24.7262 86.5787 24.7072 86.5916 24.69C86.7622 24.4525 86.7984 24.2049 86.8568 23.9541C86.9082 23.7363 86.9199 23.4982 87.1501 23.2956C87.191 23.2594 87.1501 23.1991 87.1676 23.1521C87.2646 22.9013 87.4014 22.6531 87.4621 22.3997C87.5603 22.0073 87.8127 21.6422 88.0464 21.2714C88.1001 21.1825 88.1492 21.0929 88.1936 21.0021C88.2424 20.8692 88.3168 20.7393 88.4156 20.6148C88.5588 20.4345 88.6517 20.2436 88.6914 20.0484C88.7316 19.9263 88.7971 19.807 88.8866 19.6929C89.0268 19.5024 89.2114 19.3195 89.3622 19.1303C89.4895 18.969 89.6029 18.8045 89.7127 18.6394C89.9757 18.2451 90.2117 17.8438 90.623 17.4851C90.7405 17.3787 90.8836 17.2814 91.0484 17.1955C91.3066 17.0641 91.3989 16.8863 91.5672 16.7288C91.5847 16.7123 91.5766 16.6844 91.5988 16.6755C91.8932 16.5536 91.9704 16.3517 92.1936 16.2025C92.398 16.0659 92.5511 15.9078 92.7322 15.7612C92.8351 15.6786 92.9426 15.5973 93.0583 15.5205C93.4223 15.2791 93.7428 15.0193 94.0153 14.7446C94.1704 14.6097 94.3385 14.4793 94.519 14.3541C94.6101 14.283 94.5926 14.1928 94.727 14.1166C94.8987 14.0194 94.9723 13.8709 95.088 13.7439C95.0986 13.7331 95.1021 13.7178 95.1172 13.7109C95.3101 13.6258 95.3591 13.4943 95.4737 13.3838C95.6139 13.2486 95.7342 13.1064 95.8826 12.9743C96.0426 12.8492 96.1769 12.7151 96.2835 12.5743C96.344 12.515 96.4111 12.4577 96.4844 12.4028C96.6013 12.2796 96.8292 12.1888 96.835 12.0314C96.8466 12.0003 96.8761 11.9721 96.9191 11.9507C97.1529 11.8123 97.1715 11.7933 97.1867 11.6294L96.932 11.6142C96.9226 11.6561 96.9133 11.6974 96.9028 11.7488C96.5183 11.8358 96.3653 12.0339 96.1654 12.2193C95.9855 12.1933 95.8593 12.2898 95.7973 12.3463C95.6291 12.5044 95.3755 12.6155 95.1745 12.7502C95.0062 12.8638 94.7223 12.9089 94.6276 13.0746C94.5645 13.1851 94.3238 13.2696 94.1462 13.3553C94.0971 13.3794 93.9896 13.368 93.9125 13.3731L93.9183 13.3788C93.9183 13.3381 93.9183 13.2975 93.9183 13.2562L93.9277 13.2626L94.311 13.1C94.263 12.9794 94.1637 13.0435 94.0714 13.0753C94.0235 13.0022 94.1158 12.9641 94.207 12.9438C94.4599 12.881 94.6771 12.7823 94.8356 12.6581H94.5575C94.7199 12.5666 95.0156 12.6003 95.0086 12.4517C95.164 12.4073 95.365 12.3927 95.4117 12.2612L95.2575 12.2041C95.3743 12.0898 95.3743 12.0898 95.6232 12.1469C95.6384 11.9984 96.0124 11.9298 95.8733 11.7329L96.1537 11.7748C96.114 11.7113 96.079 11.6625 96.2227 11.6066C96.3033 11.5748 96.2916 11.5018 96.4751 11.5253C96.5826 11.5393 96.6819 11.4618 96.7088 11.3869C96.7357 11.312 96.7544 11.2561 96.7801 11.1818C97.0056 11.2256 97.0886 11.0694 97.2346 11.0827C97.4929 11.1062 97.4824 10.9456 97.7173 10.9361C97.556 10.8808 97.4695 10.8256 97.6238 10.7519C97.6448 10.7824 97.6647 10.8154 97.6845 10.8427C97.7138 10.743 98.0515 10.7373 97.9311 10.6027C97.9627 10.5963 98.0071 10.5944 98.0246 10.5824C98.1029 10.5252 98.3261 10.543 98.2898 10.4167C98.2805 10.3874 98.4745 10.3532 98.5341 10.3024C98.7339 10.1404 98.9828 9.99885 99.1359 9.81598C99.2597 9.66803 99.4479 9.53533 99.5904 9.38865C99.7423 9.23118 99.8802 9.06482 100.106 8.9302C100.208 8.86965 100.304 8.80606 100.393 8.73971C100.453 8.69527 100.484 8.60256 100.539 8.60002C100.704 8.59113 100.702 8.55176 100.675 8.48763C100.675 8.48128 100.699 8.46414 100.717 8.46287C101.027 8.42922 101.038 8.23301 101.275 8.16063C101.362 7.97966 101.69 7.89839 101.849 7.75742C101.996 7.62726 102.185 7.52185 102.348 7.40311C102.658 7.17961 102.951 6.94022 103.331 6.75608C103.711 6.57195 104.062 6.36558 104.494 6.20747C104.654 6.14906 104.765 6.04683 104.982 6.02588C105.002 6.02588 105.032 6.01381 105.037 6.00429C105.113 5.85951 105.353 5.8138 105.556 5.74459C105.629 5.71982 105.728 5.68109 105.735 5.64109C105.752 5.52997 105.909 5.58648 106.012 5.56108C106.075 5.47727 106.109 5.38202 106.348 5.35916C106.465 5.3471 106.589 5.26582 106.672 5.20106C106.906 5.01819 107.339 4.98199 107.593 4.80738C107.756 4.69499 108.024 4.62832 108.245 4.54133C108.434 4.58768 108.515 4.47783 108.656 4.45307C108.751 4.43656 108.824 4.35973 108.912 4.35782C109.045 4.35782 109.105 4.34449 109.115 4.26893C109.115 4.25178 109.175 4.22892 109.215 4.22194C109.352 4.19887 109.473 4.15477 109.565 4.09495C109.646 4.04606 109.853 4.04352 109.95 3.96795C110.221 3.99462 110.334 3.84096 110.554 3.80921C110.874 3.75905 111.124 3.63904 111.393 3.53872C111.499 3.5035 111.619 3.4818 111.743 3.47522C111.816 3.46824 111.83 3.37807 112.002 3.40665C112.072 3.41808 112.22 3.33426 112.295 3.27965C112.395 3.206 112.585 3.3222 112.655 3.21616C112.664 3.20843 112.676 3.20194 112.69 3.1972C112.705 3.19246 112.721 3.1896 112.738 3.18885C113.038 3.17425 113.257 3.05297 113.537 3.0117C113.817 2.97043 114.121 2.93804 114.378 2.86058C114.628 2.78543 114.89 2.72436 115.162 2.67834C115.566 2.60532 115.956 2.50817 116.35 2.41928C116.659 2.34943 116.957 2.25101 117.279 2.21418C117.481 2.19132 117.597 2.10052 117.754 2.08719C117.96 2.06878 118.105 1.97099 118.264 1.96845C118.689 1.96083 119.002 1.77415 119.44 1.78812C119.617 1.7932 119.797 1.70431 119.984 1.67637C120.381 1.61668 120.783 1.56398 121.186 1.51763C121.431 1.49032 121.686 1.4935 121.926 1.45921C122.166 1.42492 122.388 1.34682 122.627 1.3119C123.293 1.21538 123.963 1.12141 124.665 1.16014C124.71 1.16129 124.755 1.15762 124.797 1.14935C125.123 1.08585 125.443 1.01601 125.776 0.968383C126.058 0.927745 126.361 0.93219 126.641 0.887107C126.962 0.84442 127.29 0.821627 127.62 0.819166C128.07 0.802022 128.487 0.705507 128.924 0.674394C129.425 0.639471 129.92 0.587404 130.421 0.556926C130.748 0.537242 131.091 0.551846 131.398 0.463586C131.429 0.455324 131.464 0.451397 131.499 0.452156C132.133 0.452156 132.754 0.365167 133.393 0.382311C133.677 0.389295 133.963 0.335323 134.252 0.318814C134.457 0.311627 134.664 0.313325 134.869 0.323893C135.27 0.339767 135.674 0.349927 136.07 0.384215C136.519 0.422948 136.973 0.3912 137.422 0.447712C137.871 0.504224 138.338 0.530257 138.796 0.57026C139.508 0.63259 140.226 0.668654 140.946 0.678203C141.361 0.698015 141.773 0.735595 142.177 0.790592C142.961 0.872218 143.754 0.926934 144.55 0.954413C145.157 0.974732 145.756 1.04839 146.361 1.08712C146.679 1.10807 146.975 1.18618 147.31 1.17094C147.507 1.16141 147.712 1.20903 147.913 1.23443C148.226 1.27063 148.545 1.29793 148.848 1.34873C149.151 1.39952 149.457 1.46937 149.76 1.53096C150.084 1.59446 150.413 1.65795 150.733 1.73161C151.129 1.81987 151.521 1.91384 151.911 2.00782C152.187 2.07428 152.459 2.14349 152.729 2.21545C152.991 2.28466 153.262 2.27133 153.539 2.25863C153.746 2.24277 153.956 2.24277 154.163 2.25863C154.459 2.28974 154.757 2.36467 155.078 2.2999C155.18 2.28793 155.286 2.28989 155.387 2.30562C155.81 2.34647 156.243 2.34539 156.664 2.30244C156.72 2.29264 156.779 2.28854 156.837 2.29038C157.217 2.33356 157.596 2.38181 157.977 2.42626C158.21 2.45293 158.45 2.47515 158.687 2.49928C158.901 2.52024 159.139 2.51452 159.324 2.54627C159.522 2.57447 159.725 2.59338 159.929 2.60278C159.975 2.60851 160.023 2.60851 160.068 2.60278C160.442 2.53103 160.799 2.57611 161.161 2.63516C161.269 2.64943 161.371 2.67558 161.46 2.71199C161.592 2.76047 161.745 2.78936 161.904 2.79581C162.235 2.81896 162.553 2.87906 162.839 2.97233C163.108 3.05805 163.45 3.07837 163.761 3.12409C163.893 3.14314 164.044 3.13742 164.161 3.16917C164.618 3.29616 164.613 3.29616 165.004 3.29997C165.047 3.36817 165.117 3.43048 165.208 3.48257C165.3 3.53466 165.411 3.57527 165.535 3.60158C165.682 3.64504 165.822 3.69562 165.952 3.7527C166.097 3.80985 166.223 3.87969 166.419 3.87969C166.459 3.88323 166.497 3.89163 166.531 3.90427C166.564 3.91692 166.591 3.93348 166.611 3.95272C166.781 4.11463 167.067 4.2067 167.329 4.31147C167.492 4.36886 167.64 4.43784 167.769 4.51656C167.973 4.66252 168.134 4.82492 168.246 4.99787C168.379 5.17375 168.518 5.34837 168.651 5.52362C168.885 5.82205 169.353 5.9827 169.74 6.1916C169.834 6.22879 169.939 6.25634 170.05 6.27288C170.52 6.38546 170.959 6.53244 171.355 6.70973C171.665 6.84307 171.998 6.95961 172.35 7.05769C172.802 7.17526 173.212 7.33615 173.559 7.53265C173.932 7.74853 174.292 7.97268 174.673 8.18476C175.005 8.37016 175.192 8.60002 175.374 8.82988C175.583 9.09656 175.725 9.37976 175.935 9.64517C176.107 9.84549 176.248 10.0535 176.356 10.2668C176.393 10.3388 176.42 10.4122 176.436 10.4865C176.479 10.7405 176.67 10.9691 176.824 11.2059C176.99 11.4675 177.134 11.7329 177.276 11.999C177.399 12.2282 177.455 12.4733 177.634 12.6879C177.862 12.9616 177.909 13.2594 178.122 13.5324C178.28 13.7331 178.533 13.8893 178.781 14.0512C178.826 14.0798 178.898 14.1033 178.914 14.1363C179.036 14.3369 179.325 14.4753 179.532 14.6442C179.557 14.6721 179.578 14.7009 179.595 14.7306C179.635 14.7801 179.656 14.843 179.725 14.8741C179.958 14.9795 180.045 15.1281 180.183 15.2633C180.354 15.4303 180.364 15.6215 180.488 15.7942C180.631 15.9955 180.798 16.1923 180.955 16.391C180.969 16.4082 181.009 16.4272 181.002 16.4399C180.941 16.5491 181.158 16.5828 181.202 16.6647C181.252 16.7569 181.317 16.8464 181.398 16.932C181.469 17.0019 181.547 17.0697 181.632 17.1352C181.675 17.172 181.748 17.2095 181.748 17.2463C181.745 17.2979 181.763 17.3493 181.801 17.3968C181.838 17.4443 181.894 17.4867 181.965 17.5213C182.106 17.6045 182.134 17.7518 182.178 17.875C182.215 17.9721 182.212 18.0692 182.351 18.1499C182.403 18.192 182.429 18.2416 182.427 18.2921C182.44 18.3718 182.479 18.4496 182.544 18.5213C182.626 18.6185 182.594 18.7455 182.683 18.8388C182.772 18.9322 182.93 19.002 182.88 19.1252C182.87 19.1487 182.971 19.1804 182.98 19.2115C183.071 19.4852 183.219 19.7523 183.421 20.0078C183.471 20.0713 183.328 20.1456 183.507 20.2027C183.592 20.2307 183.605 20.3348 183.631 20.4066C183.657 20.4783 183.652 20.5539 183.668 20.6275C183.672 20.6356 183.68 20.6431 183.69 20.6493C183.701 20.6555 183.713 20.6602 183.728 20.6631C183.892 20.6726 183.904 20.7653 183.906 20.8053C183.906 20.9056 183.917 20.9882 184.088 21.051C184.125 21.0644 184.116 21.1222 184.115 21.159C184.11 21.2339 184.155 21.3072 184.241 21.366C184.325 21.4295 184.32 21.5311 184.358 21.62L184.449 21.6143L184.534 21.7546C184.631 21.9127 184.728 22.0721 184.823 22.2289C184.832 22.246 184.809 22.2727 184.823 22.2848C185.101 22.4842 185.045 22.7375 185.197 22.9559C185.33 23.1464 185.261 23.3509 185.314 23.5471C185.366 23.7287 185.322 23.9185 185.328 24.1046C185.34 24.2961 185.374 24.4869 185.431 24.6761C185.482 24.8716 185.418 25.0767 185.411 25.2774C185.411 25.3409 185.433 25.4107 185.438 25.4774C185.438 25.5275 185.43 25.5777 185.426 25.6272C185.421 25.6768 185.415 25.7403 185.412 25.7961C185.412 25.8704 185.412 25.9441 185.4 26.0177C185.378 26.2171 185.367 26.4165 185.323 26.6146C185.292 26.8333 185.239 27.051 185.166 27.2667C185.08 27.4762 185.101 27.6985 185.072 27.915C185.064 27.9785 185.048 28.0363 185.034 28.0966C185.027 28.115 185.021 28.1337 185.019 28.1525C185.075 28.597 184.989 29.0465 185.172 29.4859C185.221 29.6047 185.172 29.7361 185.159 29.8618C185.161 29.9811 185.145 30.1002 185.11 30.218C185.025 30.425 185.157 30.6269 185.118 30.8327C185.075 31.0638 185.092 31.2987 185.055 31.5311C184.991 31.9439 184.921 32.3566 184.822 32.768C184.771 32.9808 184.658 33.189 184.574 33.3992C184.499 33.5833 184.409 33.7662 184.354 33.9523C184.237 34.3555 184.132 34.7606 184.025 35.1657C184.014 35.2031 184.025 35.2412 184.015 35.2793C183.991 35.4304 184.006 35.5886 183.929 35.7321C183.778 36.0159 183.784 36.3035 183.754 36.5937C183.716 36.9588 183.66 37.3233 183.62 37.6884C183.605 37.8306 183.629 37.9748 183.606 38.117C183.6 38.204 183.556 38.289 183.479 38.3653C183.243 38.5621 183.09 38.7851 183.031 39.018C183.014 39.126 182.926 39.227 182.783 39.3025C182.666 39.3609 182.59 39.4377 182.459 39.493C182.488 39.4428 182.516 39.3926 182.563 39.3088C182.468 39.3342 182.406 39.3399 182.386 39.3583C182.21 39.5215 182.045 39.6892 181.868 39.8517C181.78 39.933 181.664 40.0047 181.577 40.086C181.052 40.5635 180.537 41.0435 180.008 41.5198C179.864 41.6425 179.708 41.7612 179.541 41.8753C179.18 42.1388 178.829 42.4081 178.444 42.6602C178.106 42.8805 177.868 43.1313 177.591 43.3707C177.474 43.4761 177.299 43.5612 177.158 43.6634C177.008 43.7589 176.873 43.8616 176.755 43.9701C176.557 44.171 176.305 44.355 176.009 44.5162C175.658 44.7111 175.333 44.9168 174.99 45.1143C174.716 45.2705 174.436 45.4229 174.154 45.5746C174.08 45.6152 173.997 45.6508 173.907 45.6807C173.399 45.8678 172.924 46.0811 172.49 46.3176C172.18 46.4712 171.834 46.6039 171.506 46.7462C171.357 46.8054 171.213 46.869 171.076 46.9366C170.41 47.2827 169.657 47.576 168.84 47.8078C168.274 47.9738 167.689 48.1183 167.087 48.2402C166.531 48.3521 166.007 48.507 165.533 48.6999C164.89 48.9497 164.221 49.1791 163.53 49.387C162.775 49.6225 161.97 49.813 161.25 50.0854C160.917 50.2124 160.608 50.3553 160.289 50.4918C160.225 50.5197 160.172 50.5604 160.101 50.5763C159.793 50.6448 159.583 50.8017 159.245 50.8506C159.128 50.8677 158.947 50.8912 158.913 50.9966C158.905 51.0226 158.815 51.0525 158.754 51.0601C158.403 51.1039 158.181 51.276 157.84 51.3262C157.818 51.3262 157.777 51.3261 157.772 51.33C157.644 51.5071 157.291 51.4677 157.063 51.5478C157.013 51.5608 156.969 51.5797 156.933 51.603C156.868 51.6633 156.782 51.6601 156.667 51.6589C156.523 51.6599 156.382 51.6768 156.251 51.7084C155.977 51.7719 155.739 51.883 155.416 51.8779C155.363 51.8779 155.267 51.8925 155.259 51.909C155.198 52.0456 154.852 52.0272 154.791 52.1668C154.782 52.1916 154.683 52.2088 154.619 52.2234C154.503 52.25 154.393 52.2735 154.371 52.3618C154.365 52.3762 154.354 52.3896 154.336 52.401C154.319 52.4123 154.297 52.4211 154.272 52.4265C154.247 52.432 154.22 52.434 154.193 52.4324C154.166 52.4307 154.14 52.4254 154.118 52.417C153.971 52.3726 153.884 52.417 153.773 52.4513C153.515 52.5319 153.283 52.6418 152.964 52.6532C152.89 52.6532 152.826 52.6983 152.75 52.711C152.608 52.7339 152.499 52.7936 152.306 52.7561C152.22 52.7411 152.128 52.7426 152.045 52.7605C151.961 52.7783 151.891 52.8113 151.848 52.8539C151.761 52.9282 151.536 52.9675 151.357 52.9929C151.135 53.0234 150.944 53.0469 150.79 53.1618C150.636 53.2768 150.37 53.2996 150.114 53.3301C150.103 53.1682 150.103 53.1682 150.294 53.1041L150.429 53.205C150.449 53.1256 150.463 53.0723 150.476 53.0221C150.782 52.9786 151.07 52.9034 151.324 52.8005C151.359 52.7885 151.4 52.7817 151.441 52.7809C151.483 52.7809 151.558 52.7936 151.566 52.7859C151.764 52.5821 152.161 52.6456 152.464 52.5859C152.474 52.5859 152.483 52.5796 152.522 52.5675L152.405 52.5199L153.223 52.2659C153.235 52.3173 153.243 52.3503 153.25 52.3834C153.331 52.3073 153.445 52.2431 153.582 52.1964C153.719 52.1497 153.875 52.1219 154.036 52.1154C154.121 52.111 154.192 52.0456 154.284 52.0011L154.431 52.0748C154.453 52.067 154.472 52.0567 154.485 52.0444C154.499 52.0321 154.507 52.0183 154.509 52.0041C154.511 51.9899 154.506 51.9756 154.496 51.9624C154.486 51.9492 154.471 51.9375 154.451 51.9281C154.568 51.9389 154.617 51.9154 154.593 51.8506C154.659 51.8688 154.735 51.8723 154.806 51.8605C154.876 51.8486 154.936 51.8223 154.971 51.7871L155.228 51.8005C155.123 51.7065 155.123 51.7065 154.981 51.7916L154.603 51.8551L154.459 51.9319C154.325 51.9362 154.191 51.9486 154.061 51.9687C152.905 52.2227 151.757 52.4888 150.597 52.7396C149.873 52.8964 149.107 52.9815 148.343 53.0621C147.532 53.1485 146.717 53.2241 145.902 53.3022C145.112 53.3777 144.32 53.4463 143.53 53.525C143.268 53.5511 143.015 53.6057 142.753 53.633C142.332 53.6774 141.907 53.706 141.485 53.7479C141.244 53.7692 141.007 53.8013 140.776 53.8438C140.377 53.9334 139.95 53.9796 139.518 53.9797C139.355 53.9821 139.192 53.9967 139.036 54.0228C138.121 54.1498 137.187 54.1352 136.255 54.1448C135.382 54.1543 134.511 54.1498 133.641 54.2273C133.056 54.2787 132.462 54.2546 131.87 54.2667C131.52 54.2743 131.161 54.287 130.807 54.2971V54.3391C131.078 54.3603 131.351 54.373 131.625 54.3772C131.669 54.3728 131.714 54.378 131.751 54.3915C131.788 54.405 131.814 54.4258 131.824 54.4495L131.832 54.4445C131.379 54.5295 130.89 55.505 130.429 55.434C130.275 55.4184 130.118 55.4138 129.962 55.42C129.657 55.42 129.352 55.4131 129.047 55.42C128.813 55.4239 128.591 55.4556 128.366 55.4492C127.91 55.4372 127.479 55.521 127.03 55.5324L126.418 55.5489C126.258 55.5527 126.095 55.5489 125.969 55.6188C125.951 55.6258 125.93 55.6301 125.908 55.6315C125.886 55.6328 125.863 55.6311 125.843 55.6264C125.664 55.5629 125.485 55.6105 125.305 55.6162C125.065 55.6239 124.838 55.6867 124.582 55.6372C124.382 55.5978 124.187 55.6886 123.958 55.6499C123.762 55.6162 123.529 55.6448 123.312 55.6435C123.095 55.6423 122.896 55.634 122.689 55.6378C122.47 55.6397 122.252 55.6505 122.036 55.6702C121.544 55.7223 121.055 55.7839 120.566 55.8417C119.758 55.9375 118.942 56.0036 118.121 56.0607C117.591 56.0982 117.07 56.1585 116.542 56.2214C116.387 56.2476 116.244 56.2908 116.121 56.3484C115.751 56.4995 115.335 56.6081 114.943 56.737C114.496 56.883 113.976 56.9274 113.541 57.0887C113.341 57.163 113.051 57.1706 112.798 57.2005C112.36 57.2532 111.917 57.2951 111.479 57.3497C111.099 57.4075 110.704 57.429 110.311 57.4132C110.118 57.4011 109.918 57.4303 109.726 57.4227C109.23 57.4037 108.733 57.4303 108.233 57.41C107.754 57.3903 107.274 57.3764 106.799 57.3345C106.33 57.2934 105.873 57.2184 105.44 57.1116C105.206 57.0532 104.966 56.9586 104.67 56.9598C104.614 56.9562 104.561 56.946 104.514 56.9299C104.466 56.9137 104.426 56.8921 104.395 56.8665C104.315 56.8093 104.124 56.7979 103.95 56.7598C103.95 56.7516 103.934 56.7173 103.918 56.6766L103.708 56.716C103.592 56.6481 103.516 56.5649 103.302 56.5408C103.176 56.5261 103.101 56.3973 102.987 56.328C102.91 56.2811 102.91 56.1966 102.733 56.1903C102.682 56.1903 102.646 56.0975 102.596 56.0499C102.508 55.9661 102.5 55.841 102.245 55.8594C102.129 55.7401 102.254 55.5889 102.002 55.4969C101.937 55.4734 101.972 55.3699 101.96 55.2918H101.762L101.974 55.1457C101.917 55.107 101.819 55.0695 101.808 55.0257C101.798 54.9819 101.885 54.94 101.937 54.8886L101.749 54.8009L101.943 54.674L101.746 54.6352L101.957 54.3717L101.624 54.3336L101.91 54.2428C101.89 54.1908 101.809 54.112 101.85 54.0619C101.944 53.9482 101.691 53.9558 101.696 53.8555L101.821 53.7444L101.681 53.611L101.968 53.5837L101.793 53.3812L101.651 53.4358C101.691 53.3615 101.716 53.3151 101.744 53.2694C101.765 53.237 101.821 53.2059 101.812 53.1748C101.79 53.1265 101.75 53.0812 101.695 53.0415C101.461 52.851 101.243 52.6503 100.98 52.47C100.717 52.2897 100.585 52.0662 100.324 51.8985C99.9001 51.6198 99.6232 51.2883 99.1768 51.021C99.1546 51.007 99.1195 50.9931 99.1172 50.9772C99.0763 50.7702 98.825 50.6165 98.6731 50.4375C98.5002 50.2337 98.2887 50.0381 98.1683 49.8209C97.9405 49.772 98.0643 49.6304 97.9288 49.5517C97.8045 49.4704 97.6968 49.382 97.6074 49.2882C97.355 49.0552 97.1225 48.8145 96.8525 48.5897C96.6845 48.4633 96.5022 48.3427 96.3068 48.2284C95.97 48.0196 95.6644 47.7964 95.393 47.5611C95.2166 47.4004 94.9957 47.2544 94.8006 47.0988C94.6054 46.9433 94.4196 46.761 94.1906 46.608C93.9265 46.4315 93.8073 45.2311 93.4567 45.0883C93.4205 45.0743 93.4205 45.0337 93.4065 45.0044C93.3681 44.9514 93.3088 44.9035 93.2327 44.8642C93.1566 44.8249 93.0655 44.7952 92.966 44.7771C92.9461 44.7771 92.9216 44.7822 92.8982 44.7847C92.8503 44.6641 92.8503 44.6641 92.7077 44.6197C92.8047 44.48 92.7883 44.4406 92.585 44.3746C92.4973 44.3434 92.4027 44.3184 92.3034 44.3003C92.2297 44.2923 92.161 44.2744 92.1034 44.2482C92.0458 44.2221 92.0012 44.1884 91.9739 44.1504C91.9213 44.0679 91.8161 44.0476 91.6572 44.0507C91.6467 43.8672 91.4457 43.7879 91.129 43.7726C91.1115 43.7275 91.2108 43.6564 91.0414 43.6456L91.0484 43.6494C90.9163 43.5224 90.9163 43.5224 90.581 43.5072V43.3891L90.3811 43.3974C90.1778 43.2532 90.0306 43.0621 89.569 43.0684L89.6859 42.9414C89.4393 42.7891 89.1927 42.6341 88.938 42.483C88.9029 42.462 88.8585 42.3808 88.7428 42.4874C88.7206 42.3751 88.7428 42.2519 88.4998 42.2868C88.4753 42.2189 88.4361 42.1528 88.3829 42.09C88.3159 42.0445 88.2372 42.0045 88.1492 41.9712C88.1661 41.9687 88.1822 41.9648 88.1971 41.9598C88.2233 41.9509 88.248 41.9407 88.2707 41.9293C87.9915 41.8207 87.8454 41.648 87.5696 41.5356C87.4948 41.5052 87.5205 41.4023 87.4913 41.3058C87.3978 41.2537 87.1408 41.3851 87.0461 41.215C87.0887 41.2324 87.1345 41.2473 87.1828 41.2594C87.2097 41.2639 87.2646 41.2594 87.2728 41.2512C87.2903 41.2308 87.3055 41.194 87.2857 41.1839C87.2132 41.1451 87.1151 41.1204 87.0461 41.0785C86.9059 40.9953 86.7329 40.9159 86.657 40.8162C86.5939 40.733 86.4922 40.7349 86.3356 40.7203L86.6044 40.6721C86.4876 40.587 86.4361 40.4752 86.1288 40.5324C86.1826 40.4689 86.2118 40.4384 86.255 40.3908L85.9325 40.2536C86.0774 40.0371 85.7455 39.9565 85.5258 39.8422C85.5001 39.8282 85.4662 39.8098 85.4662 39.7933C85.4776 39.6746 85.4307 39.5564 85.3302 39.4509C85.2298 39.3453 85.0796 39.2562 84.8948 39.1926C84.8425 39.0129 84.7359 38.8391 84.5793 38.6783C84.4484 38.5513 84.1528 38.4446 84.2393 38.2605C84.242 38.2543 84.2422 38.2478 84.2398 38.2415C84.2373 38.2353 84.2324 38.2294 84.2253 38.2243C83.9565 38.1176 83.884 37.9436 83.7286 37.7982L83.738 37.8033C83.676 37.7347 83.6129 37.6655 83.551 37.5963C83.5358 37.5798 83.5311 37.5595 83.5148 37.543C83.4669 37.4915 83.2811 37.4795 83.3979 37.3779C83.4353 37.343 83.2951 37.2591 83.2635 37.1937C83.1899 37.0433 83.1268 36.8928 82.7961 36.8286H82.9901C82.9597 36.7423 82.9375 36.6635 82.9048 36.5867C82.8651 36.4915 82.7365 36.4464 82.5262 36.4521C82.643 36.3486 82.7868 36.2775 82.5449 36.1981C82.5093 36.1759 82.484 36.1494 82.4714 36.1207C82.4588 36.0921 82.4592 36.0622 82.4724 36.0337C82.5379 35.9187 82.428 35.8717 82.2726 35.8311C82.4012 35.7397 82.4 35.7397 82.3334 35.6362C82.2935 35.5911 82.2667 35.5429 82.2539 35.4933C82.2539 35.3803 82.1371 35.3314 81.9034 35.3187L82.1371 35.2012C82.0494 35.0279 81.9641 34.859 81.8765 34.6844L81.6276 34.678C81.7011 34.6123 81.7429 34.5376 81.7491 34.4608C81.7552 34.3839 81.7255 34.3075 81.6626 34.2386C81.5458 34.1154 81.6848 33.9465 81.4289 33.8354C81.4998 33.7408 81.4998 33.6348 81.4289 33.5402C81.3647 33.4468 81.3798 33.4316 81.4523 33.3293L81.2934 33.2843C81.3074 33.1998 81.3203 33.1192 81.3331 33.0385C81.1263 33.0214 81.4102 32.8595 81.1426 32.8436L81.4313 32.7846L81.0971 32.6976L81.1987 32.5706L80.9779 32.5071C81.0328 32.4125 81.0398 32.3407 81.1076 32.2963C81.1686 32.2531 81.203 32.2006 81.2057 32.1462C81.2084 32.0918 81.1794 32.0383 81.1228 31.9934C80.9919 31.8816 81.0667 31.7934 81.1076 31.688L80.9089 31.6245C80.9309 31.5673 80.9704 31.5126 81.0258 31.4626C81.1263 31.4022 81.0889 31.3514 81.0573 31.2886C80.9405 31.0536 80.833 30.8168 81.0456 30.5774L80.9078 30.4917C80.9276 30.3418 81.0246 30.1907 80.9416 30.0777C80.8517 29.9507 81.069 29.7983 80.7745 29.7202C80.9942 29.51 81.0421 29.31 80.7956 29.0992C80.847 29.0541 81.0047 29.0091 80.8447 28.9367C80.8295 28.9297 80.8447 28.8941 80.8657 28.8732C80.9407 28.7968 81.0006 28.7164 81.0445 28.6332C81.0725 28.5474 80.9907 28.4744 80.75 28.437L80.9638 28.4185C81.0527 28.256 81.0118 28.0782 81.1496 27.9207C80.9919 27.7366 81.3366 27.5702 81.2139 27.3874C81.3787 27.2489 81.36 27.0889 81.3927 26.9346C81.4196 26.8076 81.4453 26.6756 81.4628 26.5454C81.4698 26.4921 81.5002 26.4273 81.3378 26.3974L81.5621 26.3092C81.5621 26.1619 81.4336 26.0114 81.6942 25.885C81.7444 25.8609 81.665 25.758 81.6393 25.6729C81.7561 25.6349 81.8321 25.5498 81.8917 25.4494C81.9559 25.3396 81.998 25.2202 82.1511 25.1281C82.1826 25.1091 82.1639 25.0647 82.1721 25.0348C82.1708 25.0129 82.1793 24.9911 82.1967 24.9713C82.2668 24.9186 82.3871 24.77 82.3684 24.7269C82.3158 24.6113 82.4362 24.5364 82.5694 24.4665C82.7026 24.3967 82.7868 24.3427 82.629 24.276C82.719 24.189 82.8721 24.1052 82.8767 24.022C82.8838 23.9084 83.0462 23.8366 83.0544 23.7369C83.0625 23.6373 83.2881 23.6023 83.267 23.5001L83.2752 23.4969ZM156.989 51.229L156.761 51.2055C156.851 51.3179 156.918 51.269 156.98 51.2252V51.1515H156.951L156.989 51.229ZM164.117 48.8955C164.046 48.925 163.978 48.9568 163.914 48.9907C163.887 49.006 163.89 49.0352 163.869 49.0784C164.114 48.98 164.114 48.9806 164.117 48.8955C164.203 48.9184 164.289 48.9584 164.384 48.9025C164.283 48.8003 164.199 48.9146 164.113 48.8955H164.117ZM100.181 9.6801C100.221 9.66168 100.256 9.64031 100.286 9.6166C100.304 9.59503 100.307 9.57067 100.294 9.54802C100.294 9.53786 100.221 9.5258 100.21 9.53151C100.177 9.5463 100.155 9.56708 100.149 9.58993C100.153 9.62037 100.163 9.65108 100.181 9.6801C100.168 9.67057 100.158 9.65533 100.141 9.65089C100.08 9.63438 100.016 9.62168 99.9527 9.60771C99.9457 9.6185 99.934 9.63946 99.934 9.63946C99.9959 9.65152 100.058 9.66232 100.12 9.67248C100.14 9.67563 100.16 9.67818 100.181 9.6801ZM156.211 51.4792C156.303 51.4754 156.395 51.4716 156.485 51.4652L156.668 51.2747C156.451 51.3065 156.412 51.3763 156.488 51.4697L156.18 51.3871L156.142 51.4081L156.222 51.4874L156.094 51.5173L156.132 51.5433L156.211 51.4792ZM123.422 1.5316C123.613 1.61224 123.779 1.51572 123.967 1.51382C123.77 1.38238 123.581 1.39254 123.429 1.53604C123.27 1.45858 123.104 1.49159 122.944 1.5316C122.913 1.53922 122.911 1.58049 122.895 1.60843C123.081 1.63446 123.245 1.49985 123.422 1.66113V1.5316ZM181.381 17.8026C181.393 17.8009 181.404 17.7981 181.413 17.7943C181.42 17.7905 181.428 17.7791 181.426 17.7784C181.303 17.727 181.088 17.727 181.1 17.5949L181.334 17.6483C181.141 17.4578 181.003 17.2895 180.687 17.1587L180.929 17.146C180.871 17.1085 180.837 17.0825 180.794 17.0597C180.724 17.0241 180.648 16.9917 180.574 16.9574C180.678 16.8222 180.643 16.7669 180.322 16.6742L180.583 16.9619L180.378 16.9206C180.417 17.0546 180.447 17.1632 180.483 17.2711C180.569 17.5327 180.644 17.7949 180.849 18.0413C180.985 18.1994 181.092 18.3644 181.169 18.534C181.319 18.9005 181.515 19.2611 181.753 19.6135C181.903 19.819 182.084 20.0176 182.293 20.2072C182.524 20.4217 182.674 20.6592 182.733 20.9056C182.808 21.2301 182.85 21.5571 183.112 21.8619C183.205 21.9692 183.263 22.0843 183.285 22.2022C183.332 22.6372 183.536 23.063 183.883 23.4557C183.963 23.5537 184.03 23.6547 184.083 23.7579C184.2 23.942 184.304 24.1274 184.421 24.3116C184.458 24.37 184.503 24.4322 184.645 24.4303C184.805 24.2913 184.665 24.189 184.49 24.0741C184.582 24.0678 184.7 24.0893 184.653 23.9998C184.617 23.9363 184.697 23.85 184.685 23.7763C184.685 23.7465 184.568 23.7211 184.491 23.6861C184.511 23.5877 184.627 23.4836 184.521 23.3528C184.447 23.2588 184.62 23.1255 184.429 23.0264C184.422 23.0226 184.429 22.9966 184.447 22.9947C184.583 22.9712 184.512 22.9312 184.478 22.8937C184.455 22.8683 184.41 22.8423 184.413 22.8175C184.422 22.7579 184.405 22.698 184.363 22.6428C184.321 22.5875 184.255 22.5386 184.171 22.5C184.125 22.4778 184.081 22.4219 184.102 22.3997C184.197 22.2981 184.07 22.2353 184.012 22.1521C183.943 22.0277 183.894 21.9002 183.867 21.7711C183.7 21.7711 183.567 21.7266 183.606 21.7C183.796 21.5685 183.537 21.5343 183.442 21.4733C183.613 21.2936 183.508 21.2193 183.182 21.1006L183.335 21.0009C183.233 20.933 183.146 20.8588 183.076 20.7799C183.024 20.705 183.051 20.6161 183.026 20.5348C183.014 20.4954 182.933 20.4618 182.927 20.4231C182.898 20.2262 182.722 20.0567 182.594 19.8783L182.605 19.8833C182.7 19.7748 182.425 19.7881 182.413 19.7163L182.51 19.6287L182.321 19.6243C182.355 19.5481 182.386 19.477 182.421 19.3995L182.173 19.3703L182.302 19.289C182.259 19.19 182.009 19.1315 182.141 19.0039L181.965 19.009L182.098 18.8966C181.934 18.6896 181.864 18.4794 181.672 18.2997L181.505 18.268C181.483 18.2502 181.462 18.2318 181.441 18.214L181.675 18.162C181.615 18.1124 181.53 18.0724 181.522 18.028C181.493 17.8953 181.504 17.8946 181.377 17.8026H181.381ZM101.687 51.5264C101.66 51.5156 101.609 51.5042 101.611 51.4947C101.626 51.3861 101.694 51.2826 101.683 51.1702C101.665 50.9581 101.669 50.9524 101.482 50.7092C101.464 50.6857 101.503 50.6407 101.538 50.6146C101.573 50.5886 101.627 50.5918 101.714 50.5715L101.402 50.4127C101.519 50.334 101.662 50.2552 101.44 50.1625C101.42 50.1473 101.405 50.1298 101.399 50.1112C101.392 50.0927 101.393 50.0735 101.402 50.0552C101.452 49.9505 101.389 49.8863 101.154 49.8609C101.355 49.8343 101.301 49.7873 101.25 49.7428C101.198 49.6984 101.142 49.6654 101.099 49.6235C101.067 49.6017 101.044 49.5767 101.031 49.55C101.017 49.5233 101.014 49.4953 101.021 49.4679C101.035 49.426 100.913 49.3606 100.828 49.3225C100.786 49.3041 100.687 49.3225 100.588 49.3225C100.646 49.2139 100.55 49.151 100.375 49.1021C100.154 49.051 99.949 48.9818 99.7669 48.897C99.4982 48.7602 99.1924 48.6467 98.8601 48.5605C98.6988 48.5148 98.4815 48.497 98.3565 48.391C98.2863 48.3326 98.1134 48.311 97.9942 48.2748C97.9813 48.2322 97.9685 48.191 97.9545 48.1478L97.7558 48.1719C97.7044 48.1014 97.7453 47.9814 97.4917 48.0075C97.4754 48.0075 97.4532 47.9662 97.4216 47.9548C97.348 47.9368 97.2772 47.9156 97.2101 47.8913C97.1377 47.8544 97.1049 47.7903 97.0266 47.7643C96.7929 47.6792 96.5043 47.6341 96.3676 47.4823C96.0603 47.4436 95.9446 47.2919 95.7705 47.1782C95.57 47.0406 95.2894 46.944 94.9747 46.9045C95.3007 47.0658 95.4561 47.2855 95.6817 47.476C95.953 47.6925 96.2468 47.9005 96.5616 48.0989C96.9024 48.3121 97.2081 48.5412 97.4754 48.7834C97.7289 49.031 98.0737 49.2539 98.284 49.5104C98.5177 49.7962 98.7596 50.0819 99.0307 50.3549C99.3182 50.6476 99.5145 50.9639 99.8978 51.2318C100.223 51.4591 100.482 51.7157 100.766 51.9582C100.992 52.1487 101.233 52.3328 101.445 52.5297C101.526 52.6021 101.635 52.6052 101.764 52.6217C101.822 52.5259 101.86 52.4408 101.701 52.3678L101.857 52.3138C101.721 52.2611 101.887 52.1189 101.611 52.1093C101.646 52.0719 101.673 52.0458 101.698 52.0179L101.76 52.0814L101.808 52.0598L101.691 52.0223C101.754 51.9432 101.785 51.8578 101.783 51.7717C101.781 51.6857 101.745 51.6008 101.679 51.5226L101.804 51.4883L101.739 51.456C101.721 51.4763 101.704 51.5023 101.687 51.5264ZM112.204 4.18829H112.391L112.401 4.16035L112.21 4.10638C112.21 4.09685 112.21 4.08733 112.215 4.0778H112.71C112.838 4.00028 112.998 3.94006 113.177 3.90192C113.197 3.89747 113.211 3.87843 113.221 3.86446C113.232 3.85049 113.241 3.82572 113.252 3.80667C113.284 3.81767 113.318 3.82681 113.354 3.83398C113.397 3.84418 113.446 3.84727 113.493 3.84287C113.559 3.82525 113.621 3.80397 113.68 3.77937C113.67 3.74635 113.661 3.71206 113.657 3.70064C113.867 3.59587 114.125 3.59587 114.33 3.50697C114.536 3.41808 114.798 3.4384 114.991 3.34252C115.183 3.24664 115.492 3.33045 115.608 3.17488L115.749 3.2606C116.021 3.05615 116.407 2.98694 116.811 2.92979C116.802 2.91222 116.797 2.89407 116.797 2.87582C116.809 2.85642 116.825 2.83803 116.846 2.82121C116.933 2.84021 117.023 2.85322 117.115 2.85994C117.177 2.85189 117.233 2.8345 117.278 2.80978C117.147 2.66755 117.337 2.71771 117.452 2.72025C117.484 2.72016 117.515 2.71386 117.539 2.70247C117.598 2.67453 117.642 2.62628 117.706 2.61739C117.771 2.6085 117.857 2.63516 117.926 2.64532L117.973 2.58183C118.006 2.60215 118.032 2.62056 118.065 2.64151C118.101 2.59072 118.133 2.54436 118.182 2.47896C118.533 2.56151 118.752 2.48468 118.86 2.27831C119.093 2.38372 119.239 2.10179 119.45 2.26752C119.762 2.17291 120.052 2.08401 120.343 1.99766C120.368 1.99004 120.409 1.99766 120.443 1.99766C120.53 1.99459 120.616 1.98693 120.7 1.9748C120.801 1.95702 120.868 1.91511 121.005 1.91765C121.142 1.92019 121.297 1.79701 121.491 1.88019C121.51 1.87364 121.528 1.8662 121.544 1.85797C121.537 1.82304 121.528 1.7786 121.516 1.73097C121.38 1.74685 121.282 1.76145 121.179 1.76971C120.366 1.84454 119.568 1.96563 118.801 2.131C117.921 2.30879 117.068 2.52405 116.199 2.71835C115.33 2.91264 114.493 3.12599 113.609 3.27902C112.429 3.48411 111.422 3.86763 110.321 4.154C109.832 4.28099 109.395 4.4664 108.929 4.6226C108.251 4.8434 107.603 5.09063 106.991 5.36234C106.134 5.75157 105.266 6.13318 104.427 6.53385C103.972 6.75014 103.546 6.98353 103.151 7.23231C102.612 7.57201 102.12 7.93077 101.604 8.28317C101.263 8.5143 100.897 8.7359 100.572 8.97338C100.338 9.14609 100.145 9.33849 99.9352 9.52199L99.9854 9.55437C100.157 9.45278 100.379 9.46929 100.642 9.46548C100.266 9.24261 100.863 9.28324 100.829 9.13085C101.03 9.21403 101.18 9.20451 101.309 9.13085C101.32 9.12514 101.309 9.10799 101.309 9.08831L101.106 9.10863C101.081 9.05847 101.037 8.98989 101.193 9.01846C101.379 9.05275 101.294 8.9664 101.343 8.9429L101.46 8.99624L101.687 8.84512L101.418 8.83623C101.548 8.79377 101.683 8.75581 101.822 8.72257C101.939 8.70162 101.853 8.57526 102.074 8.60447C102.106 8.6039 102.137 8.59985 102.167 8.59255C102.196 8.58525 102.222 8.57485 102.244 8.56195C102.266 8.54906 102.283 8.53394 102.293 8.51747C102.304 8.501 102.309 8.48351 102.307 8.46604C102.292 8.40255 102.493 8.40255 102.441 8.33905C102.542 8.33143 102.665 8.33905 102.733 8.31175C102.8 8.28445 102.805 8.2165 102.85 8.15555L103.095 8.12316C103.123 8.07491 102.942 8.01776 103.118 7.98157C103.133 7.97839 103.179 8.01903 103.206 8.03554C103.251 7.99617 103.28 7.94918 103.339 7.92632C103.415 7.90404 103.496 7.8886 103.581 7.88061C103.493 7.7625 103.514 7.70028 103.638 7.70091C103.655 7.72694 103.672 7.75298 103.694 7.78473L104.045 7.66599L103.881 7.56439C103.998 7.54408 104.115 7.5009 104.211 7.50979C104.391 7.5263 104.431 7.46661 104.49 7.40629L104.564 7.39422C104.758 7.34152 104.808 7.27485 104.709 7.20373L104.972 7.18786C104.982 7.14214 104.993 7.0888 105.004 7.0342L105.268 6.99293L105.063 7.10023H105.263V6.99293V6.97007C105.274 6.97045 105.285 6.97152 105.295 6.97324L105.426 7.00817C105.493 6.94149 105.525 6.85323 105.607 6.83736C105.795 6.80524 105.952 6.73401 106.043 6.63925C106.057 6.62655 106.092 6.6056 106.103 6.6075C106.286 6.64941 106.297 6.55734 106.369 6.51099C106.405 6.48425 106.453 6.4625 106.507 6.44749C106.636 6.41955 106.771 6.39987 106.934 6.3713L106.723 6.28431C106.73 6.27542 106.738 6.26653 106.745 6.257L106.992 6.27669C107.031 6.21319 107.064 6.1643 107.089 6.12493C107.219 6.11032 107.353 6.11667 107.413 6.08366C107.498 6.0354 107.6 6.0481 107.691 6.03603C107.636 5.86078 107.641 5.85443 107.924 5.84047C107.985 5.8416 108.045 5.83148 108.094 5.81176C108.143 5.79205 108.179 5.76389 108.194 5.73189L108.187 5.7357C108.282 5.72336 108.367 5.69525 108.431 5.65529C108.495 5.61533 108.535 5.56552 108.544 5.51282L108.841 5.4633C108.824 5.43091 108.815 5.4125 108.808 5.3998L109.194 5.32106C109.176 5.28551 109.164 5.25757 109.169 5.27027C109.373 5.17439 109.726 5.22518 109.729 5.00993L109.864 5.04168C110.078 4.81309 110.355 4.63975 110.901 4.66705L110.804 4.52355L111.31 4.46005L111.386 4.36989L111.511 4.44926C111.608 4.38132 111.679 4.29687 111.801 4.25877C111.922 4.22067 112.028 4.08987 112.227 4.19527C112.199 4.20416 112.17 4.21305 112.21 4.20099C112.176 4.22258 112.189 4.20543 112.203 4.18829H112.204ZM152.092 2.36276C152.118 2.38245 152.145 2.4015 152.171 2.42055L152.208 2.39451L152.081 2.36784C152.139 2.29165 152.081 2.22942 151.951 2.22117C151.625 2.19831 151.377 2.08719 151.088 2.02433C150.421 1.87956 149.748 1.74367 149.074 1.60843C148.877 1.56997 148.676 1.53941 148.472 1.51699C147.904 1.4535 147.335 1.39508 146.765 1.34047C146.194 1.28586 145.642 1.23253 145.077 1.1938C144.675 1.16586 144.259 1.17284 143.861 1.14681C143.26 1.10744 142.664 1.04839 142.065 1.00458C141.558 0.967747 141.049 0.941079 140.546 0.909966C140.142 0.887107 139.735 0.883298 139.335 0.84647C138.326 0.760749 137.324 0.65598 136.297 0.624867C135.82 0.610897 135.344 0.569625 134.869 0.569625C134.16 0.563227 133.45 0.578491 132.744 0.615343C131.669 0.678839 130.601 0.781703 129.53 0.869328C129.323 0.885837 129.117 0.905521 128.91 0.923935C128.811 0.93219 128.761 0.956953 128.82 1.03505C129.552 0.982987 130.282 1.06998 131.025 1.09855C130.77 1.20649 130.477 1.22554 130.179 1.22554C129.959 1.22872 129.698 1.18935 129.527 1.23951C129.188 1.33984 128.841 1.29856 128.526 1.27888C128.115 1.25259 127.699 1.29209 127.328 1.39254C127.238 1.41476 127.112 1.44778 127.041 1.43C126.815 1.37413 126.615 1.40143 126.4 1.43953C126.303 1.44827 126.203 1.45061 126.105 1.44651C126.054 1.44838 126.003 1.45394 125.955 1.46302C125.887 1.48081 125.817 1.49609 125.746 1.50874C125.578 1.52588 125.407 1.53858 125.238 1.54937C124.965 1.56588 124.708 1.64208 124.456 1.65732C123.863 1.69351 123.348 1.83384 122.806 1.93861C122.514 1.99512 122.222 2.0529 121.933 2.11386C121.481 2.2091 120.951 2.19196 120.566 2.38689C120.547 2.39642 120.491 2.38118 120.464 2.38689C120.23 2.45737 119.923 2.42245 119.709 2.53865C119.577 2.6104 119.402 2.6485 119.223 2.58437C119.145 2.62374 119.068 2.68787 119.023 2.68152C118.88 2.6612 118.819 2.71009 118.725 2.74501C118.645 2.76534 118.56 2.78006 118.473 2.78883C118.301 2.82057 118.039 2.82883 117.98 2.89233C117.85 3.03011 117.583 2.96979 117.438 3.05234C117.227 3.00027 117.121 3.07075 117.017 3.15393C116.971 3.18065 116.916 3.20222 116.855 3.21743C116.489 3.33426 116.123 3.45046 115.756 3.56602C115.698 3.58444 115.624 3.61301 115.569 3.60666C115.401 3.58698 115.36 3.65111 115.272 3.70317C115.021 3.85112 114.75 3.98827 114.348 4.00542C114.291 4.00542 114.231 4.04161 114.184 4.06383C114.138 4.08606 114.091 4.12162 114.032 4.13432C113.423 4.27861 112.833 4.4458 112.267 4.63467C112.118 4.68229 111.949 4.71213 111.808 4.76547C111.355 4.93501 110.909 5.11026 110.465 5.28614C110.167 5.40382 109.871 5.52341 109.579 5.6449C109.345 5.74078 109.146 5.85888 108.898 5.93634C108.643 6.01174 108.408 6.10457 108.197 6.21255C108.161 6.228 108.119 6.23905 108.074 6.24497C108.029 6.25088 107.983 6.25152 107.937 6.24684C107.907 6.24127 107.874 6.2397 107.842 6.24225C107.81 6.2448 107.779 6.25141 107.753 6.26154C107.726 6.27168 107.705 6.28505 107.689 6.30058C107.674 6.31612 107.666 6.33338 107.665 6.35098C107.644 6.45892 107.513 6.50273 107.373 6.54147C107.147 6.60496 106.906 6.64497 106.68 6.70656C106.612 6.72497 106.572 6.77831 106.528 6.81831C106.452 6.88752 106.411 6.97769 106.305 7.02595C106.123 7.10057 105.927 7.16443 105.721 7.21643C105.561 7.26088 105.362 7.27485 105.322 7.3993C105.316 7.41708 105.256 7.4374 105.216 7.44185C105.043 7.46089 104.872 7.47677 104.827 7.59297C104.827 7.60059 104.764 7.61075 104.74 7.60567C104.603 7.57455 104.533 7.63424 104.483 7.67488C104.224 7.88759 103.736 7.97268 103.504 8.19809C103.188 8.26159 103.101 8.4997 102.71 8.50859C102.686 8.50859 102.657 8.53272 102.639 8.54795C102.541 8.63748 102.455 8.7321 102.342 8.81591C102.305 8.84321 102.202 8.84448 102.109 8.86036C102.133 9.03878 101.897 9.13466 101.632 9.20832C101.439 9.25537 101.284 9.33761 101.191 9.44072C101.17 9.46686 101.134 9.48895 101.09 9.50421C100.847 9.57469 100.6 9.64136 100.553 9.81344C100.547 9.83312 100.491 9.84773 100.459 9.86487C100.237 9.98043 100.022 10.0998 99.7926 10.2109C99.5636 10.322 99.3252 10.4598 99.0482 10.5379C98.7713 10.616 98.7701 10.7919 98.5493 10.8789C98.6346 10.9665 98.485 11.0027 98.4149 11.0548C98.2987 11.131 98.1899 11.2105 98.0889 11.2929C97.8376 11.5355 97.6051 11.7831 97.362 12.0276C97.2685 12.1215 97.1692 12.2136 97.0711 12.3063C96.6691 12.6835 96.2613 13.0594 95.8675 13.4391C95.5262 13.7693 95.2072 14.1058 94.8683 14.4366C94.3729 14.9186 93.7687 15.3611 93.1821 15.81C92.7322 16.1548 92.3291 16.518 91.9026 16.8723C91.6689 17.0673 91.4445 17.2679 91.1851 17.4527C90.9083 17.6462 90.6833 17.8599 90.5167 18.0877L89.805 19.0757C89.562 19.4116 89.2909 19.7424 89.0864 20.0846C88.9403 20.3291 88.8725 20.585 88.6891 20.8263C88.5395 21.0231 88.4706 21.2377 88.3642 21.4441C88.1597 21.8397 87.9447 22.2333 87.7531 22.6308C87.6549 22.8347 87.593 23.0442 87.5194 23.2512C87.4364 23.4861 87.3605 23.7217 87.2857 23.9566C87.2109 24.1916 87.1571 24.4183 87.0438 24.6411C86.7703 25.1802 86.3941 25.7009 86.262 26.2647C86.1054 26.941 85.8484 27.6109 85.631 28.2827C85.5387 28.569 85.4487 28.8541 85.3389 29.1399C85.208 29.4796 85.0397 29.8148 84.917 30.1558C84.7621 30.6108 84.7189 31.075 84.7885 31.5362C84.8084 31.6804 84.7978 31.827 84.8341 31.9699C84.8972 32.2131 84.9918 32.4544 85.0608 32.6969C85.1776 33.0893 85.2676 33.4836 85.3856 33.8754C85.5036 34.2672 85.6333 34.6425 85.7654 35.0247C85.8822 35.3708 86.0096 35.7155 86.1335 36.061C86.2503 36.3753 86.3578 36.6896 86.4735 37.0039C86.6167 37.3805 86.8345 37.7475 87.1232 38.0986C87.3756 38.4129 87.6783 38.7183 87.7998 39.0612C87.8293 39.1353 87.8704 39.208 87.9225 39.2783C88.1107 39.5501 88.2836 39.8257 88.4998 40.0898C88.6828 40.3059 88.8908 40.5154 89.1226 40.7172C89.3154 40.8892 89.576 41.0391 89.756 41.2137C90.1883 41.6347 90.5739 42.0684 91.0495 42.4773C91.4327 42.8135 91.8473 43.1388 92.2917 43.452C92.6329 43.6901 93.015 43.9123 93.2347 44.1968C93.267 44.2376 93.3172 44.2736 93.3808 44.3015C93.5619 44.3796 93.6145 44.492 93.6566 44.6031C93.9101 44.5873 93.9791 45.6028 94.0235 45.8289C94.4769 45.7463 94.4313 45.9699 94.5458 46.0892L94.7188 46.0715L94.7608 46.1813C94.935 46.2543 95.0763 46.3051 95.1979 46.3667C95.2937 46.415 95.3451 46.5001 95.4515 46.5261C95.5553 46.5475 95.6499 46.5805 95.7289 46.6229C95.808 46.6653 95.8699 46.7163 95.9107 46.7725C96.0825 46.7687 96.1082 46.8702 96.2402 46.9064C96.4607 46.968 96.6587 47.0508 96.8245 47.1509C96.9308 47.2144 96.9846 47.2931 97.1751 47.3103C97.2863 47.3313 97.3867 47.3664 97.4684 47.4125C97.646 47.4912 97.8189 47.5712 97.9884 47.6557C98.0655 47.6944 98.1309 47.7827 98.1882 47.7827C98.4382 47.7687 98.3892 47.8779 98.4546 47.9471C98.6883 47.8697 98.7479 48.0106 98.8951 48.0494C99.0669 48.0926 99.2457 48.1275 99.2177 48.2456C99.3123 48.2538 99.4093 48.2456 99.4666 48.2703C99.588 48.3177 99.6963 48.3744 99.7879 48.4386C100.074 48.645 100.364 48.8501 100.772 48.9885C100.92 49.0386 101.037 49.085 101.059 49.1847C101.06 49.2003 101.067 49.2157 101.08 49.2299C101.092 49.244 101.109 49.2568 101.131 49.2672C101.273 49.3091 101.289 49.3809 101.334 49.4545C101.439 49.6292 101.568 49.7993 101.691 49.9701C101.745 50.0262 101.793 50.0839 101.835 50.1429C101.952 50.3708 101.97 50.6127 102.178 50.8273C102.185 50.8357 102.188 50.8448 102.188 50.854C102.188 50.8632 102.185 50.8723 102.178 50.8807C101.951 51.0077 102.178 51.1594 102.132 51.3004C102.107 51.4045 102.107 51.51 102.132 51.6141C102.168 51.8046 101.972 52.0255 102.341 52.1855C102.348 52.1904 102.353 52.1961 102.356 52.2021C102.358 52.2082 102.358 52.2144 102.355 52.2205C102.273 52.3646 102.386 52.5271 102.178 52.6649C102.152 52.682 102.133 52.7019 102.123 52.7232C102.113 52.7445 102.111 52.7667 102.117 52.7884C102.124 52.8102 102.139 52.8309 102.162 52.8492C102.184 52.8675 102.213 52.8831 102.248 52.8948C102.296 52.9138 102.301 52.9621 102.333 52.9957C102.464 53.1354 102.583 53.2796 102.735 53.4123C103.278 53.8685 103.92 54.2875 104.648 54.66C104.761 54.7326 104.892 54.7966 105.037 54.8505C105.564 55.0099 106.109 55.1534 106.638 55.3096C107.097 55.4454 107.544 55.5934 108 55.7305C108.457 55.8677 108.862 56.0277 109.403 56.0442C109.738 56.0544 110.069 56.1014 110.403 56.1268C110.486 56.1279 110.569 56.1241 110.651 56.1153V56.0823L110.112 56.0093C110.346 55.9515 110.428 55.9502 110.605 55.9921C110.722 56.0188 110.839 56.0766 110.948 56.0671C111.289 56.036 111.615 56.0823 111.945 56.1026C112.229 56.1204 112.522 56.1318 112.797 56.1591C113.161 56.2075 113.545 56.1834 113.878 56.0912C113.893 56.1376 113.905 56.1756 113.916 56.2068C114.196 56.2166 114.478 56.2149 114.758 56.2017C115.01 56.1696 115.257 56.1258 115.495 56.0709L116.007 55.7909L116.391 55.8385C116.359 55.775 116.34 55.7356 116.32 55.6937L117.188 55.5985V55.5312L117.862 55.4518C117.852 55.4677 117.843 55.4842 117.835 55.5L117.895 55.507L117.903 55.4512C118.187 55.4264 118.469 55.4023 118.752 55.3762C118.786 55.3731 118.816 55.3591 118.849 55.3559C118.933 55.3468 119.018 55.3409 119.103 55.3381C119.289 55.3337 119.54 55.3718 119.646 55.321C119.81 55.2416 119.96 55.2753 120.114 55.2638C120.194 55.2575 120.289 55.2683 120.353 55.2486C120.542 55.1895 120.764 55.2848 120.943 55.2042C121.436 55.2676 121.944 55.187 122.438 55.2486C122.593 55.1851 122.756 55.2848 122.873 55.2575C123.065 55.2137 123.23 55.2473 123.405 55.2575C123.557 55.274 123.711 55.2831 123.866 55.2848C124.254 55.2664 124.638 55.2295 125.025 55.208C125.544 55.1787 126.063 55.1495 126.583 55.1356C127.082 55.1222 127.591 55.0981 128.082 55.1356C128.656 55.1781 129.215 55.1438 129.781 55.1305C130.771 55.107 131.758 54.099 132.748 54.0717C133.025 54.0635 133.305 54.0762 133.58 54.0584C134.074 54.026 134.558 53.9695 135.065 53.9847C135.608 54.0006 136.154 53.972 136.701 53.9682C137.277 53.9644 137.854 53.9778 138.423 53.8965C138.677 53.8603 138.949 53.8622 139.212 53.8393C139.636 53.8025 140.062 53.7663 140.481 53.7168C140.818 53.6774 141.143 53.5898 141.479 53.5765C142.018 53.5593 142.517 53.473 143.026 53.3974C143.203 53.3684 143.383 53.3452 143.565 53.3282C144.066 53.2882 144.579 53.2774 145.07 53.2139C146.069 53.0869 147.095 53.0367 148.091 52.8964C148.549 52.8329 149.026 52.8107 149.493 52.7491C149.92 52.6898 150.341 52.6178 150.753 52.5332C150.986 52.4856 151.204 52.4062 151.439 52.3516C151.919 52.2449 152.409 52.1497 152.891 52.0462C153.292 51.9605 153.692 51.8729 154.087 51.7808C154.353 51.7173 154.617 51.6538 154.873 51.5782C155.129 51.5027 155.34 51.4271 155.574 51.3541C155.808 51.2811 156.033 51.2271 156.244 51.1528C156.759 50.9623 157.249 50.7547 157.838 50.6302C158.158 50.5667 158.468 50.4877 158.762 50.394C159.09 50.2854 159.493 50.2505 159.825 50.1337C159.846 50.1273 159.87 50.1244 159.893 50.1254C160.179 50.1254 160.371 50.0232 160.584 49.9419C161.098 49.7445 161.607 49.5425 162.131 49.352C162.46 49.2241 162.809 49.1123 163.174 49.0181C163.588 48.913 163.961 48.7661 164.273 48.585C164.371 48.5317 164.489 48.4898 164.586 48.4358C164.912 48.2523 165.337 48.1386 165.679 47.9596C166.02 47.7805 166.431 47.6205 166.778 47.4275C167.018 47.2941 167.268 47.1379 167.657 47.11C167.696 47.11 167.728 47.0789 167.763 47.063C167.997 46.9576 168.218 46.8496 168.452 46.7455C168.711 46.6306 168.969 46.5138 169.244 46.409C169.518 46.3042 169.711 46.1677 169.958 46.0547C170.523 45.7962 171.097 45.5467 171.688 45.3041C171.914 45.2121 172.171 45.1302 172.213 44.9524C172.213 44.9295 172.282 44.9098 172.318 44.8889C172.354 44.8679 172.435 44.8355 172.458 44.8019C172.481 44.7412 172.535 44.6854 172.615 44.6412C172.691 44.6076 172.7 44.5308 172.744 44.4742C172.814 44.3834 172.848 44.2723 172.967 44.2069C173.238 44.0564 173.409 43.8736 173.62 43.7028C173.832 43.532 173.993 43.3129 174.493 43.3218C174.363 43.4488 174.242 43.5758 174.096 43.7028C173.798 43.9568 173.475 44.1987 173.184 44.4533C172.816 44.7746 172.453 45.094 171.916 45.3422C171.65 45.4692 171.409 45.6083 171.153 45.7404C171.009 45.814 170.861 45.8858 170.712 45.9556C169.965 46.3017 169.223 46.6496 168.468 46.99C167.919 47.2376 167.352 47.4738 166.796 47.717C166.661 47.7763 166.532 47.8399 166.411 47.9075C165.918 48.1837 165.409 48.4491 164.801 48.653C164.703 48.686 164.613 48.7266 164.519 48.7634C164.616 48.7798 164.721 48.7748 164.81 48.7495C165.104 48.6607 165.379 48.5542 165.628 48.432C166.054 48.2256 166.602 48.1513 167.108 48.0396C167.614 47.9278 168.081 47.8021 168.565 47.6802C169.171 47.5278 169.674 47.2846 170.225 47.0833C170.655 46.9265 170.97 46.6966 171.41 46.5468C171.503 46.5157 171.548 46.4306 171.644 46.4141C172.057 46.3398 172.228 46.0896 172.634 46.0191C172.73 45.9137 172.915 45.8547 173.078 45.7931C173.24 45.7315 173.327 45.64 173.552 45.6026C173.778 45.5651 173.948 45.4292 174.159 45.3435C174.356 45.2583 174.525 45.1547 174.655 45.0375C174.785 44.9251 175.104 44.9105 175.123 44.7524C175.425 44.5797 175.722 44.4038 176.033 44.2355C176.232 44.1146 176.39 43.9758 176.5 43.8253C176.524 43.7993 176.53 43.7618 176.565 43.7453C176.698 43.6736 176.849 43.6107 176.974 43.5358C177.105 43.4571 177.222 43.372 177.324 43.2818C177.558 43.0697 177.723 42.8373 178.053 42.6519C178.432 42.4366 178.724 42.1757 179.054 41.935C179.129 41.8811 179.217 41.8328 179.287 41.7763C179.599 41.5013 179.902 41.2245 180.212 40.9508C180.301 40.8715 180.409 40.7984 180.498 40.7191C180.682 40.5559 180.849 40.3895 181.038 40.2263C181.239 40.0492 181.454 39.8771 181.649 39.698C181.717 39.6345 181.711 39.5463 181.794 39.4955C182.028 39.3552 182.185 39.1894 182.396 39.044C182.628 38.8665 182.804 38.6693 182.917 38.4605C183.052 38.2656 183.156 38.0646 183.227 37.8598C183.319 37.5544 183.326 37.2471 183.4 36.9429C183.48 36.6121 183.368 36.2756 183.516 35.946C183.578 35.7907 183.624 35.6337 183.653 35.4755C183.719 35.1841 183.763 34.892 183.835 34.6012C183.894 34.3662 183.984 34.1345 184.054 33.9027C184.075 33.8303 184.063 33.7541 184.09 33.6824C184.149 33.5325 184.22 33.384 184.291 33.2379C184.319 33.1795 184.376 33.1249 184.395 33.0658C184.451 32.895 184.498 32.723 184.542 32.5509C184.579 32.4137 184.608 32.2759 184.637 32.1388C184.68 31.9375 184.663 31.7337 184.739 31.5349C184.758 31.5054 184.767 31.4742 184.766 31.4429C184.7 31.2524 184.782 31.0619 184.78 30.8758C184.78 30.7146 184.792 30.5527 184.801 30.3914C184.801 30.2987 184.767 30.2079 184.776 30.112C184.776 30.0485 184.925 29.9507 184.733 29.8904C184.833 29.7822 184.852 29.6573 184.785 29.5418C184.636 29.6872 184.63 29.8009 184.745 29.8929C184.708 29.9069 184.649 29.9164 184.638 29.9348C184.569 30.0529 184.513 30.1736 184.45 30.293C184.362 30.4587 184.367 30.6339 184.216 30.7946C184.06 30.9487 183.947 31.1145 183.88 31.2867C183.821 31.4695 183.673 31.6302 183.571 31.801C183.554 31.8312 183.54 31.8619 183.529 31.8931C183.459 32.1001 183.387 32.3071 183.322 32.5153C183.258 32.7236 183.206 32.9338 183.139 33.1427C183.089 33.3097 183.048 33.4779 182.977 33.6424C182.905 33.8068 182.797 33.984 182.705 34.1548C182.614 34.3256 182.536 34.4939 182.438 34.6628C182.309 34.8837 182.171 35.1034 182.03 35.3225C181.874 35.5613 181.716 35.7987 181.556 36.0349C181.446 36.1956 181.306 36.3524 181.214 36.5143C181.161 36.6096 181.151 36.7099 181.02 36.7905C180.968 36.8252 180.934 36.8665 180.92 36.9105C180.837 37.1595 180.569 37.3665 180.389 37.5931C180.137 37.9106 179.821 38.2129 179.536 38.5227C179.303 38.7767 179.069 39.0383 178.835 39.2948C178.73 39.4066 178.602 39.5126 178.496 39.6244C178.283 39.8447 178.084 40.0689 177.864 40.2892C177.605 40.5483 177.332 40.8035 177.063 41.06C176.803 41.3051 176.54 41.5494 176.274 41.7928C176.217 41.8356 176.153 41.8756 176.083 41.9122C176.038 41.8715 176.028 41.8398 176.051 41.8188C176.284 41.6048 176.448 41.3743 176.713 41.1674C177.029 40.9229 177.218 40.6365 177.516 40.3851C177.572 40.3462 177.619 40.3035 177.655 40.2581C177.719 40.1393 177.683 39.9946 177.958 39.9342C178.173 39.6733 178.385 39.4123 178.602 39.152C178.718 39.0148 178.821 38.8758 178.952 38.745C179.129 38.585 179.271 38.4145 179.376 38.237C179.396 38.2008 179.398 38.15 179.444 38.1316C179.707 38.0281 179.75 37.8547 179.904 37.7176C180.062 37.5709 180.204 37.4195 180.33 37.2642C180.401 37.1804 180.426 37.0833 180.506 37.0026C180.557 36.9571 180.589 36.9062 180.601 36.8534C180.617 36.7206 180.682 36.591 180.794 36.4724C180.954 36.3257 181.013 36.2819 181.013 36.1111C181.011 36.0548 181.036 35.9992 181.086 35.9498C181.224 35.8305 181.227 35.6997 181.259 35.5689C181.283 35.4654 181.31 35.3435 181.424 35.2698C181.609 35.1498 181.627 35.0158 181.682 34.878C181.76 34.6825 181.815 34.478 181.969 34.3002C182.117 34.1378 182.245 33.97 182.35 33.798C182.384 33.7395 182.448 33.6849 182.479 33.6259C182.543 33.5033 182.651 33.377 182.639 33.2551C182.62 33.0449 182.729 32.8474 182.776 32.6449C182.808 32.5039 182.892 32.3661 182.934 32.2258C182.977 32.0855 183.021 31.9305 183.07 31.7813C183.084 31.6878 183.123 31.596 183.187 31.5089C183.385 31.289 183.518 31.0532 183.578 30.8104C183.615 30.6993 183.695 30.5946 183.716 30.4853C183.738 30.3958 183.716 30.3126 183.812 30.2212C183.889 30.1444 183.825 30.025 183.827 29.9247C183.826 29.9056 183.837 29.8868 183.858 29.8713C183.974 29.792 183.974 29.6993 183.974 29.604C183.989 29.5291 184.014 29.4548 184.048 29.3818C184.083 29.2688 184.158 29.1545 184.022 29.044C184.191 28.9938 184.292 28.9386 184.132 28.8389C184.122 28.826 184.116 28.812 184.116 28.7979C184.116 28.7838 184.122 28.7699 184.132 28.757C184.2 28.6452 184.385 28.5405 184.17 28.4166C184.151 28.4058 184.182 28.3455 184.219 28.3341C184.389 28.2795 184.368 28.2103 184.319 28.1239C184.296 28.0839 184.344 28.0325 184.351 27.9861C184.364 27.9023 184.369 27.8179 184.378 27.7321L184.302 27.5378L184.507 27.3524L184.355 27.2807C184.369 27.1988 184.388 27.1321 184.39 27.0648C184.39 26.9454 184.382 26.826 184.39 26.7073C184.399 26.4616 184.471 26.2171 184.293 25.9758C184.219 25.8702 184.194 25.7559 184.223 25.6437C184.308 25.3529 184.223 25.0723 184.161 24.784C184.065 24.3997 183.895 24.022 183.653 23.6569C183.508 23.4182 183.222 23.2125 183.157 22.9534C183.109 22.7705 182.98 22.5915 182.959 22.4086C182.931 22.1546 182.709 21.9355 182.633 21.6924C182.6 21.587 182.439 21.4841 182.454 21.3857C182.473 21.2771 182.325 21.1996 182.372 21.0815C182.407 20.9467 182.372 20.8093 182.272 20.6847C182.121 20.4701 181.921 20.2669 181.731 20.0605C181.63 19.9506 181.497 19.8491 181.413 19.7354C181.303 19.5779 181.238 19.4109 181.143 19.2503C181.032 19.0598 180.839 18.8782 180.814 18.6871C180.782 18.4648 180.553 18.2972 180.443 18.0997C180.345 17.9213 180.246 17.7422 180.171 17.5606C180.054 17.2717 180.054 16.9727 179.878 16.6838C179.768 16.5015 179.761 16.3028 179.602 16.118C179.485 15.9853 179.437 15.8348 179.258 15.7154C179.218 15.6774 179.19 15.6357 179.176 15.5922C179.134 15.5154 179.106 15.436 179.053 15.3624C178.95 15.2221 178.828 15.0862 178.724 14.9465C178.668 14.8716 178.644 14.7897 178.584 14.716C178.531 14.6525 178.368 14.5801 178.395 14.5395C178.473 14.4214 178.223 14.422 178.203 14.3401C178.187 14.2766 178.058 14.2283 178.016 14.1661C178.009 14.1467 177.992 14.1288 177.967 14.1143C177.943 14.0998 177.911 14.0894 177.876 14.0842C177.836 14.0747 177.8 14.0609 177.77 14.0435C177.741 14.0262 177.718 14.0057 177.704 13.9834C177.689 13.961 177.683 13.9373 177.686 13.9137C177.689 13.8901 177.701 13.8671 177.722 13.8461C177.766 13.7992 177.816 13.7538 177.87 13.7102C177.559 13.6277 177.451 13.4924 177.429 13.3242C177.402 13.2624 177.358 13.2033 177.297 13.1489H177.482C177.51 13.1058 177.515 13.0595 177.498 13.0148C177.481 12.9701 177.443 12.9287 177.386 12.8949C177.352 12.8727 177.308 12.8251 177.324 12.8149C177.448 12.7349 177.313 12.7076 177.24 12.6625C177.204 12.6342 177.18 12.6019 177.17 12.5679C177.15 12.526 177.154 12.4809 177.128 12.4409C176.987 12.2347 176.87 12.0239 176.777 11.8098C176.7 11.6193 176.566 11.4466 176.471 11.2637C176.434 11.19 176.298 11.1304 176.267 11.0567C176.178 10.856 176.143 10.6484 176.046 10.4497C175.98 10.3176 176.018 10.1658 175.812 10.0554C175.769 10.0325 175.778 9.98297 175.753 9.94805C175.675 9.84138 175.605 9.7328 175.511 9.63057C175.357 9.44231 175.222 9.24987 175.105 9.05402C174.94 8.81718 174.789 8.58605 174.473 8.39493C174.158 8.2038 173.863 8.02919 173.576 7.8387C173.235 7.60561 172.801 7.41795 172.307 7.29009C171.727 7.13192 171.188 6.93411 170.701 6.70148C170.462 6.58857 170.169 6.51405 169.856 6.48622C169.846 6.52178 169.82 6.56179 169.836 6.5675C170.034 6.64116 170.044 6.75354 170.07 6.86593C170.083 6.95908 170.12 7.05077 170.18 7.13833C170.325 7.31612 170.297 7.50026 170.297 7.68504C170.297 7.72069 170.304 7.75625 170.318 7.79108C170.371 7.88989 170.414 7.99014 170.447 8.09142C170.451 8.17118 170.44 8.25093 170.415 8.32953C170.737 8.31683 170.512 8.43366 170.564 8.48192L170.73 8.51494C170.668 8.55875 170.613 8.59558 170.557 8.63812C170.501 8.58161 170.466 8.50605 170.415 8.50224C170.245 8.49081 170.298 8.4235 170.27 8.37524C170.183 8.21714 170.11 8.05776 170.012 7.90029C169.941 7.76153 169.839 7.62818 169.707 7.50344C169.468 7.30989 169.323 7.08667 169.285 6.8545C169.257 6.69132 169.199 6.54972 168.997 6.42781C168.962 6.40264 168.932 6.37537 168.908 6.34653C168.622 6.05859 168.171 5.82936 167.623 5.69379C167.438 5.64807 167.325 5.53822 167.103 5.52298C167.021 5.51727 166.909 5.51219 166.869 5.48298C166.636 5.31027 166.301 5.20677 165.961 5.10772C165.87 5.08041 165.783 5.04993 165.694 5.02009C165.478 4.93444 165.249 4.85863 165.01 4.79341C164.535 4.6861 164.065 4.5572 163.525 4.56546C163.458 4.55982 163.395 4.54615 163.339 4.52545C163.284 4.50359 163.225 4.48566 163.162 4.47212C162.609 4.41497 162.102 4.28607 161.581 4.18003C161.103 4.08288 160.628 3.98065 160.146 3.89112C159.817 3.82763 159.463 3.80477 159.144 3.73302C158.621 3.61491 158.115 3.47332 157.604 3.33871C157.397 3.2841 157.205 3.21171 156.992 3.166C156.46 3.05805 155.925 2.95265 155.38 2.86502C154.891 2.78565 154.383 2.73803 153.89 2.66437C153.485 2.60088 153.09 2.52659 152.658 2.54754C152.279 2.56659 151.887 2.55325 151.522 2.60024C151.26 2.63326 150.998 2.6212 150.741 2.64024C150.539 2.6485 150.34 2.66982 150.147 2.70374C150.059 2.72216 149.921 2.74819 149.868 2.7266C149.728 2.66755 149.597 2.71453 149.465 2.71327C149.231 2.71327 149.006 2.72469 148.776 2.72914C148.425 2.73549 148.074 2.74036 147.724 2.74374C147.373 2.74692 147.023 2.74819 146.679 2.68025C146.562 2.65802 146.37 2.69104 146.313 2.65358C146.17 2.5577 145.985 2.55516 145.798 2.53421C145.555 2.50754 145.313 2.4542 145.07 2.45102C144.788 2.43847 144.511 2.40026 144.252 2.338C144.101 2.30879 143.959 2.26752 143.813 2.23196C143.667 2.1964 143.501 2.13164 143.336 2.12148C143.171 2.11132 143.102 2.03639 142.963 2.01099C142.512 1.92527 142.064 1.83384 141.614 1.74621C141.539 1.72952 141.46 1.71862 141.38 1.71383C140.827 1.68646 140.279 1.63227 139.744 1.55192C139.518 1.53162 139.288 1.52438 139.059 1.53033C138.899 1.53033 138.74 1.53795 138.582 1.54239C138.516 1.44207 138.616 1.4154 138.751 1.42365C139.06 1.43572 139.369 1.45477 139.686 1.47127L139.759 1.40778C139.884 1.42394 140.013 1.43266 140.141 1.43381C140.517 1.41455 140.895 1.44102 141.249 1.51128C141.417 1.54303 141.569 1.49858 141.744 1.5462C142.143 1.64374 142.552 1.72855 142.969 1.80019C143.031 1.95639 143.28 2.00337 143.536 2.04274C143.635 2.05798 143.77 2.04655 143.836 2.0783C144.087 2.18878 144.408 2.17862 144.686 2.23768C144.864 2.27577 145.078 2.33038 145.242 2.30625C145.449 2.27577 145.463 2.36149 145.563 2.39451C145.688 2.31387 145.852 2.33483 146.01 2.34879C146.077 2.35451 146.142 2.37737 146.211 2.37991C146.795 2.40277 147.372 2.42055 147.953 2.44341C148.091 2.44848 148.228 2.48595 148.361 2.4815C148.528 2.47579 148.681 2.4142 148.866 2.47452C148.925 2.4942 149.072 2.42626 149.146 2.44277C149.481 2.51897 149.783 2.39134 150.116 2.40721C150.35 2.40878 150.584 2.40284 150.817 2.38943C150.867 2.38943 150.947 2.43833 150.969 2.43071C151.209 2.34118 151.489 2.4034 151.731 2.35197L151.848 2.44785L152.092 2.36276ZM102.351 54.9476C102.139 55.0511 102.102 55.1413 102.248 55.2651C102.472 55.4594 102.473 55.714 102.813 55.8772C102.835 55.888 102.833 55.9128 102.846 55.9312C102.93 56.0582 103.025 56.1718 103.28 56.2284C103.408 56.2589 103.524 56.3036 103.62 56.3598C103.845 56.4948 104.154 56.5797 104.488 56.5979C104.658 56.6146 104.823 56.6443 104.979 56.6862C105.049 56.702 105.139 56.7376 105.15 56.7712C105.192 56.883 105.327 56.9128 105.501 56.9509C105.705 56.9915 105.913 57.0257 106.124 57.0532C106.546 57.1045 106.977 57.1326 107.409 57.137C107.68 57.1465 107.957 57.1167 108.217 57.2106C108.371 57.2526 108.542 57.2724 108.714 57.2684C108.966 57.2722 109.218 57.2675 109.469 57.2545C110.177 57.2208 110.893 57.2767 111.6 57.2081C112.146 57.1548 112.692 57.1071 113.155 56.9122C113.272 56.864 113.36 56.7976 113.406 56.7217C113.504 56.57 113.523 56.5573 113.816 56.5465L114.057 56.5357C114.016 56.3973 114.273 56.4798 114.358 56.4277C114.325 56.4061 114.302 56.3814 114.28 56.3807C113.751 56.3807 113.229 56.3026 112.696 56.3344C112.432 56.3564 112.165 56.363 111.899 56.3541C110.928 56.2965 109.959 56.2307 108.99 56.1566C108.773 56.1397 108.563 56.101 108.372 56.0423C107.881 55.8918 107.42 55.7147 106.925 55.5686C106.431 55.4226 105.916 55.3083 105.416 55.173C105.211 55.1156 105.014 55.0509 104.826 54.9794C104.552 54.879 104.358 54.7381 104.143 54.6028C103.928 54.4676 103.653 54.3577 103.428 54.2219C103.235 54.1082 103.014 53.9895 102.92 53.8498C102.825 53.7101 102.645 53.6472 102.487 53.5399C102.297 53.6631 102.137 53.7825 102.226 53.9368C102.284 54.0046 102.296 54.0818 102.258 54.1539C102.182 54.2638 102.436 54.3958 102.183 54.4949C102.183 54.4949 102.183 54.5101 102.183 54.5127C102.417 54.592 102.25 54.6981 102.255 54.7933C102.273 54.8469 102.306 54.8988 102.351 54.9476ZM155.682 2.64215V2.68088C155.794 2.70882 155.912 2.73011 156.032 2.74438C156.281 2.76089 156.482 2.85169 156.754 2.84851C156.857 2.84843 156.958 2.8603 157.051 2.8833C157.143 2.90631 157.226 2.93992 157.293 2.98185C157.473 3.13552 157.761 3.15711 158.011 3.22949C158.112 3.2587 158.227 3.27457 158.326 3.30505C158.729 3.42454 159.157 3.5183 159.6 3.58444C160.237 3.68413 160.858 3.81048 161.485 3.92859C162.033 4.03209 162.577 4.14194 163.121 4.24607C163.354 4.28925 163.588 4.321 163.822 4.35719C164.009 4.3864 164.193 4.42068 164.382 4.44354C164.713 4.47344 165.03 4.53814 165.316 4.63403C165.784 4.80801 166.251 4.98136 166.805 5.07851C166.89 5.09764 166.968 5.12353 167.039 5.15534C167.227 5.22773 167.415 5.30138 167.596 5.37885C167.713 5.43091 167.824 5.42139 167.962 5.36932C167.881 5.2559 167.762 5.15153 167.611 5.06136C167.394 4.92421 167.168 4.7896 166.976 4.64229C166.873 4.54798 166.753 4.45985 166.616 4.37941C166.425 4.28607 166.228 4.19591 166.056 4.09368C165.741 3.90319 165.313 3.8162 164.923 3.69492C164.682 3.62063 164.436 3.55142 164.192 3.48157C163.883 3.39331 163.586 3.28283 163.257 3.22314C162.658 3.11456 162.026 3.08091 161.401 3.03265C161.288 3.03092 161.179 3.01127 161.087 2.97614C160.83 2.84216 160.528 2.83708 160.207 2.85867C159.932 2.87709 159.659 2.89233 159.389 2.82248C159.311 2.81089 159.23 2.80554 159.149 2.8066C158.808 2.78502 158.464 2.77105 158.126 2.73803C157.678 2.69485 157.225 2.65358 156.82 2.52405C156.716 2.49679 156.604 2.48124 156.489 2.47833C156.115 2.4561 155.969 2.49992 155.891 2.6504L155.682 2.64215ZM118.989 55.7648C119.167 55.855 119.3 55.7896 119.443 55.7566C119.443 55.742 119.435 55.728 119.431 55.714L118.989 55.7648ZM155.654 51.5732L155.584 51.5922V51.7268L155.817 51.6671L155.654 51.5732ZM184.68 24.9046C184.727 24.8062 184.727 24.8062 184.532 24.7535C184.583 24.81 184.629 24.8558 184.674 24.904L184.68 24.9046ZM184.657 24.7027V24.5211C184.465 24.5745 184.49 24.6214 184.651 24.7021L184.657 24.7027ZM158.002 50.8633L157.964 50.8258L157.639 50.9064C157.648 50.9166 157.657 50.9274 157.666 50.9376L158.002 50.8633ZM119.634 55.7578L119.945 55.7248C119.812 55.667 119.699 55.6467 119.629 55.7578H119.634ZM126.295 1.27317C126.082 1.21919 126.082 1.21919 126.044 1.30682L126.295 1.27317ZM122.044 1.77606C121.959 1.73669 121.912 1.71256 121.838 1.68145C121.814 1.73796 121.796 1.77796 121.767 1.84336L122.044 1.77606ZM120.483 55.7001C120.451 55.6194 120.388 55.5972 120.232 55.6562L120.483 55.7001ZM122.271 1.62748L122.26 1.67192L122.494 1.68843L122.504 1.64462L122.271 1.62748ZM184.688 25.1301C184.698 25.2126 184.704 25.257 184.711 25.3205C184.86 25.2494 184.774 25.2094 184.688 25.1301ZM122.745 1.5989L122.687 1.56842C122.65 1.5862 122.616 1.60529 122.584 1.62557C122.584 1.62557 122.621 1.64843 122.641 1.66113L122.745 1.5989ZM124.047 1.50366L124.132 1.50747L124.143 1.42302H124.047V1.50366ZM96.7626 11.2961L96.8701 11.3545C96.9133 11.3253 96.9554 11.2961 96.9986 11.2675L96.9332 11.2358L96.7626 11.2961ZM184.746 25.8799H184.678C184.678 25.9098 184.678 25.9403 184.669 25.9701H184.735L184.746 25.8799ZM157.168 51.0341L157.177 51.0747L157.343 51.0684C157.343 51.0569 157.343 51.0455 157.343 51.0341H157.168ZM125.649 1.26682L125.67 1.29602L125.801 1.27571C125.801 1.26555 125.789 1.25539 125.785 1.24459L125.649 1.26682ZM128.297 1.06299C128.297 1.04839 128.297 1.03442 128.289 1.02045L128.123 1.03696V1.06299H128.297ZM111.119 4.60546C111.093 4.59153 111.063 4.57977 111.03 4.57054C111.016 4.56736 110.993 4.57879 110.974 4.58387C110.991 4.59721 111.001 4.61625 111.023 4.62133C111.046 4.62641 111.076 4.61371 111.123 4.60546H111.119ZM118.804 55.8239L118.786 55.8004L118.624 55.8334L118.645 55.8626L118.804 55.8239ZM122.354 1.76653C122.312 1.75336 122.268 1.74272 122.223 1.73478C122.213 1.73478 122.177 1.76336 122.184 1.77161C122.192 1.77868 122.202 1.78473 122.215 1.78934C122.227 1.79395 122.242 1.797 122.257 1.79828C122.282 1.79955 122.307 1.78368 122.357 1.76653H122.354ZM85.6614 38.9964C85.6497 39.0047 85.6298 39.0136 85.6298 39.0218C85.6298 39.0301 85.6462 39.0421 85.6555 39.0523C85.6741 39.0421 85.6906 39.0308 85.7046 39.0186C85.7046 39.0186 85.6859 39.004 85.6707 38.9964H85.6614ZM127.314 1.10807C127.301 1.0922 127.293 1.07379 127.285 1.07379C127.253 1.07458 127.222 1.07757 127.191 1.08268C127.201 1.09284 127.208 1.11061 127.219 1.11188C127.251 1.11337 127.283 1.11208 127.314 1.10807ZM177.587 13.2619C177.578 13.2524 177.572 13.2391 177.557 13.2334C177.542 13.2276 177.522 13.2334 177.503 13.2365C177.514 13.2467 177.519 13.2594 177.535 13.2645C177.55 13.2696 177.569 13.2638 177.587 13.2619ZM114.122 3.67397L114.099 3.64349L114.045 3.65555C114.056 3.66825 114.065 3.68095 114.075 3.69365L114.122 3.67397ZM125.317 1.35317C125.325 1.35317 125.337 1.35 125.34 1.34682C125.344 1.34365 125.34 1.3373 125.333 1.33285L125.297 1.34428L125.317 1.35317ZM118.146 55.8709C118.139 55.862 118.132 55.8531 118.124 55.8442L118.071 55.8594C118.081 55.8709 118.093 55.8817 118.104 55.8925L118.146 55.8709ZM126.793 1.19062L126.857 1.19633C126.865 1.17535 126.87 1.15415 126.872 1.13284C126.872 1.13284 126.835 1.12712 126.815 1.12395C126.802 1.14427 126.795 1.16649 126.788 1.18872L126.793 1.19062Z" fill="#50735F"/>
<path d="M153.066 52.9048C153.075 52.9632 153.106 53.0064 153.08 53.0197C152.979 53.0712 152.867 53.1468 152.746 53.1538C152.072 53.1912 151.525 53.3805 150.941 53.531C150.707 53.5945 150.462 53.6434 150.223 53.6993C149.886 53.7774 149.552 53.8606 149.21 53.9318C149.045 53.9629 148.873 53.9842 148.698 53.9953C148.264 54.0302 147.893 54.1528 147.49 54.229C147.087 54.3052 146.677 54.4107 146.213 54.3599C146.117 54.3505 146.017 54.3558 145.927 54.3751C145.463 54.4793 144.965 54.4907 144.476 54.5104C144.153 54.5231 143.826 54.4977 143.498 54.4951C143.171 54.4926 142.843 54.4951 142.515 54.4951C142.409 54.4951 142.303 54.4951 142.198 54.4888C142.138 54.4856 142.058 54.4577 142.023 54.4697C141.645 54.5968 141.241 54.4551 140.851 54.5053C140.651 54.5313 140.42 54.4951 140.203 54.4843C140.021 54.4661 139.837 54.4565 139.652 54.4558C139.404 54.4608 139.156 54.4521 138.912 54.4297C138.79 54.4322 138.669 54.4433 138.553 54.4627C138.537 54.4526 138.498 54.4068 138.455 54.4056C138.304 54.4023 138.152 54.4076 138.003 54.4215C137.821 54.4479 137.626 54.4386 137.456 54.3954C137.356 54.3699 137.244 54.361 137.134 54.37C136.621 54.41 136.112 54.3643 135.599 54.3643L135.402 54.2252C135.762 54.1746 136.142 54.1797 136.496 54.2398C136.514 54.243 136.541 54.2506 136.552 54.2468C136.858 54.1439 137.205 54.2468 137.523 54.196C137.546 54.1936 137.569 54.1937 137.592 54.1962C137.615 54.1987 137.637 54.2036 137.656 54.2106C137.751 54.2512 137.827 54.269 137.941 54.2176C138.015 54.1957 138.102 54.1898 138.185 54.2011C138.521 54.2328 138.868 54.2011 139.201 54.257C139.301 54.2735 139.459 54.2119 139.543 54.2341C139.689 54.2728 139.83 54.1465 139.976 54.2519C140.011 54.2773 140.237 54.229 140.376 54.2208C140.448 54.213 140.522 54.217 140.589 54.2322C140.629 54.2515 140.681 54.2623 140.736 54.2623C140.791 54.2623 140.843 54.2515 140.883 54.2322C140.894 54.229 140.905 54.2271 140.917 54.2264C140.929 54.2258 140.941 54.2264 140.953 54.2284C141.224 54.2836 141.495 54.2093 141.776 54.2366C142.052 54.2539 142.331 54.2517 142.606 54.2303C142.927 54.2138 143.248 54.2303 143.573 54.215C143.905 54.2049 144.237 54.2049 144.569 54.215C144.921 54.2246 145.275 54.2246 145.628 54.215C145.847 54.1986 146.064 54.1716 146.274 54.1344C146.373 54.1204 146.459 54.0626 146.571 54.1223C146.582 54.1287 146.649 54.1223 146.652 54.1134C146.706 53.994 146.949 54.0124 147.071 54.0016C147.336 53.9788 147.567 53.8911 147.859 53.9038C147.981 53.9089 148.162 53.8524 148.289 53.8162C148.492 53.7483 148.728 53.7127 148.97 53.7139C149.027 53.5812 149.44 53.705 149.447 53.5355C149.656 53.5596 149.775 53.4262 149.899 53.4326C150.195 53.4478 150.346 53.2573 150.649 53.3183C150.683 53.3252 150.747 53.2878 150.801 53.2751C150.905 53.2436 151.016 53.2185 151.132 53.2001C151.449 53.1665 151.777 53.155 152.088 53.1112C152.347 53.0659 152.601 53.0118 152.847 52.9492L153.066 52.9048Z" fill="black"/>
<path d="M94.4766 13.125L94.0454 13.5467C94.1541 13.6407 94.1175 13.7226 93.8451 13.7823C93.712 13.8122 93.6362 13.9093 93.5239 13.9665C93.3675 14.0497 93.1989 14.1266 93.0426 14.2104C92.9534 14.2587 92.8862 14.3171 92.7983 14.3666C92.7497 14.3878 92.6959 14.4056 92.6383 14.4193C92.6163 14.3889 92.5686 14.3558 92.5772 14.3279C92.6012 14.2611 92.633 14.1951 92.6725 14.1304C92.9876 14.1742 93.0389 13.99 93.2734 13.9398C93.1171 13.823 93.2124 13.7391 93.3797 13.6553C93.5159 13.5783 93.6436 13.4973 93.762 13.4127H94.0833C93.9086 13.2634 94.17 13.0316 94.4888 13.0132L94.4791 13.0068C94.4302 13.0481 94.3569 13.0894 94.4791 13.1294L94.4766 13.125ZM93.5788 13.8128L93.6375 13.6547C93.4628 13.7023 93.5678 13.7582 93.58 13.8122C93.5519 13.802 93.5263 13.7855 93.4945 13.7817C93.4567 13.7804 93.4186 13.7825 93.3822 13.788C93.3797 13.7935 93.3797 13.7991 93.3822 13.8045C93.4164 13.8085 93.4511 13.8113 93.486 13.8128C93.5165 13.8128 93.5483 13.8128 93.5788 13.8128Z" fill="black"/>
<path d="M91.4689 14.9929C91.5105 14.9637 91.541 14.9193 91.5911 14.9085C91.6697 14.8928 91.7567 14.8928 91.8354 14.9085C91.8604 14.9233 91.8776 14.9411 91.8856 14.9603C91.8935 14.9795 91.8918 14.9995 91.8806 15.0183C91.6827 15.1776 91.5068 15.347 91.2136 15.4676C91.2527 15.4194 91.2539 15.3769 91.1257 15.3559L91.221 15.4638C91.166 15.613 91.1122 15.7621 90.7788 15.8167C90.7667 15.8186 90.7564 15.8226 90.7495 15.8281C90.62 15.976 90.383 15.9842 90.0801 15.962C90.2254 15.9017 90.3537 15.8484 90.4844 15.7964C90.5015 15.7894 90.5455 15.7964 90.5528 15.7888C90.6188 15.7253 90.4172 15.5984 90.6591 15.5984C90.9009 15.5984 90.824 15.4778 90.962 15.4518C90.9889 15.4467 91.0048 15.4105 91.0084 15.3883C91.028 15.2836 91.0316 15.2874 91.2613 15.2106C91.2886 15.196 91.3096 15.1786 91.3227 15.1594C91.3358 15.1402 91.3406 15.1198 91.337 15.0995C91.3272 15.0361 91.3517 15.0012 91.4689 14.9866V15.1459L91.6595 15.0081L91.4689 14.9929Z" fill="black"/>
<path d="M88.1292 17.362L88.3149 17.4254C88.3552 17.3429 88.5885 17.315 88.5104 17.202C88.5104 17.1957 88.5323 17.1766 88.5507 17.1735C88.8927 17.1138 88.9049 16.9196 89.1016 16.8035C89.2152 16.8085 89.2738 16.8314 89.2237 16.8898C89.1934 16.9241 89.1574 16.957 89.1162 16.9882C88.9489 17.1151 88.7424 17.2242 88.6643 17.381C88.6411 17.4286 88.4908 17.4584 88.3772 17.5079C88.3003 17.4679 88.1036 17.4908 88.1292 17.362Z" fill="black"/>
<path d="M89.9779 16.3002C89.8863 16.1475 90.0439 16.1146 90.2442 16.0962L89.9779 16.3002Z" fill="black"/>
<path d="M91.8281 14.7081L92.1946 14.6257C92.1414 14.6786 92.0766 14.7282 92.0016 14.7734C91.9796 14.7835 91.8941 14.7563 91.8379 14.7461L91.8281 14.7081Z" fill="black"/>
<path d="M135.014 54.2448L134.662 54.2208C134.886 54.1612 134.886 54.1612 135.014 54.2448Z" fill="black"/>
<path d="M92.9173 44.1541L93.2458 44.2263C93.0284 44.284 92.9686 44.2263 92.8867 44.1946C92.8989 44.1813 92.9099 44.168 92.9173 44.1541Z" fill="black"/>
<path d="M81.0397 31.7817V31.9015L80.985 31.9053L80.9473 31.7817H81.0397Z" fill="black"/>
<path d="M80.8936 30.9917L80.9351 31.1184L80.8728 31.1254C80.8545 31.0849 80.8374 31.0437 80.8203 31.0025L80.8936 30.9917Z" fill="black"/>
<path d="M92.2344 14.5879L92.4445 14.489L92.4872 14.5131L92.2796 14.612L92.2344 14.5879Z" fill="black"/>
<path d="M89.207 16.6449L89.2852 16.5498L89.3451 16.5644L89.2547 16.6563L89.207 16.6449Z" fill="black"/>
<path d="M83.8508 37.5383L83.7739 37.6961C83.6676 37.6042 83.725 37.5694 83.8606 37.5434L83.8508 37.5383Z" fill="black"/>
<path d="M89.6074 16.4901L89.7051 16.4141L89.7589 16.4299L89.6783 16.5136L89.6074 16.4901Z" fill="black"/>
<path d="M134.129 54.195L134.321 54.1885C134.214 54.2593 134.214 54.2593 134.137 54.1885L134.129 54.195Z" fill="black"/>
<path d="M83.1458 36.9731C83.1275 36.9401 83.1081 36.9097 83.0898 36.8736L83.1421 36.866C83.1592 36.8996 83.1762 36.9331 83.192 36.9667L83.1458 36.9731Z" fill="black"/>
<path d="M81.914 34.6544C81.897 34.6584 81.8727 34.6669 81.8654 34.6643C81.8581 34.6617 81.8484 34.6459 81.8398 34.6361L81.8909 34.6243L81.914 34.6544Z" fill="black"/>
<path d="M85.3954 39.2028C85.3685 39.2205 85.3514 39.2408 85.3318 39.2421C85.3167 39.2413 85.3022 39.2385 85.2896 39.2341C85.277 39.2297 85.2668 39.2237 85.2598 39.2167C85.26 39.2094 85.2639 39.2023 85.2709 39.196C85.278 39.1896 85.288 39.1844 85.3001 39.1806C85.3257 39.1787 85.355 39.1926 85.3954 39.2028Z" fill="black"/>
<path d="M91.4921 43.3862L91.293 43.4092C91.293 43.3941 91.293 43.3797 91.293 43.3652L91.4957 43.3902L91.4921 43.3862Z" fill="black"/>
<path d="M84.7722 38.6604C84.7657 38.6645 84.7605 38.6719 84.7526 38.6719C84.7448 38.6719 84.7331 38.6672 84.7227 38.6645L84.7552 38.6448L84.7722 38.6604Z" fill="black"/>
<path d="M80.7754 29.783C80.8058 29.8153 80.8277 29.8305 80.8216 29.8349C80.7994 29.848 80.7741 29.8595 80.7462 29.8691C80.7377 29.8584 80.7195 29.8463 80.7231 29.8375C80.7368 29.8184 80.7543 29.8001 80.7754 29.783Z" fill="black"/>
<path d="M83.379 23.2454L83.1641 23.2683V23.2349L83.3693 23.2493L83.379 23.2454Z" fill="black"/>
<path d="M89.7599 16.3034C89.7404 16.2968 89.7124 16.2929 89.7051 16.2837C89.6978 16.2745 89.7124 16.2614 89.7173 16.2502C89.7427 16.2551 89.7662 16.2624 89.7866 16.2719C89.7866 16.2719 89.7696 16.2903 89.7599 16.3034Z" fill="black"/>
<path d="M103.019 54.4394C103.011 54.4477 103.001 54.4556 102.989 54.463C102.979 54.4632 102.97 54.4615 102.962 54.4584C102.96 54.449 102.96 54.4396 102.962 54.4302L103.019 54.4394Z" fill="black"/>
<path d="M103.911 55.1482C103.911 55.1544 103.911 55.1598 103.911 55.1659C103.899 55.1617 103.887 55.1567 103.877 55.151C103.877 55.151 103.877 55.1414 103.887 55.136L103.911 55.1482Z" fill="black"/>
<path d="M180.399 12.3526L180.255 12.3964C179.989 12.3259 179.751 12.2694 179.522 12.2008C179.426 12.1632 179.333 12.1227 179.246 12.0795C179.11 12.0262 179.046 11.915 178.816 11.9353C178.788 11.9353 178.749 11.9214 178.722 11.9093C178.392 11.7556 178.034 11.6152 177.745 11.4438C177.518 11.3104 177.369 11.1395 177.199 10.9814C177.165 10.9503 177.199 10.9014 177.199 10.8169C177.425 10.9769 177.565 11.1345 177.795 11.2246C178.13 11.3548 178.342 11.5574 178.744 11.6426C178.802 11.6515 178.854 11.6684 178.894 11.6915C179.041 11.7956 179.252 11.856 179.441 11.9328C179.771 12.0668 180.079 12.2148 180.397 12.3571L180.399 12.3526Z" fill="black"/>
<path d="M176.525 10.4393C176.487 10.4173 176.457 10.3922 176.435 10.365C176.424 10.3434 176.5 10.3237 176.387 10.3015C176.083 10.245 175.852 10.1453 175.786 9.963C175.737 9.84749 175.672 9.73395 175.592 9.62326C175.555 9.58502 175.515 9.54791 175.47 9.51213C175.394 9.43212 175.257 9.36607 175.309 9.25812C175.326 9.22319 175.224 9.16032 175.149 9.13111C175.009 9.07333 174.897 9.03268 174.975 8.91647C175.013 8.86123 174.912 8.77359 174.846 8.70882C174.732 8.59769 174.67 8.49354 174.837 8.4021C174.872 8.4824 174.925 8.56038 174.993 8.63452C175.058 8.68149 175.104 8.73506 175.126 8.79174C175.149 8.84843 175.148 8.90694 175.124 8.96346C175.114 8.98506 175.155 9.01363 175.172 9.03903L175.284 9.00474C175.367 9.08158 175.453 9.15842 175.528 9.23653C175.566 9.26767 175.591 9.30281 175.599 9.3394C175.604 9.37995 175.627 9.41941 175.664 9.45497C175.702 9.49053 175.755 9.52133 175.818 9.54515C175.941 9.6027 176.034 9.67605 176.085 9.75789C176.117 9.81377 176.093 9.8633 176.245 9.85822C176.256 9.86111 176.265 9.86527 176.272 9.87035C176.279 9.87544 176.283 9.88129 176.285 9.88743C176.221 10.0348 176.48 10.1052 176.572 10.2157C176.608 10.2523 176.622 10.2937 176.613 10.3346C176.604 10.3754 176.571 10.4139 176.519 10.445L176.525 10.4393Z" fill="black"/>
<path d="M137.322 1.20544C137.09 1.12939 136.834 1.18896 136.59 1.16742C136.448 1.15474 136.304 1.15221 136.161 1.14524C135.947 1.13573 135.732 1.12432 135.518 1.11735C135.168 1.10594 134.817 1.09771 134.467 1.08693C134.418 1.08767 134.369 1.08177 134.326 1.06982C134.082 0.981103 133.808 0.974765 133.53 0.966527C133.491 0.966527 133.453 0.943714 133.367 0.916464C133.471 0.887313 133.559 0.844854 133.6 0.853092C133.8 0.901255 133.999 0.853092 134.192 0.868935C134.293 0.890256 134.387 0.920008 134.47 0.957022C134.574 0.868935 134.73 0.852458 134.915 0.914563C134.947 0.927277 134.985 0.935614 135.025 0.938822C135.065 0.942031 135.106 0.940009 135.144 0.93294C135.217 0.922167 135.329 0.983638 135.432 1.01532C135.73 0.96526 136.042 0.932307 136.326 1.05842C136.344 1.04004 136.378 0.990609 136.394 0.995045C136.491 1.00392 136.63 1.05271 136.666 1.0356C136.795 0.977935 136.853 1.00202 136.922 1.06095C136.936 1.07363 136.984 1.09137 136.995 1.08757C137.277 1.00202 137.276 1.12306 137.324 1.20797L137.322 1.20544ZM134.255 0.931673C134.239 0.926604 134.223 0.920266 134.206 0.91583C134.189 0.911394 134.186 0.92597 134.188 0.928505C134.196 0.937844 134.206 0.946757 134.217 0.955121L134.255 0.931673Z" fill="black"/>
<path d="M137.323 1.20623L137.477 1.01611C137.591 1.02815 137.721 1.03766 137.843 1.0554C138.028 1.07831 138.219 1.08175 138.406 1.06554C138.536 1.05726 138.667 1.0671 138.787 1.09406C139.067 1.16504 139.363 1.08709 139.652 1.13905C139.821 1.16947 140.036 1.12765 140.24 1.15173C140.373 1.16694 140.537 1.22777 140.699 1.14286C140.749 1.11751 140.924 1.1568 141.065 1.16884C140.985 1.26136 140.926 1.33361 140.722 1.25502C140.692 1.24479 140.656 1.2397 140.62 1.24045C140.43 1.25242 140.239 1.24157 140.059 1.20876C139.909 1.17454 139.673 1.19862 139.508 1.23538C139.176 1.31079 138.863 1.24298 138.542 1.23538L137.32 1.20433L137.323 1.20623Z" fill="black"/>
<path d="M179.712 42.1876C179.678 42.1705 179.642 42.154 179.596 42.1319C179.669 42.0374 179.932 42.0406 179.969 41.9221C179.987 41.8769 180.028 41.835 180.088 41.8008C180.148 41.7666 180.224 41.7413 180.309 41.7275C180.149 41.8695 179.991 42.0127 179.82 42.1528C179.801 42.1699 179.74 42.173 179.698 42.1832L179.712 42.1876Z" fill="black"/>
<path d="M180.393 12.3524L180.693 12.5147C180.388 12.5337 180.388 12.5337 180.4 12.3486L180.393 12.3524Z" fill="black"/>
<path d="M176.52 10.4415C176.698 10.406 176.842 10.4054 176.886 10.5683C176.739 10.5144 176.642 10.4764 176.532 10.4415H176.52Z" fill="black"/>
<path d="M177.102 10.737L176.885 10.6736L176.917 10.6458L177.129 10.7123L177.102 10.737Z" fill="black"/>
<path d="M108.237 6.54028L108.007 6.64231C107.996 6.55549 107.996 6.55549 108.237 6.54028Z" fill="black"/>
<path d="M179.705 42.1843C179.705 42.2369 179.763 42.3054 179.575 42.3199C179.518 42.2388 179.672 42.2306 179.713 42.1888L179.705 42.1843Z" fill="black"/>
<path d="M128.836 1.36722C128.801 1.37675 128.764 1.38402 128.725 1.38887C128.706 1.38887 128.685 1.37903 128.664 1.37378C128.682 1.35925 128.702 1.34602 128.726 1.33442C128.732 1.33246 128.762 1.34557 128.836 1.36722Z" fill="black"/>
<path d="M105.773 6.95581L105.623 7.15226C105.499 7.04833 105.612 6.99573 105.773 6.95581Z" fill="black"/>
<path d="M105.537 7.15824L105.32 7.17596V7.14185C105.391 7.14841 105.461 7.15431 105.533 7.15956L105.537 7.15824Z" fill="black"/>
<path d="M109.408 5.48429C109.393 5.47465 109.38 5.46398 109.371 5.4526C109.362 5.43749 109.356 5.42202 109.352 5.40634C109.373 5.40634 109.414 5.40064 109.415 5.40634C109.426 5.42215 109.431 5.43892 109.431 5.45577C109.424 5.46809 109.414 5.47984 109.401 5.49063L109.408 5.48429Z" fill="black"/>
<path d="M187.183 19.6345V19.7987C187.105 19.7404 186.983 19.6776 187.194 19.6402L187.183 19.6345Z" fill="black"/>
<path d="M185.92 17.5537L185.939 17.6805H185.891C185.9 17.6386 185.91 17.5962 185.919 17.5537H185.92Z" fill="black"/>
</svg>
