<svg width="152.000000" height="149.135925" viewBox="0 0 152 149.136" fill="none" xmlns="http://www.w3.org/2000/svg" xmlns:xlink="http://www.w3.org/1999/xlink">
	<desc>
			Created with Pixso.
	</desc>
	<defs>
		<pattern id="pattern_1_490350" patternContentUnits="objectBoundingBox" width="1.000000" height="1.000000">
			<use xlink:href="#image1_49035_0" transform="matrix(0.001325,0,0,0.001373,0,0)"/>
		</pattern>

		<image id="image1_49035_0" width="755.000000" height="1831.000000" xlink:href="data:image/png;base64"/>
	</defs>
	<rect id="Immagine inserita" width="152.000000" height="146.000000" fill="url(#pattern_1_490350)" fill-opacity="1.000000"/>
	<path id="Vector" d="M124.61 146.73C124.61 147.37 124.35 147.98 123.9 148.43C123.45 148.88 122.84 149.13 122.21 149.13C121.89 149.13 121.58 149.07 121.29 148.95C120.99 148.83 120.73 148.65 120.51 148.43C120.28 148.21 120.11 147.94 119.99 147.65C119.87 147.36 119.8 147.05 119.81 146.73L119.81 141.9C119.8 141.59 119.87 141.27 119.99 140.98C120.11 140.69 120.28 140.42 120.51 140.2C120.73 139.98 120.99 139.8 121.29 139.68C121.58 139.56 121.89 139.5 122.21 139.5C122.84 139.5 123.45 139.75 123.9 140.2C124.35 140.65 124.61 141.26 124.61 141.9L124.61 146.73Z" fill="#F4F3F0" fill-opacity="1.000000" fill-rule="nonzero"/>
	<path id="Vector" d="M124.61 146.73C124.61 147.37 124.35 147.98 123.9 148.43C123.45 148.88 122.84 149.13 122.21 149.13C121.89 149.13 121.58 149.07 121.29 148.95C120.99 148.83 120.73 148.65 120.51 148.43C120.28 148.21 120.11 147.94 119.99 147.65C119.87 147.36 119.8 147.05 119.81 146.73L119.81 141.9C119.8 141.59 119.87 141.27 119.99 140.98C120.11 140.69 120.28 140.42 120.51 140.2C120.73 139.98 120.99 139.8 121.29 139.68C121.58 139.56 121.89 139.5 122.21 139.5C122.84 139.5 123.45 139.75 123.9 140.2C124.35 140.65 124.61 141.26 124.61 141.9L124.61 146.73ZM123.79 147.79Q123.68 147.94 123.55 148.07Q123.42 148.21 123.26 148.31Q123.11 148.41 122.93 148.49Q122.76 148.56 122.58 148.6Q122.4 148.63 122.21 148.63Q122 148.63 121.81 148.59Q121.64 148.56 121.48 148.49Q121.3 148.42 121.15 148.31Q120.99 148.21 120.86 148.08Q120.73 147.94 120.62 147.79Q120.52 147.64 120.45 147.46Q120.38 147.29 120.34 147.1Q120.31 146.92 120.31 146.73L120.31 141.9Q120.31 141.7 120.35 141.5Q120.38 141.33 120.45 141.17Q120.52 141 120.62 140.84Q120.73 140.69 120.86 140.55Q120.99 140.42 121.15 140.32Q121.3 140.22 121.48 140.14Q121.65 140.07 121.83 140.04Q122.02 140 122.2 140Q122.41 140 122.6 140.04Q122.77 140.08 122.93 140.15Q123.11 140.22 123.26 140.32Q123.42 140.42 123.55 140.56Q123.68 140.69 123.79 140.85Q123.89 141 123.96 141.17Q124.03 141.35 124.07 141.53Q124.11 141.71 124.11 141.9L124.11 146.73Q124.11 146.92 124.07 147.1Q124.03 147.28 123.96 147.46Q123.89 147.63 123.79 147.79Z" fill="#000000" fill-opacity="1.000000" fill-rule="evenodd"/>
	<path id="Vector" d="M129.39 145.63C129.39 145.95 129.34 146.26 129.21 146.55C129.1 146.84 128.92 147.11 128.69 147.33C128.47 147.55 128.21 147.73 127.92 147.85C127.62 147.97 127.31 148.03 127 148.03C126.68 148.03 126.37 147.97 126.08 147.85C125.78 147.73 125.52 147.55 125.29 147.33C125.07 147.11 124.9 146.84 124.77 146.55C124.66 146.26 124.59 145.95 124.6 145.63L124.6 142.77C124.6 142.13 124.85 141.52 125.3 141.07C125.75 140.62 126.36 140.37 127 140.37C127.63 140.37 128.24 140.62 128.69 141.07C129.14 141.52 129.39 142.13 129.39 142.77L129.39 145.63Z" fill="#F4F3F0" fill-opacity="1.000000" fill-rule="nonzero"/>
	<path id="Vector" d="M129.39 145.63C129.39 145.95 129.34 146.26 129.21 146.55C129.1 146.84 128.92 147.11 128.69 147.33C128.47 147.55 128.21 147.73 127.92 147.85C127.62 147.97 127.31 148.03 127 148.03C126.68 148.03 126.37 147.97 126.08 147.85C125.78 147.73 125.52 147.55 125.29 147.33C125.07 147.11 124.9 146.84 124.77 146.55C124.66 146.26 124.59 145.95 124.6 145.63L124.6 142.77C124.6 142.13 124.85 141.52 125.3 141.07C125.75 140.62 126.36 140.37 127 140.37C127.63 140.37 128.24 140.62 128.69 141.07C129.14 141.52 129.39 142.13 129.39 142.77L129.39 145.63ZM128.85 146.03Q128.82 146.2 128.75 146.36Q128.68 146.54 128.58 146.69Q128.48 146.84 128.34 146.98Q128.21 147.11 128.05 147.21Q127.9 147.32 127.72 147.39Q127.55 147.46 127.37 147.5Q127.19 147.53 127 147.53Q126.78 147.53 126.57 147.49Q126.42 147.45 126.27 147.39Q126.09 147.32 125.93 147.21Q125.78 147.11 125.65 146.98Q125.52 146.84 125.41 146.69Q125.31 146.54 125.24 146.36Q125.17 146.19 125.13 146Q125.1 145.82 125.1 145.63L125.1 142.77Q125.1 142.58 125.13 142.4Q125.17 142.22 125.24 142.04Q125.31 141.87 125.42 141.72Q125.52 141.56 125.65 141.43Q125.78 141.29 125.94 141.19Q126.09 141.09 126.27 141.02Q126.44 140.94 126.62 140.91Q126.81 140.87 127 140.87Q127.18 140.87 127.37 140.91Q127.55 140.94 127.72 141.02Q127.9 141.09 128.05 141.19Q128.2 141.29 128.34 141.43Q128.47 141.56 128.58 141.72Q128.68 141.87 128.75 142.04Q128.82 142.22 128.86 142.4Q128.89 142.58 128.89 142.77L128.89 145.63Q128.89 145.84 128.85 146.03Z" fill="#000000" fill-opacity="1.000000" fill-rule="evenodd"/>
	<path id="Vector" d="M133.39 144.98C133.39 145.51 133.17 146.02 132.8 146.39C132.42 146.77 131.92 146.98 131.39 146.98C130.85 146.98 130.35 146.77 129.97 146.39C129.6 146.02 129.39 145.51 129.39 144.98L129.39 143.68C129.39 143.15 129.6 142.64 129.97 142.27C130.35 141.89 130.85 141.68 131.39 141.68C131.92 141.68 132.42 141.89 132.8 142.27C133.17 142.64 133.39 143.15 133.39 143.68L133.39 144.98Z" fill="#F4F3F0" fill-opacity="1.000000" fill-rule="nonzero"/>
	<path id="Vector" d="M133.39 144.98C133.39 145.51 133.17 146.02 132.8 146.39C132.42 146.77 131.92 146.98 131.39 146.98C130.85 146.98 130.35 146.77 129.97 146.39C129.6 146.02 129.39 145.51 129.39 144.98L129.39 143.68C129.39 143.15 129.6 142.64 129.97 142.27C130.35 141.89 130.85 141.68 131.39 141.68C131.92 141.68 132.42 141.89 132.8 142.27C133.17 142.64 133.39 143.15 133.39 143.68L133.39 144.98ZM132.63 145.82Q132.55 145.94 132.45 146.04Q132.34 146.15 132.22 146.23Q132.1 146.31 131.96 146.37Q131.82 146.42 131.68 146.45Q131.53 146.48 131.39 146.48Q131.24 146.48 131.09 146.45Q130.95 146.42 130.81 146.37Q130.67 146.31 130.55 146.23Q130.43 146.15 130.33 146.04Q130.22 145.94 130.14 145.82Q130.06 145.69 130 145.56Q129.94 145.42 129.92 145.27Q129.89 145.13 129.89 144.98L129.89 143.68Q129.89 143.53 129.92 143.39Q129.94 143.25 130 143.11Q130.06 142.97 130.14 142.85Q130.22 142.73 130.33 142.62Q130.43 142.52 130.55 142.43Q130.67 142.35 130.81 142.3Q130.95 142.24 131.09 142.21Q131.24 142.18 131.39 142.18Q131.53 142.18 131.68 142.21Q131.82 142.24 131.96 142.3Q132.1 142.35 132.22 142.43Q132.34 142.52 132.45 142.62Q132.55 142.73 132.63 142.85Q132.71 142.97 132.77 143.11Q132.83 143.25 132.86 143.39Q132.89 143.53 132.89 143.68L132.89 144.98Q132.89 145.13 132.86 145.27Q132.83 145.42 132.77 145.56Q132.71 145.69 132.63 145.82Z" fill="#000000" fill-opacity="1.000000" fill-rule="evenodd"/>
	<path id="Vector" d="M119.81 145.5C119.81 145.82 119.74 146.13 119.62 146.42C119.5 146.71 119.32 146.98 119.1 147.2C118.87 147.42 118.61 147.6 118.32 147.72C118.02 147.84 117.71 147.9 117.4 147.9C116.76 147.9 116.15 147.65 115.7 147.2C115.25 146.75 115 146.14 115 145.5L115 142.35C115 141.71 115.25 141.1 115.7 140.65C116.15 140.2 116.76 139.95 117.4 139.95C117.71 139.95 118.02 140.01 118.32 140.13C118.61 140.25 118.87 140.43 119.1 140.65C119.32 140.87 119.5 141.14 119.62 141.43C119.74 141.72 119.81 142.03 119.81 142.35L119.81 145.5Z" fill="#F4F3F0" fill-opacity="1.000000" fill-rule="nonzero"/>
	<path id="Vector" d="M119.81 145.5C119.81 145.82 119.74 146.13 119.62 146.42C119.5 146.71 119.32 146.98 119.1 147.2C118.87 147.42 118.61 147.6 118.32 147.72C118.02 147.84 117.71 147.9 117.4 147.9C116.76 147.9 116.15 147.65 115.7 147.2C115.25 146.75 115 146.14 115 145.5L115 142.35C115 141.71 115.25 141.1 115.7 140.65C116.15 140.2 116.76 139.95 117.4 139.95C117.71 139.95 118.02 140.01 118.32 140.13C118.61 140.25 118.87 140.43 119.1 140.65C119.32 140.87 119.5 141.14 119.62 141.43C119.74 141.72 119.81 142.03 119.81 142.35L119.81 145.5ZM119.27 145.87Q119.23 146.06 119.16 146.23Q119.09 146.41 118.98 146.56Q118.88 146.71 118.75 146.85Q118.61 146.98 118.46 147.08Q118.3 147.19 118.13 147.26Q117.95 147.33 117.77 147.37Q117.59 147.4 117.4 147.4Q117.19 147.4 117 147.36Q116.83 147.32 116.67 147.26Q116.49 147.18 116.34 147.08Q116.18 146.98 116.05 146.84Q115.92 146.71 115.82 146.56Q115.71 146.4 115.64 146.23Q115.57 146.05 115.53 145.87Q115.5 145.69 115.5 145.5L115.5 142.35Q115.5 142.16 115.53 141.98Q115.57 141.8 115.64 141.62Q115.71 141.45 115.82 141.3Q115.92 141.14 116.05 141.01Q116.18 140.87 116.34 140.77Q116.49 140.67 116.67 140.6Q116.84 140.52 117.02 140.49Q117.21 140.45 117.4 140.45Q117.6 140.45 117.8 140.49Q117.96 140.53 118.13 140.59Q118.3 140.67 118.46 140.77Q118.61 140.87 118.75 141Q118.88 141.14 118.98 141.29Q119.09 141.45 119.16 141.62Q119.23 141.8 119.27 141.98Q119.31 142.16 119.31 142.35L119.31 145.5Q119.31 145.69 119.27 145.87Z" fill="#000000" fill-opacity="1.000000" fill-rule="evenodd"/>
	<path id="Vector" d="M27.77 146.23C27.77 146.86 28.03 147.47 28.48 147.92C28.93 148.37 29.54 148.63 30.17 148.63C30.49 148.63 30.8 148.57 31.09 148.45C31.39 148.33 31.65 148.15 31.88 147.92C32.1 147.7 32.27 147.44 32.4 147.14C32.51 146.85 32.58 146.54 32.58 146.23L32.58 141.39C32.58 141.08 32.51 140.77 32.4 140.48C32.27 140.18 32.1 139.92 31.88 139.7C31.65 139.47 31.39 139.3 31.09 139.17C30.8 139.06 30.49 138.99 30.17 139C29.54 139 28.93 139.25 28.48 139.7C28.03 140.15 27.77 140.76 27.77 141.39L27.77 146.23Z" fill="#F4F3F0" fill-opacity="1.000000" fill-rule="nonzero"/>
	<path id="Vector" d="M27.77 146.23C27.77 146.86 28.03 147.47 28.48 147.92C28.93 148.37 29.54 148.63 30.17 148.63C30.49 148.63 30.8 148.57 31.09 148.45C31.39 148.33 31.65 148.15 31.88 147.92C32.1 147.7 32.27 147.44 32.4 147.14C32.51 146.85 32.58 146.54 32.58 146.23L32.58 141.39C32.58 141.08 32.51 140.77 32.4 140.48C32.27 140.18 32.1 139.92 31.88 139.7C31.65 139.47 31.39 139.3 31.09 139.17C30.8 139.06 30.49 138.99 30.17 139C29.54 139 28.93 139.25 28.48 139.7C28.03 140.15 27.77 140.76 27.77 141.39L27.77 146.23ZM28.59 147.28Q28.7 147.44 28.83 147.57Q28.97 147.7 29.12 147.81Q29.27 147.91 29.45 147.98Q29.62 148.05 29.8 148.09Q29.99 148.13 30.17 148.13Q30.38 148.13 30.57 148.09Q30.74 148.05 30.91 147.98Q31.08 147.91 31.23 147.81Q31.39 147.71 31.52 147.57Q31.66 147.44 31.76 147.28Q31.86 147.13 31.93 146.96Q32 146.78 32.04 146.6Q32.08 146.42 32.08 146.23L32.08 141.39Q32.08 141.19 32.03 141Q32 140.83 31.93 140.67Q31.86 140.49 31.76 140.34Q31.66 140.18 31.52 140.05Q31.39 139.91 31.23 139.81Q31.08 139.71 30.91 139.64Q30.73 139.57 30.55 139.53Q30.37 139.49 30.18 139.5Q29.97 139.5 29.78 139.54Q29.61 139.57 29.45 139.64Q29.27 139.71 29.12 139.82Q28.97 139.92 28.83 140.05Q28.7 140.19 28.59 140.34Q28.49 140.49 28.42 140.67Q28.35 140.84 28.31 141.02Q28.27 141.21 28.27 141.39L28.27 146.23Q28.27 146.41 28.31 146.6Q28.35 146.78 28.42 146.95Q28.49 147.13 28.59 147.28Z" fill="#000000" fill-opacity="1.000000" fill-rule="evenodd"/>
	<path id="Vector" d="M22.98 145.13C22.98 145.44 23.04 145.75 23.16 146.05C23.28 146.34 23.46 146.6 23.68 146.83C23.91 147.05 24.17 147.23 24.46 147.35C24.76 147.47 25.07 147.53 25.38 147.53C25.7 147.53 26.01 147.47 26.3 147.35C26.6 147.23 26.86 147.05 27.08 146.83C27.31 146.6 27.48 146.34 27.6 146.05C27.72 145.75 27.79 145.44 27.78 145.13L27.78 142.27C27.78 141.63 27.53 141.02 27.08 140.57C26.63 140.12 26.02 139.87 25.38 139.87C24.75 139.87 24.14 140.12 23.69 140.57C23.24 141.02 22.98 141.63 22.98 142.27L22.98 145.13Z" fill="#F4F3F0" fill-opacity="1.000000" fill-rule="nonzero"/>
	<path id="Vector" d="M22.98 145.13C22.98 145.44 23.04 145.75 23.16 146.05C23.28 146.34 23.46 146.6 23.68 146.83C23.91 147.05 24.17 147.23 24.46 147.35C24.76 147.47 25.07 147.53 25.38 147.53C25.7 147.53 26.01 147.47 26.3 147.35C26.6 147.23 26.86 147.05 27.08 146.83C27.31 146.6 27.48 146.34 27.6 146.05C27.72 145.75 27.79 145.44 27.78 145.13L27.78 142.27C27.78 141.63 27.53 141.02 27.08 140.57C26.63 140.12 26.02 139.87 25.38 139.87C24.75 139.87 24.14 140.12 23.69 140.57C23.24 141.02 22.98 141.63 22.98 142.27L22.98 145.13ZM23.52 145.52Q23.56 145.69 23.63 145.86Q23.7 146.03 23.8 146.18Q23.9 146.34 24.04 146.47Q24.17 146.61 24.33 146.71Q24.48 146.81 24.66 146.88Q24.83 146.96 25.01 146.99Q25.19 147.03 25.38 147.03Q25.6 147.03 25.81 146.98Q25.96 146.94 26.11 146.88Q26.29 146.81 26.44 146.71Q26.6 146.61 26.73 146.47Q26.86 146.34 26.97 146.18Q27.07 146.03 27.14 145.86Q27.21 145.68 27.25 145.5Q27.28 145.32 27.28 145.13L27.28 142.27Q27.28 142.08 27.25 141.89Q27.21 141.71 27.14 141.54Q27.07 141.36 26.96 141.21Q26.86 141.06 26.73 140.92Q26.59 140.79 26.44 140.69Q26.29 140.58 26.11 140.51Q25.94 140.44 25.75 140.4Q25.57 140.37 25.38 140.37Q25.19 140.37 25.01 140.4Q24.83 140.44 24.66 140.51Q24.48 140.58 24.33 140.69Q24.17 140.79 24.04 140.92Q23.91 141.06 23.8 141.21Q23.7 141.36 23.63 141.54Q23.56 141.71 23.52 141.89Q23.48 142.08 23.48 142.27L23.48 145.13Q23.48 145.33 23.52 145.52Z" fill="#000000" fill-opacity="1.000000" fill-rule="evenodd"/>
	<path id="Vector" d="M19 144.48C19 145.01 19.21 145.51 19.58 145.89C19.96 146.26 20.46 146.48 21 146.48C21.53 146.48 22.03 146.26 22.41 145.89C22.78 145.51 23 145.01 23 144.48L23 143.17C23 142.64 22.78 142.14 22.41 141.76C22.03 141.39 21.53 141.17 21 141.17C20.46 141.17 19.96 141.39 19.58 141.76C19.21 142.14 19 142.64 19 143.17L19 144.48Z" fill="#F4F3F0" fill-opacity="1.000000" fill-rule="nonzero"/>
	<path id="Vector" d="M19 144.48C19 145.01 19.21 145.51 19.58 145.89C19.96 146.26 20.46 146.48 21 146.48C21.53 146.48 22.03 146.26 22.41 145.89C22.78 145.51 23 145.01 23 144.48L23 143.17C23 142.64 22.78 142.14 22.41 141.76C22.03 141.39 21.53 141.17 21 141.17C20.46 141.17 19.96 141.39 19.58 141.76C19.21 142.14 19 142.64 19 143.17L19 144.48ZM19.75 145.31Q19.83 145.43 19.93 145.54Q20.04 145.64 20.16 145.72Q20.28 145.8 20.42 145.86Q20.56 145.92 20.7 145.95Q20.85 145.98 21 145.98Q21.14 145.98 21.29 145.95Q21.43 145.92 21.57 145.86Q21.71 145.8 21.83 145.72Q21.95 145.64 22.06 145.54Q22.16 145.43 22.24 145.31Q22.32 145.19 22.38 145.05Q22.44 144.91 22.47 144.77Q22.5 144.62 22.5 144.48L22.5 143.17Q22.5 143.03 22.47 142.88Q22.44 142.74 22.38 142.6Q22.32 142.46 22.24 142.34Q22.16 142.22 22.06 142.12Q21.95 142.01 21.83 141.93Q21.71 141.85 21.57 141.79Q21.43 141.73 21.29 141.7Q21.14 141.67 21 141.67Q20.85 141.67 20.7 141.7Q20.56 141.73 20.42 141.79Q20.28 141.85 20.16 141.93Q20.04 142.01 19.93 142.12Q19.83 142.22 19.75 142.34Q19.67 142.46 19.61 142.6Q19.55 142.74 19.52 142.88Q19.5 143.03 19.5 143.17L19.5 144.48Q19.5 144.62 19.52 144.77Q19.55 144.91 19.61 145.05Q19.67 145.19 19.75 145.31Z" fill="#000000" fill-opacity="1.000000" fill-rule="evenodd"/>
	<path id="Vector" d="M32.58 145C32.58 145.31 32.64 145.62 32.76 145.92C32.88 146.21 33.06 146.47 33.28 146.7C33.51 146.92 33.77 147.1 34.06 147.22C34.36 147.34 34.67 147.4 34.99 147.39C35.62 147.39 36.23 147.14 36.68 146.69C37.13 146.24 37.39 145.63 37.39 145L37.39 141.85C37.39 141.21 37.13 140.6 36.68 140.15C36.23 139.7 35.62 139.45 34.99 139.45C34.67 139.44 34.36 139.5 34.06 139.63C33.77 139.75 33.51 139.92 33.28 140.14C33.06 140.37 32.88 140.63 32.76 140.92C32.64 141.22 32.58 141.53 32.58 141.85L32.58 145Z" fill="#F4F3F0" fill-opacity="1.000000" fill-rule="nonzero"/>
	<path id="Vector" d="M32.58 145C32.58 145.31 32.64 145.62 32.76 145.92C32.88 146.21 33.06 146.47 33.28 146.7C33.51 146.92 33.77 147.1 34.06 147.22C34.36 147.34 34.67 147.4 34.99 147.39C35.62 147.39 36.23 147.14 36.68 146.69C37.13 146.24 37.39 145.63 37.39 145L37.39 141.85C37.39 141.21 37.13 140.6 36.68 140.15C36.23 139.7 35.62 139.45 34.99 139.45C34.67 139.44 34.36 139.5 34.06 139.63C33.77 139.75 33.51 139.92 33.28 140.14C33.06 140.37 32.88 140.63 32.76 140.92C32.64 141.22 32.58 141.53 32.58 141.85L32.58 145ZM33.11 145.37Q33.15 145.55 33.22 145.72Q33.29 145.9 33.4 146.05Q33.5 146.21 33.64 146.34Q33.77 146.48 33.92 146.58Q34.08 146.68 34.25 146.75Q34.43 146.82 34.61 146.86Q34.79 146.9 34.98 146.89Q35.19 146.89 35.38 146.85Q35.55 146.82 35.71 146.75Q35.89 146.68 36.04 146.58Q36.2 146.47 36.33 146.34Q36.46 146.21 36.57 146.05Q36.67 145.9 36.74 145.72Q36.81 145.55 36.85 145.37Q36.89 145.18 36.89 145L36.89 141.85Q36.89 141.66 36.85 141.47Q36.81 141.29 36.74 141.12Q36.67 140.94 36.57 140.79Q36.46 140.64 36.33 140.5Q36.2 140.37 36.04 140.27Q35.89 140.16 35.71 140.09Q35.54 140.02 35.36 139.98Q35.17 139.95 34.99 139.95Q34.78 139.94 34.58 139.99Q34.42 140.02 34.25 140.09Q34.08 140.16 33.92 140.26Q33.77 140.37 33.64 140.5Q33.5 140.63 33.4 140.79Q33.29 140.94 33.22 141.12Q33.15 141.29 33.11 141.47Q33.08 141.66 33.08 141.85L33.08 145Q33.08 145.19 33.11 145.37Z" fill="#000000" fill-opacity="1.000000" fill-rule="evenodd"/>
</svg>
