<svg width="105.148438" height="76.259804" viewBox="0 0 105.148 76.2598" fill="none" xmlns="http://www.w3.org/2000/svg" xmlns:xlink="http://www.w3.org/1999/xlink">
	<desc>
			Created with Pixso.
	</desc>
	<defs/>
	<path id="Vector" d="M45.42 1.15C43.91 2.63 43.64 4.17 44.56 5.93C45.91 8.4 51.03 6.2 51.03 3.13C51.03 1.42 50.33 0.65 48.23 0.1C47.09 -0.17 46.45 0.05 45.42 1.15ZM49.41 2.3C51.03 4.28 47.63 7.03 45.8 5.16C44.99 4.39 44.99 4.17 45.85 2.91C46.82 1.31 48.39 1.04 49.41 2.3Z" fill="#FFFFFF" fill-opacity="1.000000" fill-rule="nonzero"/>
	<path id="Vector" d="M33.58 22.21C32.89 23.29 32.84 23.63 33.48 24.65C33.85 25.28 34.59 25.91 35.06 25.96C36.18 26.25 38.03 24.54 38.03 23.23C38.03 20.84 34.91 20.16 33.58 22.21ZM36.44 23.23C36.44 23.97 36.07 24.37 35.38 24.37C34.22 24.37 33.9 22.95 35.01 22.49C36.18 21.92 36.44 22.09 36.44 23.23Z" fill="#FFFFFF" fill-opacity="1.000000" fill-rule="nonzero"/>
	<path id="Vector" d="M67.92 12.86C66.67 14.08 66.73 15.01 68.16 16.29C69.47 17.46 70.79 17.17 71.74 15.48C72.22 14.49 72.16 14.08 71.15 13.1C69.71 11.7 69.11 11.64 67.92 12.86ZM70.55 14.55C70.55 15.01 70.19 15.42 69.71 15.42C68.7 15.42 68.04 14.61 68.58 14.03C69.29 13.33 70.55 13.68 70.55 14.55Z" fill="#FFFFFF" fill-opacity="1.000000" fill-rule="nonzero"/>
	<path id="Vector" d="M91.02 47.24C90.67 46.31 89.91 45.66 89.07 45.2C87.95 44.58 86.7 44.21 85.47 43.87C82.5 43.07 79.41 42.57 76.57 41.31C75.12 40.67 73.72 39.8 72.75 38.49C72.69 38.41 72.59 38.4 72.53 38.49C71.35 40.36 69.45 41.41 67.31 41.69C66.72 41.77 66.13 41.78 65.53 41.79C65.42 41.79 65.24 41.77 65.14 41.84C65.07 41.89 65.07 41.94 65.04 42.03C64.95 42.33 64.88 42.63 64.81 42.93C63.55 47.82 62.24 52.69 60.93 57.57C60.48 59.24 60.03 60.92 59.57 62.6C59.47 63 59.36 63.39 59.25 63.79C59.15 64.17 59.02 64.61 58.68 64.83C58.24 65.12 57.91 64.71 57.84 64.29C57.77 63.82 57.94 63.3 58.06 62.84C58.2 62.27 58.34 61.69 58.49 61.12C58.94 59.3 59.41 57.48 59.87 55.66C60.98 51.35 62.09 47.05 63.2 42.74C63.32 42.31 63.42 41.89 63.53 41.46C63.54 41.43 63.54 41.4 63.53 41.38C63.52 41.35 63.5 41.33 63.48 41.31C61.78 40.47 60.08 39.31 59.39 37.44C59.23 37 59.12 36.53 59.08 36.06C59.05 35.81 59.04 35.55 59.04 35.29C59.04 35.08 59.08 34.85 59.03 34.65C58.98 34.44 58.82 34.3 58.72 34.13C58.5 33.77 58.55 33.32 58.63 32.92C58.74 32.43 58.88 31.84 59.19 31.44C59.34 31.26 59.51 31.19 59.71 31.09C59.93 30.98 60.03 30.81 60.16 30.6C60.46 30.15 60.8 29.73 61.18 29.36C62.89 27.7 65.38 26.85 67.71 27.45C69.62 27.93 71.36 29.14 72.4 30.86C72.98 31.82 73.33 32.92 73.42 34.05C73.45 34.42 73.11 34.51 72.8 34.59C71.38 34.94 69.75 34.67 68.35 34.4C66.1 33.97 63.93 33.21 61.89 32.15C61.34 31.86 60.8 31.55 60.27 31.21C60.03 31.06 59.87 30.9 59.63 31.13C59.15 31.6 58.95 32.55 58.92 33.2C58.88 34.42 59.94 35.22 60.87 35.77C62.24 36.6 63.78 37.13 65.31 37.55C66.89 37.98 68.52 38.29 70.16 38.38C70.81 38.42 71.47 38.43 72.12 38.34C72.66 38.27 73.19 38.15 73.54 37.69C73.97 37.12 74.13 36.32 74.14 35.62C74.14 35.27 74.11 34.45 73.56 34.53C72.99 34.61 73.07 35.96 73.05 36.35C73.02 36.76 72.74 36.95 72.38 37.09C71.1 37.56 69.52 37.35 68.22 37.14C66.09 36.78 64.01 36.06 62.07 35.09C60.97 34.53 59.91 33.87 58.9 33.14C58.36 32.75 57.77 32.41 57.13 32.24C54.74 31.63 53.19 33.97 52.26 35.84C51.64 37.08 51.15 38.38 50.64 39.67C50.19 40.8 49.77 41.97 49.14 43C48.54 43.98 47.61 44.54 46.58 44.97C45.13 45.57 43.57 45.91 42.02 46.14C40.46 46.37 38.88 46.49 37.3 46.45C36.67 46.43 36.03 46.39 35.4 46.28C35 46.22 34.57 46.14 34.22 45.92C33.82 45.68 33.97 45.34 34 44.92C34.02 44.59 34.2 43.32 33.57 43.39C33.06 43.45 33.01 44.23 32.98 44.62C32.92 45.31 32.99 46.14 33.41 46.72C33.73 47.13 34.28 47.29 34.76 47.42C35.39 47.59 36.05 47.67 36.69 47.73C38.34 47.86 40.01 47.79 41.65 47.58C43.19 47.39 44.75 47.09 46.19 46.47C47.18 46.05 48.27 45.43 48.4 44.24C48.46 43.6 48.41 42.6 47.98 42.08C47.77 41.83 47.57 41.99 47.31 42.11C46.68 42.38 46.04 42.63 45.39 42.85C43.14 43.6 40.76 44.02 38.39 44.05C37.51 44.07 36.63 44.03 35.76 43.89C35.23 43.81 34.63 43.7 34.17 43.41C34.07 43.35 33.93 43.26 33.9 43.13C33.87 42.99 33.97 42.8 34 42.67C34.08 42.39 34.17 42.12 34.28 41.85C34.68 40.84 35.3 39.94 36.09 39.21C37.57 37.86 39.68 37.09 41.67 37.25C43.91 37.43 45.99 38.84 47.16 40.77C47.36 41.11 47.48 41.53 47.71 41.85C47.81 42 47.96 42.07 48.1 42.17C48.33 42.33 48.45 42.57 48.53 42.84C48.69 43.37 48.78 43.98 48.72 44.53C48.69 44.86 48.57 45.1 48.34 45.34C48.2 45.49 48.08 45.63 48.04 45.85C47.88 46.84 47.72 47.76 47.18 48.63C46.2 50.23 44.44 51.05 42.74 51.61C42.69 51.62 42.64 51.67 42.65 51.73C43.12 56.1 43.6 60.46 44.06 64.83C44.4 68 44.79 71.17 45.04 74.34C45.07 74.7 45.07 75.08 44.9 75.4C44.67 75.81 44.23 75.84 43.96 75.45C43.66 75.04 43.66 74.44 43.6 73.94C43.42 72.42 43.24 70.9 43.06 69.38C42.46 64.37 41.87 59.37 41.32 54.36C41.25 53.74 41.19 53.13 41.12 52.51C41.1 52.29 41.16 51.95 40.93 51.84C40.8 51.78 40.62 51.78 40.48 51.76C40.23 51.72 39.97 51.67 39.71 51.62C37.94 51.26 36.24 50.45 35.08 48.99C34.71 48.53 34.41 48 34.16 47.46C34.15 47.43 34.13 47.41 34.1 47.4C34.08 47.39 34.05 47.39 34.02 47.4C31.61 48.4 29.07 49.11 26.61 49.97C23.88 50.93 21.06 51.95 18.62 53.56C17.62 54.21 16.63 55 16.05 56.08C15.97 56.22 16.19 56.36 16.27 56.21C16.79 55.25 17.67 54.52 18.55 53.91C19.68 53.15 20.9 52.54 22.14 51.99C24.83 50.79 27.64 49.89 30.43 48.96C31.66 48.55 32.89 48.15 34.09 47.65L33.94 47.59C34.81 49.52 36.41 50.87 38.38 51.53C39.01 51.75 39.66 51.89 40.32 51.99C40.45 52.02 40.72 52.01 40.83 52.08C40.85 52.1 40.85 52.09 40.86 52.1C40.82 52.06 40.85 52.36 40.85 52.41C40.89 52.74 40.92 53.07 40.96 53.4C41.52 58.58 42.13 63.75 42.75 68.93C42.94 70.55 43.13 72.18 43.33 73.8C43.38 74.26 43.39 74.77 43.55 75.2C43.77 75.82 44.46 76.33 45 75.71C45.38 75.26 45.32 74.61 45.27 74.05C45.22 73.52 45.17 72.98 45.11 72.45C44.93 70.59 44.73 68.74 44.54 66.89C44.05 62.3 43.56 57.71 43.05 53.13C43 52.66 42.95 52.2 42.9 51.73L42.81 51.86C44.47 51.32 46.16 50.53 47.21 49.05C47.71 48.34 48.03 47.51 48.19 46.66C48.25 46.3 48.21 45.86 48.47 45.58C48.62 45.42 48.76 45.27 48.85 45.07C49.01 44.7 49 44.27 48.97 43.88C48.93 43.42 48.87 42.92 48.68 42.49C48.58 42.28 48.46 42.11 48.27 41.98C48.13 41.88 47.98 41.81 47.89 41.66C47.65 41.26 47.5 40.81 47.24 40.42C46.4 39.14 45.21 38.13 43.82 37.53C40.13 35.94 35.61 37.95 34.08 41.66C33.91 42.08 33.67 42.6 33.65 43.05C33.64 43.18 33.68 43.3 33.76 43.4C34 43.71 34.47 43.85 34.82 43.96C36.42 44.41 38.19 44.38 39.82 44.25C42.25 44.05 44.65 43.49 46.91 42.56C47.02 42.51 47.14 42.46 47.25 42.41C47.36 42.37 47.57 42.22 47.68 42.22C47.82 42.23 47.88 42.41 47.94 42.56C48.09 42.97 48.16 43.43 48.16 43.88C48.16 44.56 47.92 45.07 47.41 45.49C46.33 46.36 44.84 46.73 43.52 47.01C41.86 47.36 40.15 47.52 38.45 47.53C37.1 47.54 35.64 47.49 34.35 47.02C34.06 46.91 33.78 46.79 33.6 46.53C33.37 46.21 33.28 45.79 33.24 45.4C33.22 45.23 33.23 43.41 33.66 43.67C33.88 43.79 33.76 44.62 33.75 44.83C33.73 45.1 33.64 45.42 33.7 45.69C33.76 45.96 34.02 46.13 34.25 46.23C35.2 46.67 36.39 46.69 37.41 46.71C38.96 46.74 40.51 46.62 42.05 46.4C43.6 46.17 45.16 45.83 46.62 45.24C47.6 44.83 48.57 44.3 49.19 43.4C49.83 42.46 50.24 41.37 50.66 40.32C51.18 39.01 51.67 37.68 52.27 36.41C52.8 35.29 53.41 34.14 54.31 33.29C55.12 32.53 56.13 32.21 57.2 32.53C57.97 32.77 58.59 33.25 59.25 33.71C60.26 34.41 61.32 35.03 62.43 35.55C64.3 36.44 66.29 37.1 68.33 37.41C69.62 37.61 71.11 37.78 72.38 37.36C72.7 37.25 73.05 37.08 73.21 36.77C73.32 36.56 73.3 36.31 73.32 36.08C73.33 35.85 73.34 35.63 73.38 35.41C73.4 35.27 73.42 34.93 73.53 34.83C73.81 34.61 73.87 35.27 73.88 35.41C73.89 35.8 73.85 36.19 73.75 36.57C73.66 36.95 73.52 37.35 73.25 37.64C73.03 37.87 72.75 37.95 72.44 38.02C71.08 38.31 69.58 38.12 68.22 37.91C66.54 37.64 64.86 37.21 63.26 36.61C62 36.13 60.56 35.53 59.65 34.48C59.18 33.93 59.1 33.31 59.26 32.6C59.35 32.2 59.48 31.76 59.72 31.43C59.86 31.22 59.88 31.26 60.09 31.4C60.36 31.57 60.64 31.74 60.92 31.91C62.9 33.05 65.06 33.9 67.28 34.43C68.85 34.81 70.54 35.09 72.16 34.94C72.57 34.91 73.03 34.85 73.39 34.63C73.81 34.37 73.67 33.93 73.61 33.48C73.3 31.5 72.22 29.74 70.64 28.55C69.05 27.37 67.03 26.76 65.07 27.08C63.02 27.41 61.07 28.69 59.94 30.47C59.79 30.7 59.7 30.8 59.46 30.92C59.27 31 59.11 31.11 58.98 31.29C58.7 31.66 58.56 32.15 58.44 32.59C58.34 32.99 58.25 33.44 58.34 33.86C58.39 34.1 58.51 34.28 58.65 34.47C58.88 34.8 58.77 35.22 58.78 35.61C58.82 36.48 59.01 37.33 59.4 38.11C60.22 39.73 61.78 40.76 63.34 41.54C63.32 41.49 63.3 41.44 63.28 41.39C62.16 45.72 61.04 50.05 59.93 54.38C59.43 56.36 58.92 58.34 58.42 60.33C58.15 61.38 57.86 62.43 57.63 63.49C57.51 64.09 57.56 65.24 58.42 65.19C59.1 65.15 59.37 64.34 59.52 63.78C59.85 62.52 60.2 61.27 60.53 60.01C61.84 55.16 63.13 50.31 64.41 45.46C64.57 44.85 64.73 44.23 64.89 43.62C64.97 43.31 65.05 43 65.13 42.7C65.16 42.58 65.25 42.08 65.26 42.07C65.33 42.01 65.63 42.05 65.72 42.05C66.01 42.05 66.3 42.04 66.58 42.03C68.43 41.91 70.26 41.32 71.63 40.01C72.06 39.59 72.43 39.13 72.75 38.63L72.53 38.63C74.23 40.93 77.13 41.96 79.77 42.7C81.26 43.12 82.78 43.46 84.29 43.84C85.61 44.17 86.96 44.51 88.21 45.07C89.24 45.52 90.35 46.18 90.77 47.31C90.83 47.46 91.08 47.4 91.02 47.24Z" fill="#FFFFFF" fill-opacity="1.000000" fill-rule="nonzero"/>
	<path id="Vector" d="M89.07 45.2C87.95 44.58 86.7 44.21 85.47 43.87C82.5 43.07 79.41 42.57 76.57 41.31C75.12 40.67 73.72 39.8 72.75 38.49C72.69 38.41 72.59 38.4 72.53 38.49C71.35 40.36 69.45 41.41 67.31 41.69C66.72 41.77 66.13 41.78 65.53 41.79C65.42 41.79 65.24 41.77 65.14 41.84C65.07 41.89 65.07 41.94 65.04 42.03C64.95 42.33 64.88 42.63 64.81 42.93C63.55 47.82 62.24 52.69 60.93 57.57C60.48 59.24 60.03 60.92 59.57 62.6C59.47 63 59.36 63.39 59.25 63.79C59.15 64.17 59.02 64.61 58.68 64.83C58.24 65.12 57.91 64.71 57.84 64.29C57.77 63.82 57.94 63.3 58.06 62.84C58.2 62.27 58.34 61.69 58.49 61.12C58.94 59.3 59.41 57.48 59.87 55.66C60.98 51.35 62.09 47.05 63.2 42.74C63.32 42.31 63.42 41.89 63.53 41.46C63.54 41.43 63.54 41.4 63.53 41.38C63.52 41.35 63.5 41.33 63.48 41.31C61.78 40.47 60.08 39.31 59.39 37.44C59.23 37 59.12 36.53 59.08 36.06C59.05 35.81 59.04 35.55 59.04 35.29C59.04 35.08 59.08 34.85 59.03 34.65C58.98 34.44 58.82 34.3 58.72 34.13C58.5 33.77 58.55 33.32 58.63 32.92C58.74 32.43 58.88 31.84 59.19 31.44C59.34 31.26 59.51 31.19 59.71 31.09C59.93 30.98 60.03 30.81 60.16 30.6C60.46 30.15 60.8 29.73 61.18 29.36C62.89 27.7 65.38 26.85 67.71 27.45C69.62 27.93 71.36 29.14 72.4 30.86C72.98 31.82 73.33 32.92 73.42 34.05C73.45 34.42 73.11 34.51 72.8 34.59C71.38 34.94 69.75 34.67 68.35 34.4C66.1 33.97 63.93 33.21 61.89 32.15C61.34 31.86 60.8 31.55 60.27 31.21C60.03 31.06 59.87 30.9 59.63 31.13C59.15 31.6 58.95 32.55 58.92 33.2C58.88 34.42 59.94 35.22 60.87 35.77C62.24 36.6 63.78 37.13 65.31 37.55C66.89 37.98 68.52 38.29 70.16 38.38C70.81 38.42 71.47 38.43 72.12 38.34C72.66 38.27 73.19 38.15 73.54 37.69C73.97 37.12 74.13 36.32 74.14 35.62C74.14 35.27 74.11 34.45 73.56 34.53C72.99 34.61 73.07 35.96 73.05 36.35C73.02 36.76 72.74 36.95 72.38 37.09C71.1 37.56 69.52 37.35 68.22 37.14C66.09 36.78 64.01 36.06 62.07 35.09C60.97 34.53 59.91 33.87 58.9 33.14C58.36 32.75 57.77 32.41 57.13 32.24C54.74 31.63 53.19 33.97 52.26 35.84C51.64 37.08 51.15 38.38 50.64 39.67C50.19 40.8 49.77 41.97 49.14 43C48.54 43.98 47.61 44.54 46.58 44.97C45.13 45.57 43.57 45.91 42.02 46.14C40.46 46.37 38.88 46.49 37.3 46.45C36.67 46.43 36.03 46.39 35.4 46.28C35 46.22 34.57 46.14 34.22 45.92C33.82 45.68 33.97 45.34 34 44.92C34.02 44.59 34.2 43.32 33.57 43.39C33.06 43.45 33.01 44.23 32.98 44.62C32.92 45.31 32.99 46.14 33.41 46.72C33.73 47.13 34.28 47.29 34.76 47.42C35.39 47.59 36.05 47.67 36.69 47.73C38.34 47.86 40.01 47.79 41.65 47.58C43.19 47.39 44.75 47.09 46.19 46.47C47.18 46.05 48.27 45.43 48.4 44.24C48.46 43.6 48.41 42.6 47.98 42.08C47.77 41.83 47.57 41.99 47.31 42.11C46.68 42.38 46.04 42.63 45.39 42.85C43.14 43.6 40.76 44.02 38.39 44.05C37.51 44.07 36.63 44.03 35.76 43.89C35.23 43.81 34.63 43.7 34.17 43.41C34.07 43.35 33.93 43.26 33.9 43.13C33.87 42.99 33.97 42.8 34 42.67C34.08 42.39 34.17 42.12 34.28 41.85C34.68 40.84 35.3 39.94 36.09 39.21C37.57 37.86 39.68 37.09 41.67 37.25C43.91 37.43 45.99 38.84 47.16 40.77C47.36 41.11 47.48 41.53 47.71 41.85C47.81 42 47.96 42.07 48.1 42.17C48.33 42.33 48.45 42.57 48.53 42.84C48.69 43.37 48.78 43.98 48.72 44.53C48.69 44.86 48.57 45.1 48.34 45.34C48.2 45.49 48.08 45.63 48.04 45.85C47.88 46.84 47.72 47.76 47.18 48.63C46.2 50.23 44.44 51.05 42.74 51.61C42.69 51.62 42.64 51.67 42.65 51.73C43.12 56.1 43.6 60.46 44.06 64.83C44.4 68 44.79 71.17 45.04 74.34C45.07 74.7 45.07 75.08 44.9 75.4C44.67 75.81 44.23 75.84 43.96 75.45C43.66 75.04 43.66 74.44 43.6 73.94C43.42 72.42 43.24 70.9 43.06 69.38C42.46 64.37 41.87 59.37 41.32 54.36C41.25 53.74 41.19 53.13 41.12 52.51C41.1 52.29 41.16 51.95 40.93 51.84C40.8 51.78 40.62 51.78 40.48 51.76C40.23 51.72 39.97 51.67 39.71 51.62C37.94 51.26 36.24 50.45 35.08 48.99C34.71 48.53 34.41 48 34.16 47.46C34.15 47.43 34.13 47.41 34.1 47.4C34.08 47.39 34.05 47.39 34.02 47.4C31.61 48.4 29.07 49.11 26.61 49.97C23.88 50.93 21.06 51.95 18.62 53.56C17.62 54.21 16.63 55 16.05 56.08C15.97 56.22 16.19 56.36 16.27 56.21C16.79 55.25 17.67 54.52 18.55 53.91C19.68 53.15 20.9 52.54 22.14 51.99C24.83 50.79 27.64 49.89 30.43 48.96C31.66 48.55 32.89 48.15 34.09 47.65L33.94 47.59C34.81 49.52 36.41 50.87 38.38 51.53C39.01 51.75 39.66 51.89 40.32 51.99C40.45 52.02 40.72 52.01 40.83 52.08C40.85 52.1 40.85 52.09 40.86 52.1C40.82 52.06 40.85 52.36 40.85 52.41C40.89 52.74 40.92 53.07 40.96 53.4C41.52 58.58 42.13 63.75 42.75 68.93C42.94 70.55 43.13 72.18 43.33 73.8C43.38 74.26 43.39 74.77 43.55 75.2C43.77 75.82 44.46 76.33 45 75.71C45.38 75.26 45.32 74.61 45.27 74.05C45.22 73.52 45.17 72.98 45.11 72.45C44.93 70.59 44.73 68.74 44.54 66.89C44.05 62.3 43.56 57.71 43.05 53.13C43 52.66 42.95 52.2 42.9 51.73L42.81 51.86C44.47 51.32 46.16 50.53 47.21 49.05C47.71 48.34 48.03 47.51 48.19 46.66C48.25 46.3 48.21 45.86 48.47 45.58C48.62 45.42 48.76 45.27 48.85 45.07C49.01 44.7 49 44.27 48.97 43.88C48.93 43.42 48.87 42.92 48.68 42.49C48.58 42.28 48.46 42.11 48.27 41.98C48.13 41.88 47.98 41.81 47.89 41.66C47.65 41.26 47.5 40.81 47.24 40.42C46.4 39.14 45.21 38.13 43.82 37.53C40.13 35.94 35.61 37.95 34.08 41.66C33.91 42.08 33.67 42.6 33.65 43.05C33.64 43.18 33.68 43.3 33.76 43.4C34 43.71 34.47 43.85 34.82 43.96C36.42 44.41 38.19 44.38 39.82 44.25C42.25 44.05 44.65 43.49 46.91 42.56C47.02 42.51 47.14 42.46 47.25 42.41C47.36 42.37 47.57 42.22 47.68 42.22C47.82 42.23 47.88 42.41 47.94 42.56C48.09 42.97 48.16 43.43 48.16 43.88C48.16 44.56 47.92 45.07 47.41 45.49C46.33 46.36 44.84 46.73 43.52 47.01C41.86 47.36 40.15 47.52 38.45 47.53C37.1 47.54 35.64 47.49 34.35 47.02C34.06 46.91 33.78 46.79 33.6 46.53C33.37 46.21 33.28 45.79 33.24 45.4C33.22 45.23 33.23 43.41 33.66 43.67C33.88 43.79 33.76 44.62 33.75 44.83C33.73 45.1 33.64 45.42 33.7 45.69C33.76 45.96 34.02 46.13 34.25 46.23C35.2 46.67 36.39 46.69 37.41 46.71C38.96 46.74 40.51 46.62 42.05 46.4C43.6 46.17 45.16 45.83 46.62 45.24C47.6 44.83 48.57 44.3 49.19 43.4C49.83 42.46 50.24 41.37 50.66 40.32C51.18 39.01 51.67 37.68 52.27 36.41C52.8 35.29 53.41 34.14 54.31 33.29C55.12 32.53 56.13 32.21 57.2 32.53C57.97 32.77 58.59 33.25 59.25 33.71C60.26 34.41 61.32 35.03 62.43 35.55C64.3 36.44 66.29 37.1 68.33 37.41C69.62 37.61 71.11 37.78 72.38 37.36C72.7 37.25 73.05 37.08 73.21 36.77C73.32 36.56 73.3 36.31 73.32 36.08C73.33 35.85 73.34 35.63 73.38 35.41C73.4 35.27 73.42 34.93 73.53 34.83C73.81 34.61 73.87 35.27 73.88 35.41C73.89 35.8 73.85 36.19 73.75 36.57C73.66 36.95 73.52 37.35 73.25 37.64C73.03 37.87 72.75 37.95 72.44 38.02C71.08 38.31 69.58 38.12 68.22 37.91C66.54 37.64 64.86 37.21 63.26 36.61C62 36.13 60.56 35.53 59.65 34.48C59.18 33.93 59.1 33.31 59.26 32.6C59.35 32.2 59.48 31.76 59.72 31.43C59.86 31.22 59.88 31.26 60.09 31.4C60.36 31.57 60.64 31.74 60.92 31.91C62.9 33.05 65.06 33.9 67.28 34.43C68.85 34.81 70.54 35.09 72.16 34.94C72.57 34.91 73.03 34.85 73.39 34.63C73.81 34.37 73.67 33.93 73.61 33.48C73.3 31.5 72.22 29.74 70.64 28.55C69.05 27.37 67.03 26.76 65.07 27.08C63.02 27.41 61.07 28.69 59.94 30.47C59.79 30.7 59.7 30.8 59.46 30.92C59.27 31 59.11 31.11 58.98 31.29C58.7 31.66 58.56 32.15 58.44 32.59C58.34 32.99 58.25 33.44 58.34 33.86C58.39 34.1 58.51 34.28 58.65 34.47C58.88 34.8 58.77 35.22 58.78 35.61C58.82 36.48 59.01 37.33 59.4 38.11C60.22 39.73 61.78 40.76 63.34 41.54C63.32 41.49 63.3 41.44 63.28 41.39C62.16 45.72 61.04 50.05 59.93 54.38C59.43 56.36 58.92 58.34 58.42 60.33C58.15 61.38 57.86 62.43 57.63 63.49C57.51 64.09 57.56 65.24 58.42 65.19C59.1 65.15 59.37 64.34 59.52 63.78C59.85 62.52 60.2 61.27 60.53 60.01C61.84 55.16 63.13 50.31 64.41 45.46C64.57 44.85 64.73 44.23 64.89 43.62C64.97 43.31 65.05 43 65.13 42.7C65.16 42.58 65.25 42.08 65.26 42.07C65.33 42.01 65.63 42.05 65.72 42.05C66.01 42.05 66.3 42.04 66.58 42.03C68.43 41.91 70.26 41.32 71.63 40.01C72.06 39.59 72.43 39.13 72.75 38.63L72.53 38.63C74.23 40.93 77.13 41.96 79.77 42.7C81.26 43.12 82.78 43.46 84.29 43.84C85.61 44.17 86.96 44.51 88.21 45.07C89.24 45.52 90.35 46.18 90.77 47.31C90.83 47.46 91.08 47.4 91.02 47.24C90.67 46.31 89.91 45.66 89.07 45.2Z" stroke="#FFFFFF" stroke-opacity="1.000000" stroke-width="0.500000"/>
	<path id="Vector" d="M0.66 30.49C2.7 30.69 9.21 28.96 13.43 31.55C11.33 33.3 11.59 34.5 12.51 35.71C14.97 38.91 17.73 34.44 14.65 31.49C17.31 29.74 20.44 30.84 22.97 32.74C23 32.77 23.04 32.79 23.08 32.79C23.13 32.8 23.17 32.8 23.21 32.79C23.25 32.78 23.29 32.77 23.33 32.74C23.36 32.72 23.39 32.68 23.41 32.65C23.43 32.61 23.45 32.57 23.45 32.53C23.46 32.48 23.45 32.44 23.44 32.4C23.43 32.36 23.41 32.32 23.38 32.29C23.35 32.26 23.32 32.23 23.28 32.21C20.45 30.07 17 29.02 14.09 31.05C11.7 29.38 8.58 29.23 5.76 29.35C4.5 29.41 3.26 29.56 2.03 29.65C1.6 29.69 0.91 29.57 0.53 29.72C-0.09 29.98 -0.09 30.42 0.66 30.49ZM14 31.98C16.24 34.02 15 37.64 13.06 35.22C12.57 34.53 11.91 33.71 14 31.98Z" fill="#FFFFFF" fill-opacity="1.000000" fill-rule="nonzero"/>
	<path id="Vector" d="M102.97 15.87C100.97 15.38 99.17 15.76 97.17 16.54C94.41 17.63 91.91 19.58 91 22.43C87.21 22.27 83.95 25.16 83.25 26.54C82.65 27.76 83.8 27.89 83.85 27.31C83.95 26.26 87.24 23.08 90.8 23.17C90.1 26.3 92.95 28.13 94.79 28.03C96.16 27.96 97.77 25.58 94.61 23.55C93.8 23.03 92.89 22.69 91.94 22.54C93.3 18.66 99.28 15.36 103.96 17.19C104.36 17.35 104.49 17.53 104.78 17.4C104.89 17.35 104.98 17.25 105.02 17.14C105.06 17.02 105.05 16.89 105 16.78C104.84 16.4 103.36 15.97 102.97 15.87ZM95.46 26.62C94.72 27.78 92.7 26.61 92.03 25.58C91.63 24.86 91.52 24.01 91.73 23.22C93.51 23.48 96.26 24.93 95.46 26.62Z" fill="#FFFFFF" fill-opacity="1.000000" fill-rule="nonzero"/>
</svg>
