<svg width="99" height="60" viewBox="0 0 99 60" fill="none" xmlns="http://www.w3.org/2000/svg">
<path d="M17.4488 44.1741L2.30031 35.4006C1.67634 35.039 1.29199 34.3724 1.29199 33.6513V15.3904L17.4488 0.453693V44.1741Z" fill="#5F8A6C"/>
<path opacity="0.8" d="M30.4206 60C18.7861 58.0405 19.5171 45.0984 19.5258 44.968L19.5253 44.7962L18.1248 43.9854L33.1363 35.5151C33.6815 35.2077 34.0187 34.6304 34.0187 34.0046V15.5913L17.9951 1.15999L19.0302 2.0374L19.8601 1.26992L36.4301 16.2073V34.1423C36.4301 35.0632 35.934 35.9128 35.132 36.3658L20.1955 44.8009V44.9903C20.1927 45.0439 20.001 48.188 21.1897 51.5133C22.7678 55.9277 25.9114 58.5608 30.5319 59.3389L30.4206 60Z" fill="#C2C3C1"/>
<path d="M17.4346 44.1741V44.1657L17.4419 44.1699L17.4346 44.1741ZM17.449 44.166V0.467106L17.9954 0.959095L17.6556 0.670876L17.449 0.898094V43.3928L18.125 43.7845L17.449 44.166ZM17.4346 0.467106V0.453693L17.4419 0.460403L17.4346 0.467106Z" fill="#5F8A6C"/>
<path d="M17.4419 44.1699L17.4346 44.1657V0.467106L17.4419 0.460407L17.449 0.467106V44.166L17.4419 44.1699Z" fill="#274730"/>
<path d="M18.1253 43.7844L17.4492 43.3927V0.898014L17.6558 0.670795L17.9956 0.959015L34.0192 15.3903V33.8036C34.0192 34.4294 33.682 35.0067 33.1369 35.3141L18.1253 43.7844Z" fill="#4A6B56"/>
<path opacity="0.8" d="M17.449 0.453697L17.2215 0.207706L0.957031 15.2443V33.2243C0.957031 34.3295 1.54561 35.3506 2.50211 35.9047L17.4469 44.5603L32.8858 35.8413C33.7931 35.3289 34.3542 34.368 34.3542 33.3259V15.2416L17.4461 -8.01086e-05L17.2215 0.207706L17.449 0.453697L17.2246 0.703053L33.6839 15.5399V33.3259C33.6839 34.1261 33.2529 34.8644 32.5562 35.2577L17.4511 43.7879L2.838 35.3245C2.08868 34.8906 1.62732 34.0902 1.62732 33.2243V15.5372L17.6765 0.699696L17.449 0.453697Z" fill="white"/>
<path opacity="0.8" d="M1.2207 15.5425L17.4477 23.1628L34.0884 15.5432L33.9489 15.2382L17.4496 22.7934L1.36314 15.2389L1.2207 15.5425Z" fill="white"/>
<path opacity="0.8" d="M17.114 0.45369V44.1741H17.4492L17.1148 44.1515C17.1143 44.1584 17.0996 44.3796 17.0996 44.765C17.1009 46.0593 17.2609 49.2026 18.7028 52.2707C20.1382 55.3375 22.9065 58.3305 28.0096 59.1838L28.1209 58.5227C23.2403 57.6945 20.6932 54.9091 19.3095 51.9853C17.932 49.0622 17.7686 46.0024 17.7699 44.765C17.7699 44.5809 17.7733 44.4372 17.7767 44.3401C17.7804 44.2432 17.7835 44.1966 17.7835 44.1963L17.7843 44.1853V22.9783V0.45369H17.114Z" fill="white"/>
<path opacity="0.8" d="M22.6789 11.4599L17.3135 13.9795L17.4559 14.2825L22.8213 11.7629" fill="white"/>
<path opacity="0.8" d="M17.4607 33.19L10.2341 29.5043L10.082 29.803L17.3083 33.4885" fill="white"/>
<path d="M45.7742 25.7254C45.9287 25.6036 46.0828 25.6036 46.2373 25.7254L46.3465 25.822L46.3591 27.4412L46.3705 29.073L46.5901 29.0482C47.2712 28.9676 47.8759 28.9138 48.4028 28.8898C48.7031 28.8739 48.8941 28.8856 48.9751 28.9264C49.081 28.9751 49.144 29.0524 49.1641 29.1578C49.1839 29.2632 49.1578 29.364 49.0852 29.4618C49.06 29.4942 48.9877 29.5211 48.866 29.5403C48.7442 29.5609 48.4112 29.592 47.8675 29.6319C47.1212 29.6974 46.6551 29.7414 46.4683 29.7663L46.3222 29.791L46.3339 30.8613C46.3423 31.3485 46.3549 31.6731 46.3705 31.8356C46.3872 31.9977 46.4158 32.1808 46.4557 32.3828C46.5615 32.8299 46.7076 33.2234 46.8945 33.5639C46.9512 33.6693 47.0478 33.8133 47.1864 33.9952C47.3237 34.1779 47.4299 34.3026 47.5021 34.3673C47.649 34.5045 47.6889 34.6553 47.6239 34.8174C47.5672 34.9392 47.4496 35 47.2712 35C47.1906 35 47.0884 34.9345 46.9668 34.8048C46.399 34.1963 46.0177 33.5027 45.8224 32.7233C45.7007 32.2698 45.6411 31.6365 45.6411 30.8248V29.8758L45.2387 29.8511C44.9629 29.8351 44.7803 29.807 44.6908 29.7663C44.5774 29.7092 44.506 29.6286 44.4779 29.5231C44.4494 29.4178 44.4758 29.3198 44.5576 29.2308L44.734 29.1343C44.8021 29.1255 44.9869 29.1343 45.2871 29.1578L45.6411 29.1943L45.6524 27.502L45.665 25.822L45.7742 25.7254Z" fill="white"/>
<path d="M50.9108 28.1833C50.9591 28.1102 51.041 28.0737 51.1544 28.0737C51.3483 28.0737 51.4617 28.1514 51.4945 28.3051C51.5113 28.4029 51.5553 28.8652 51.6289 29.6929C51.6611 30.0011 51.6855 30.1636 51.7023 30.1795L51.7443 30.1678L51.7989 30.0817C51.9291 29.8226 52.123 29.5468 52.3834 29.2554C52.8705 28.6952 53.3451 28.3479 53.8069 28.2148C54.2701 28.0804 54.6677 28.1716 55.0008 28.4877C55.1948 28.6662 55.3186 28.8426 55.3711 29.0177C55.4235 29.1919 55.3933 29.3195 55.28 29.4014C55.0616 29.5627 54.8496 29.4732 54.6468 29.134C54.5179 28.9135 54.3549 28.8165 54.1609 28.8413C53.8523 28.8736 53.4954 29.1003 53.0889 29.5228C52.8537 29.7583 52.6513 30.0175 52.4812 30.3013C52.2701 30.6259 52.123 31.0236 52.0424 31.4943C51.9614 31.9655 51.9291 32.6105 51.9446 33.4293L51.9572 34.3539L51.8481 34.4518C51.7023 34.5743 51.5478 34.5743 51.3853 34.4518L51.2875 34.3304C51.2719 34.2893 51.2551 34.2002 51.2392 34.0625C51.2223 33.8432 51.2152 33.5346 51.2152 33.1383C51.2152 32.521 51.1417 31.5879 50.9956 30.3379C50.8982 29.4296 50.8458 28.864 50.8373 28.6401C50.8297 28.4168 50.8541 28.2652 50.9108 28.1833Z" fill="white"/>
<path d="M59.7598 28.5128C59.7275 28.4721 59.6539 28.4514 59.5405 28.4514C59.3125 28.4514 59.0732 28.59 58.8225 28.8655C58.6272 29.0683 58.4349 29.3631 58.2439 29.7477C58.054 30.1336 57.9176 30.4842 57.8366 30.8005C57.7958 30.9637 57.7833 31.0529 57.8 31.0692C57.8156 31.0851 57.9155 31.0646 58.0981 31.0079C58.2809 30.9507 58.4245 30.8937 58.5307 30.837C58.6356 30.7807 58.7595 30.6875 58.901 30.5573C59.043 30.4284 59.1144 30.3423 59.1144 30.3016L59.1508 30.2293C59.1669 30.2293 59.2223 30.1479 59.3147 29.9854C59.4083 29.8229 59.4839 29.6814 59.5405 29.5596C59.6539 29.3156 59.7316 29.0944 59.7715 28.8953C59.8123 28.6975 59.8081 28.5699 59.7598 28.5128ZM59.3453 27.7582C59.4839 27.7334 59.6497 27.7473 59.845 27.8011C60.039 27.8539 60.1809 27.9278 60.2712 28.0256C60.335 28.0987 60.3888 28.1945 60.4287 28.3117C60.4694 28.43 60.4854 28.59 60.4778 28.792C60.4694 28.9952 60.4329 29.1854 60.3678 29.364C60.3196 29.5189 60.2385 29.7112 60.1242 29.9425C60.0108 30.1735 59.9172 30.3498 59.845 30.4725L59.7778 30.5636L59.7106 30.6606L59.6749 30.7152C59.6422 30.7807 59.5363 30.8937 59.3579 31.0562C59.1635 31.2594 58.9212 31.4282 58.6336 31.5613C58.3459 31.6957 58.0802 31.7625 57.8366 31.7625H57.6782L57.6539 31.9451C57.63 32.0505 57.63 32.2491 57.6539 32.5405C57.6938 32.963 57.7958 33.2738 57.9584 33.4727C58.12 33.6714 58.3551 33.7822 58.6638 33.8071C59.3054 33.8566 59.9667 33.3652 60.6478 32.3343C60.8348 32.0589 60.9544 31.8721 61.0069 31.7742C61.0594 31.6772 61.1223 31.5357 61.1959 31.3485C61.2525 31.1948 61.3071 31.0906 61.3596 31.0377C61.4122 30.9852 61.4919 30.9591 61.5968 30.9591C61.6948 30.9591 61.7754 30.9936 61.8404 31.0624C61.9055 31.1313 61.9299 31.2153 61.914 31.3119C61.8732 31.6365 61.6536 32.0904 61.2567 32.6749C61.0459 32.9835 60.9326 33.1456 60.9157 33.1621L60.8675 33.2469C60.8675 33.2716 60.7529 33.3951 60.5261 33.6176C60.2993 33.8415 60.1326 33.9939 60.0277 34.0745C59.7346 34.2853 59.4061 34.4239 59.0417 34.4885C58.8464 34.5292 58.6483 34.5292 58.4454 34.4885C57.991 34.3915 57.6455 34.1963 57.4103 33.9049C57.3453 33.8318 57.2739 33.7058 57.1975 33.5274C57.1206 33.3489 57.0618 33.1868 57.0211 33.0407C56.94 32.7072 56.9211 32.2882 56.9665 31.7805C57.0106 31.2732 57.1101 30.7853 57.2647 30.3141C57.3297 30.1026 57.4284 29.8531 57.5628 29.5651C57.6959 29.277 57.8126 29.0607 57.9092 28.9138C58.0066 28.7849 58.0562 28.7113 58.0562 28.6954C58.0562 28.6706 58.1263 28.5858 58.2683 28.4397C58.411 28.2936 58.5336 28.1793 58.6399 28.0987C58.7133 28.0344 58.8246 27.9656 58.9745 27.8912C59.1248 27.8183 59.2488 27.7742 59.3453 27.7582Z" fill="white"/>
<path d="M66.2831 28.5128C66.2508 28.4721 66.1774 28.4514 66.064 28.4514C65.8359 28.4514 65.5966 28.59 65.3459 28.8655C65.1507 29.0683 64.9583 29.3631 64.7673 29.7477C64.5775 30.1336 64.441 30.4842 64.3599 30.8005C64.3193 30.9637 64.3066 31.0529 64.3235 31.0692C64.3389 31.0851 64.4389 31.0646 64.6216 31.0079C64.8042 30.9507 64.9478 30.8937 65.0541 30.837C65.159 30.7807 65.2829 30.6875 65.4245 30.5573C65.5663 30.4284 65.6377 30.3423 65.6377 30.3016L65.6743 30.2293C65.6902 30.2293 65.7457 30.1479 65.838 29.9854C65.9317 29.8229 66.0073 29.6814 66.064 29.5596C66.1774 29.3156 66.255 29.0944 66.2949 28.8953C66.3356 28.6975 66.3314 28.5699 66.2831 28.5128ZM65.8687 27.7582C66.0073 27.7334 66.1732 27.7473 66.3684 27.8011C66.5624 27.8539 66.7043 27.9278 66.7946 28.0256C66.8585 28.0987 66.9122 28.1945 66.9521 28.3117C66.9928 28.43 67.0088 28.59 67.0012 28.792C66.9928 28.9952 66.9563 29.1854 66.8911 29.364C66.8429 29.5189 66.7618 29.7112 66.6477 29.9425C66.5343 30.1735 66.4406 30.3498 66.3684 30.4725L66.3012 30.5636L66.234 30.6606L66.1983 30.7152C66.1655 30.7807 66.0598 30.8937 65.8813 31.0562C65.6869 31.2594 65.4446 31.4282 65.157 31.5613C64.8693 31.6957 64.6035 31.7625 64.3599 31.7625H64.2017L64.1773 31.9451C64.1534 32.0505 64.1534 32.2491 64.1773 32.5405C64.2171 32.963 64.3193 33.2738 64.4817 33.4727C64.6434 33.6714 64.8786 33.7822 65.1872 33.8071C65.8289 33.8566 66.4902 33.3652 67.1713 32.3343C67.3581 32.0589 67.4778 31.8721 67.5303 31.7742C67.5828 31.6772 67.6458 31.5357 67.7192 31.3485C67.776 31.1948 67.8306 31.0906 67.883 31.0377C67.9355 30.9852 68.0153 30.9591 68.1203 30.9591C68.2181 30.9591 68.2987 30.9936 68.3639 31.0624C68.4289 31.1313 68.4533 31.2153 68.4373 31.3119C68.3965 31.6365 68.1769 32.0904 67.7802 32.6749C67.5694 32.9835 67.4559 33.1456 67.4392 33.1621L67.3909 33.2469C67.3909 33.2716 67.2762 33.3951 67.0495 33.6176C66.8228 33.8415 66.656 33.9939 66.551 34.0745C66.258 34.2853 65.9296 34.4239 65.5651 34.4885C65.3698 34.5292 65.1716 34.5292 64.9689 34.4885C64.5145 34.3915 64.1689 34.1963 63.9338 33.9049C63.8686 33.8318 63.7973 33.7058 63.7208 33.5274C63.644 33.3489 63.5852 33.1868 63.5445 33.0407C63.4635 32.7072 63.4446 32.2882 63.4899 31.7805C63.534 31.2732 63.6335 30.7853 63.788 30.3141C63.8532 30.1026 63.9518 29.8531 64.0862 29.5651C64.2193 29.277 64.336 29.0607 64.4326 28.9138C64.5301 28.7849 64.5795 28.7113 64.5795 28.6954C64.5795 28.6706 64.6497 28.5858 64.7916 28.4397C64.9344 28.2936 65.057 28.1793 65.1632 28.0987C65.2368 28.0344 65.348 27.9656 65.4979 27.8912C65.6483 27.8183 65.7721 27.7742 65.8687 27.7582Z" fill="white"/>
<path d="M70.4203 25.0323C70.5745 24.9676 70.7088 25 70.8222 25.1289C70.8621 25.1784 70.8873 25.2632 70.8948 25.3846C70.9033 25.5064 70.9075 25.9124 70.9075 26.6028C70.9075 27.5346 70.8831 28.3181 70.834 28.9514C70.7857 29.5598 70.7613 29.9407 70.7613 30.0952V30.2652L70.8222 30.107C70.9201 29.8878 71.0166 29.6816 71.1141 29.4867C71.4953 28.7162 71.8691 28.2249 72.2343 28.0141C72.3561 27.941 72.4955 27.9024 72.6543 27.8982C72.8117 27.8936 72.944 27.9251 73.0498 27.9894C73.2925 28.1443 73.4445 28.4474 73.5055 28.9023C73.5663 29.3565 73.5685 30.1846 73.5117 31.3851C73.4551 32.5449 73.4677 33.3243 73.5487 33.7225C73.5886 33.8921 73.6095 34.0223 73.6095 34.1113C73.6095 34.2737 73.5265 34.3737 73.3597 34.4102C73.1939 34.4455 73.07 34.3917 72.989 34.2456C72.9398 34.1642 72.8958 34.0265 72.8546 33.832C72.7572 33.402 72.753 32.3506 72.842 30.6802C72.9071 29.2999 72.842 28.6108 72.648 28.6108C72.5997 28.6108 72.5094 28.675 72.3801 28.8052C72.2499 28.9342 72.1449 29.0644 72.0631 29.1944C71.8447 29.5426 71.6276 29.9931 71.4122 30.5458C71.1972 31.0971 71.0166 31.6573 70.8705 32.225C70.7731 32.5987 70.711 32.8998 70.6828 33.132C70.6534 33.3634 70.6395 33.6611 70.6395 34.0265C70.6395 34.4812 70.6198 34.7402 70.5786 34.805L70.4569 34.9338L70.2742 34.9636C70.1768 34.9636 70.1063 34.9393 70.0614 34.8906C70.0172 34.8424 69.974 34.7563 69.9332 34.6349C69.9017 34.5294 69.8828 34.3531 69.8786 34.1062C69.8744 33.8589 69.8892 33.633 69.9215 33.4297C69.9458 33.2437 69.9698 32.6634 69.9942 31.6896C70.0264 30.6672 70.0634 29.8554 70.1042 29.2558C70.1608 28.615 70.1978 27.7832 70.2134 26.7607C70.2301 25.7533 70.2586 25.2108 70.2986 25.1289L70.4203 25.0323Z" fill="white"/>
<path d="M77.9543 28.2207C77.7675 28.1401 77.5827 28.1271 77.4014 28.1837C77.2187 28.2408 77.0578 28.3593 76.9205 28.5364C76.6119 28.9589 76.3725 29.5447 76.2024 30.2963C76.0312 31.0467 75.9828 31.7261 76.0555 32.3346C76.1122 32.7398 76.2381 33.0568 76.4334 33.2837C76.6275 33.5117 76.8751 33.6245 77.1754 33.6245C77.4022 33.6245 77.6113 33.5192 77.8023 33.3084C77.9934 33.0976 78.1496 32.7965 78.2714 32.4077C78.4574 31.8067 78.5372 31.1047 78.5087 30.3018C78.4792 29.4986 78.3567 28.9266 78.1371 28.586L78.1005 28.3916L78.0825 28.3001L77.9543 28.2207ZM77.4798 27.4539C77.6499 27.4292 77.8591 27.4594 78.1067 27.5455C78.3545 27.6304 78.5393 27.7378 78.6611 27.868C78.7417 27.957 78.8101 28.0692 78.8676 28.2022C78.9244 28.3366 78.9529 28.4558 78.9529 28.5613C78.9529 28.6838 78.9726 28.801 79.0138 28.914C79.1112 29.1902 79.1733 29.6244 79.2015 30.2165C79.2301 30.8091 79.2077 31.3121 79.1356 31.7261C78.981 32.6924 78.6892 33.3974 78.2588 33.8437C77.8212 34.2897 77.3014 34.4241 76.7009 34.2456C76.3033 34.1402 75.9828 33.8941 75.7393 33.5095C75.4957 33.1236 75.3585 32.6504 75.3257 32.0906C75.2933 31.5065 75.3375 30.9434 75.4592 30.3996C75.581 29.8394 75.7763 29.2516 76.0438 28.6344C76.0836 28.5364 76.155 28.4139 76.257 28.2635C76.3579 28.1132 76.4447 27.9982 76.5183 27.9163C76.7694 27.6647 77.0906 27.511 77.4798 27.4539Z" fill="white"/>
<path d="M84.7466 27.4293L84.9411 27.3562L85.172 27.4242L85.3304 27.5758C85.3714 27.6564 85.3934 27.9474 85.3975 28.4463C85.4017 28.9451 85.387 29.4255 85.3546 29.8879C85.3064 30.4564 85.282 31.138 85.282 31.9336L85.2694 33.1871L85.3799 33.6007C85.4437 33.8362 85.4743 34.0038 85.471 34.1063C85.4668 34.207 85.4282 34.2823 85.3546 34.331C85.2497 34.3964 85.1456 34.4103 85.0447 34.3737C84.9431 34.3372 84.8642 34.2532 84.8075 34.1243C84.6689 33.7825 84.5925 33.1946 84.5757 32.3594L84.5514 31.397L84.4057 31.7876C84.3813 31.8442 84.312 32.0185 84.1986 32.3108C84.1748 32.4002 84.0928 32.5744 83.9551 32.8331C83.8178 33.0934 83.7157 33.2761 83.6507 33.3815C83.5785 33.4869 83.4701 33.6171 83.3286 33.7708C83.1866 33.9253 83.0712 34.0353 82.9822 34.0995C82.7218 34.2781 82.4581 34.3351 82.1907 34.2696C81.7526 34.1801 81.4356 33.8321 81.2416 33.2236C81.1514 32.9474 81.0913 32.5035 81.0589 31.8904C81.0263 31.2777 81.0305 30.6919 81.0703 30.1318C81.103 29.7182 81.1228 29.1903 81.1312 28.5495C81.1479 28.0948 81.1598 27.8206 81.1682 27.7269L81.2416 27.5153C81.3054 27.4414 81.3894 27.4057 81.4902 27.4057C81.5922 27.4057 81.675 27.4456 81.74 27.5271L81.8379 27.6366L81.8253 28.6462C81.8094 29.402 81.7841 30.0062 81.7526 30.4597C81.7119 31.2067 81.7296 31.8656 81.8072 32.4375C81.8841 33.0095 81.9995 33.3685 82.1537 33.515C82.3565 33.686 82.624 33.5688 82.9569 33.1623C83.1522 32.9192 83.3693 32.5055 83.6087 31.9206C83.8481 31.3369 84.0601 30.6961 84.2469 29.9974C84.4338 29.2911 84.5471 28.8191 84.5883 28.5798C84.629 28.3409 84.6366 28.1402 84.6123 27.9776C84.5883 27.8227 84.5841 27.7102 84.6009 27.6366L84.7466 27.4293Z" fill="white"/>
<path d="M89.3463 27.6362C89.7842 27.4901 90.2344 27.4947 90.6975 27.6485C91.3304 27.8676 91.7355 28.2728 91.9141 28.8653C91.9791 29.0845 91.9707 29.2424 91.8901 29.3403C91.7767 29.4863 91.6381 29.5145 91.4765 29.4251C91.403 29.3843 91.3304 29.2672 91.2569 29.0728C91.1352 28.7477 90.9244 28.5084 90.6241 28.3547L90.3805 28.2686C90.3155 28.2611 90.1946 28.2569 90.016 28.2569C89.7556 28.2569 89.5533 28.2934 89.4071 28.3664C89.172 28.4803 89.0011 28.634 88.8961 28.8284C88.7899 29.0232 88.7617 29.2306 88.8108 29.4498C88.8352 29.5628 88.8793 29.6564 88.9445 29.7295C89.0747 29.8681 89.3547 29.9811 89.7842 30.0701C90.1411 30.1432 90.4255 30.2292 90.6367 30.3262C90.8475 30.424 91.0461 30.5655 91.233 30.7516C91.6306 31.1497 91.8293 31.6569 91.8293 32.2729C91.8293 32.7038 91.7313 33.1047 91.5374 33.4789C91.4555 33.6326 91.3954 33.7401 91.3547 33.8001C91.3136 33.8614 91.2246 33.9614 91.0868 34.0991C90.7131 34.4968 90.2995 34.6786 89.8452 34.6462C89.2371 34.598 88.7176 34.2776 88.2872 33.6855C88.1823 33.523 88.1297 33.4314 88.1297 33.4113C88.1297 33.3908 88.1004 33.3285 88.0437 33.2232C87.9543 33.0283 87.9059 32.789 87.8975 32.5051C87.8892 32.2213 87.9303 31.9857 88.0193 31.7988C88.0437 31.7506 88.0887 31.6481 88.1537 31.4944L88.3112 31.2634L88.5064 31.1421C88.726 31.0849 88.8718 31.129 88.9445 31.2752C89.0251 31.4213 89.0053 31.5633 88.8835 31.701C88.729 31.8803 88.6324 32.0945 88.5917 32.346C88.5833 32.4513 88.598 32.5963 88.6346 32.778C88.6702 32.9608 88.7176 33.0846 88.7744 33.1501L88.8478 33.2714C88.8478 33.3362 88.9507 33.4499 89.1573 33.612C89.3644 33.7745 89.5289 33.8757 89.6507 33.9164C89.8452 33.9735 90.0098 33.9811 90.1433 33.9413C90.2777 33.9005 90.4255 33.7951 90.5884 33.6241C90.7907 33.4218 90.9453 33.1577 91.0502 32.8326C91.1637 32.4934 91.1784 32.1621 91.0931 31.8416C91.007 31.5204 90.8391 31.271 90.5884 31.0926C90.4171 30.9712 90.0602 30.8452 89.5164 30.715C89.0221 30.5937 88.6681 30.4282 88.4581 30.2161C88.3196 30.0701 88.2264 29.9328 88.1781 29.8026C88.1297 29.6724 88.1046 29.4905 88.1046 29.2554C88.1046 29.0682 88.1109 28.9426 88.1235 28.8779C88.1348 28.8124 88.1697 28.7234 88.2264 28.6105C88.4456 28.1397 88.8185 27.8147 89.3463 27.6362Z" fill="white"/>
<path d="M96.3331 28.5128C96.3003 28.4721 96.2269 28.4514 96.1135 28.4514C95.8859 28.4514 95.6465 28.59 95.3954 28.8655C95.2002 29.0683 95.0083 29.3631 94.8173 29.7477C94.627 30.1336 94.4905 30.4842 94.4098 30.8005C94.3688 30.9637 94.3561 31.0529 94.373 31.0692C94.3889 31.0851 94.4884 31.0646 94.6711 31.0079C94.8537 30.9507 94.9977 30.8937 95.1036 30.837C95.2085 30.7807 95.3324 30.6875 95.4744 30.5573C95.6159 30.4284 95.6872 30.3423 95.6872 30.3016L95.7242 30.2293C95.7398 30.2293 95.7956 30.1479 95.8879 29.9854C95.9812 29.8229 96.0568 29.6814 96.1135 29.5596C96.2269 29.3156 96.3045 29.0944 96.3445 28.8953C96.3855 28.6975 96.3813 28.5699 96.3331 28.5128ZM95.9182 27.7582C96.0568 27.7334 96.2227 27.7473 96.4179 27.8011C96.6124 27.8539 96.7538 27.9278 96.8441 28.0256C96.9084 28.0987 96.9617 28.1945 97.0016 28.3117C97.0428 28.43 97.0583 28.59 97.0512 28.792C97.0428 28.9952 97.0058 29.1854 96.9407 29.364C96.8924 29.5189 96.8118 29.7112 96.6972 29.9425C96.5838 30.1735 96.4906 30.3498 96.4179 30.4725L96.3507 30.5636L96.2835 30.6606L96.2478 30.7152C96.2155 30.7807 96.1093 30.8937 95.9308 31.0562C95.7368 31.2594 95.4941 31.4282 95.2065 31.5613C94.9188 31.6957 94.6534 31.7625 94.4098 31.7625H94.2512L94.2272 31.9451C94.2029 32.0505 94.2029 32.2491 94.2272 32.5405C94.2671 32.963 94.3688 33.2738 94.5316 33.4727C94.6933 33.6714 94.9285 33.7822 95.2371 33.8071C95.8784 33.8566 96.5397 33.3652 97.2212 32.3343C97.4081 32.0589 97.5277 31.8721 97.5803 31.7742C97.6327 31.6772 97.6957 31.5357 97.7691 31.3485C97.8259 31.1948 97.8805 31.0906 97.933 31.0377C97.9854 30.9852 98.0652 30.9591 98.1702 30.9591C98.2676 30.9591 98.3487 30.9936 98.4138 31.0624C98.4788 31.1313 98.5028 31.2153 98.4872 31.3119C98.4461 31.6365 98.2269 32.0904 97.8301 32.6749C97.6189 32.9835 97.5055 33.1456 97.4887 33.1621L97.4404 33.2469C97.4404 33.2716 97.3261 33.3951 97.0994 33.6176C96.8727 33.8415 96.7056 33.9939 96.6005 34.0745C96.3079 34.2853 95.9791 34.4239 95.615 34.4885C95.4198 34.5292 95.2211 34.5292 95.0188 34.4885C94.564 34.3915 94.2188 34.1963 93.9837 33.9049C93.9186 33.8318 93.8472 33.7058 93.7703 33.5274C93.6939 33.3489 93.6351 33.1868 93.594 33.0407C93.5134 32.7072 93.4945 32.2882 93.5394 31.7805C93.5835 31.2732 93.6835 30.7853 93.8375 30.3141C93.9027 30.1026 94.0014 29.8531 94.1357 29.5651C94.2692 29.277 94.3855 29.0607 94.4821 28.9138C94.5799 28.7849 94.6291 28.7113 94.6291 28.6954C94.6291 28.6706 94.6997 28.5858 94.8411 28.4397C94.9839 28.2936 95.107 28.1793 95.2127 28.0987C95.2863 28.0344 95.3975 27.9656 95.5478 27.8912C95.6978 27.8183 95.8216 27.7742 95.9182 27.7582Z" fill="white"/>
</svg>
