<svg width="16.001953" height="16.001953" viewBox="0 0 16.002 16.002" fill="none" xmlns="http://www.w3.org/2000/svg" xmlns:xlink="http://www.w3.org/1999/xlink">
	<desc>
			Created with Pixso.
	</desc>
	<defs>
		<clipPath id="clip1_49171">
			<rect id="next 2" rx="0.000000" width="15.970760" height="15.970760" transform="matrix(-1 0 0 1 16.0176 0.0156269)" fill="white" fill-opacity="0"/>
		</clipPath>
	</defs>
	<g opacity="0.800000">
		<rect id="next 2" rx="0.000000" width="15.970760" height="15.970760" transform="matrix(-1 0 0 1 16.0176 0.0156269)" fill="#FFFFFF" fill-opacity="0"/>
		<g clip-path="url(#clip1_49171)">
			<path id="Vector 1 (Stroke)" d="M4.49 9.97C5.46 11.25 6 12.73 6.2 13.72L4.99 14C4.81 13.16 4.34 11.88 3.51 10.78C2.69 9.69 1.54 8.84 0 8.73L0 7.43C1.08 7.43 3.92 6.46 4.99 2L6.2 2.31C5.59 4.85 4.45 6.46 3.26 7.43L15 7.43L15 8.73L3.3 8.73C3.75 9.1 4.15 9.53 4.49 9.97Z" fill="#50735F" fill-opacity="1.000000" fill-rule="evenodd"/>
		</g>
	</g>
</svg>
