<svg width="129.000000" height="69.000000" viewBox="0 0 129 69" fill="none" xmlns="http://www.w3.org/2000/svg" xmlns:xlink="http://www.w3.org/1999/xlink">
	<desc>
			Created with Pixso.
	</desc>
	<defs>
		<clipPath id="clip1_49421">
			<rect id="treehouse_logo_def-01 1" rx="0.000000" width="128.000000" height="68.000000" transform="translate(0.500000 0.500000)" fill="white" fill-opacity="0"/>
		</clipPath>
	</defs>
	<rect id="treehouse_logo_def-01 1" rx="0.000000" width="128.000000" height="68.000000" transform="translate(0.500000 0.500000)" fill="#FFFFFF" fill-opacity="0"/>
	<g clip-path="url(#clip1_49421)">
		<path id="path12" d="M18.44 49.17L3.29 40.4C2.67 40.03 2.29 39.37 2.29 38.65L2.29 20.39L18.44 5.45L18.44 49.17Z" fill="#5F8A6C" fill-opacity="1.000000" fill-rule="nonzero"/>
		<g opacity="0.800000">
			<path id="path14" d="M31.42 65C19.78 63.04 20.51 50.09 20.52 49.96L20.52 49.79L19.12 48.98L34.13 40.51C34.68 40.2 35.01 39.63 35.01 39L35.01 20.59L18.99 6.15L20.03 7.03L20.86 6.27L37.43 21.2L37.43 39.14C37.43 40.06 36.93 40.91 36.13 41.36L21.19 49.8L21.19 49.99C21.19 50.04 21 53.18 22.19 56.51C23.76 60.92 26.91 63.56 31.53 64.33L31.42 65Z" fill="#C2C3C1" fill-opacity="1.000000" fill-rule="nonzero"/>
		</g>
		<path id="path16" d="M18.43 49.17L18.43 49.16L18.44 49.16L18.43 49.17ZM18.44 49.16L18.44 5.46L18.99 5.95L18.65 5.67L18.44 5.89L18.44 48.39L19.12 48.78L18.44 49.16ZM18.43 5.46L18.43 5.45L18.44 5.46L18.43 5.46Z" fill="#5F8A6C" fill-opacity="1.000000" fill-rule="nonzero"/>
		<path id="path18" d="M18.44 49.16L18.43 49.16L18.43 5.46L18.44 5.46L18.44 5.46L18.44 49.16L18.44 49.16Z" fill="#274730" fill-opacity="1.000000" fill-rule="nonzero"/>
		<path id="path20" d="M19.12 48.78L18.44 48.39L18.44 5.89L18.65 5.67L18.99 5.95L35.01 20.39L35.01 38.8C35.01 39.42 34.68 40 34.13 40.31L19.12 48.78Z" fill="#4A6B56" fill-opacity="1.000000" fill-rule="nonzero"/>
		<g opacity="0.800000">
			<path id="path22" d="M18.44 5.45L18.22 5.2L1.95 20.24L1.95 38.22C1.95 39.32 2.54 40.35 3.5 40.9L18.44 49.56L33.88 40.84C34.79 40.32 35.35 39.36 35.35 38.32L35.35 20.24L18.44 4.99L18.22 5.2L18.44 5.45L18.22 5.7L34.68 20.53L34.68 38.32C34.68 39.12 34.25 39.86 33.55 40.25L18.45 48.78L3.83 40.32C3.08 39.89 2.62 39.08 2.62 38.22L2.62 20.53L18.67 5.69L18.44 5.45Z" fill="#FFFFFF" fill-opacity="1.000000" fill-rule="nonzero"/>
		</g>
		<g opacity="0.800000">
			<path id="path24" d="M2.22 20.54L18.44 28.16L35.08 20.54L34.94 20.23L18.44 27.79L2.36 20.23L2.22 20.54Z" fill="#FFFFFF" fill-opacity="1.000000" fill-rule="nonzero"/>
		</g>
		<g opacity="0.800000">
			<path id="path26" d="M18.11 5.45L18.11 49.17L18.44 49.17L18.11 49.15C18.11 49.15 18.09 49.37 18.09 49.76C18.1 51.05 18.26 54.2 19.7 57.27C21.13 60.33 23.9 63.33 29 64.18L29.12 63.52C24.24 62.69 21.69 59.9 20.3 56.98C18.93 54.06 18.76 51 18.76 49.76C18.76 49.58 18.77 49.43 18.77 49.33C18.78 49.24 18.78 49.19 18.78 49.19L18.78 49.18L18.78 27.97L18.78 5.45L18.11 5.45Z" fill="#FFFFFF" fill-opacity="1.000000" fill-rule="nonzero"/>
		</g>
		<g opacity="0.800000">
			<path id="path28" d="M23.67 16.45L18.31 18.97L18.45 19.28L23.82 16.76L23.67 16.45Z" fill="#FFFFFF" fill-opacity="1.000000" fill-rule="nonzero"/>
		</g>
		<g opacity="0.800000">
			<path id="path30" d="M18.46 38.18L11.23 34.5L11.08 34.8L18.3 38.48L18.46 38.18Z" fill="#FFFFFF" fill-opacity="1.000000" fill-rule="nonzero"/>
		</g>
		<path id="path32" d="M46.77 30.72C46.92 30.6 47.08 30.6 47.23 30.72L47.34 30.82L47.35 32.44L47.37 34.07L47.58 34.04C48.27 33.96 48.87 33.91 49.4 33.88C49.7 33.87 49.89 33.88 49.97 33.92C50.08 33.97 50.14 34.05 50.16 34.15C50.18 34.26 50.15 34.36 50.08 34.46C50.06 34.49 49.98 34.52 49.86 34.54C49.74 34.56 49.41 34.59 48.86 34.63C48.12 34.69 47.65 34.74 47.46 34.76L47.32 34.79L47.33 35.86C47.34 36.34 47.35 36.67 47.37 36.83C47.38 36.99 47.41 37.18 47.45 37.38C47.56 37.82 47.7 38.22 47.89 38.56C47.95 38.66 48.04 38.81 48.18 38.99C48.32 39.17 48.42 39.3 48.5 39.36C48.64 39.5 48.68 39.65 48.62 39.81C48.56 39.93 48.44 40 48.27 40C48.19 40 48.08 39.93 47.96 39.8C47.39 39.19 47.01 38.5 46.82 37.72C46.7 37.26 46.64 36.63 46.64 35.82L46.64 34.87L46.23 34.85C45.96 34.83 45.77 34.8 45.69 34.76C45.57 34.7 45.5 34.62 45.47 34.52C45.44 34.41 45.47 34.31 45.55 34.23L45.73 34.13C45.8 34.12 45.98 34.13 46.28 34.15L46.64 34.19L46.65 32.5L46.66 30.82L46.77 30.72Z" fill="#FFFFFF" fill-opacity="1.000000" fill-rule="nonzero"/>
		<path id="path34" d="M51.91 33.18C51.95 33.11 52.04 33.07 52.15 33.07C52.34 33.07 52.46 33.15 52.49 33.3C52.51 33.4 52.55 33.86 52.62 34.69C52.66 35 52.68 35.16 52.7 35.17L52.74 35.16L52.79 35.08C52.92 34.82 53.12 34.54 53.38 34.25C53.87 33.69 54.34 33.34 54.8 33.21C55.26 33.08 55.66 33.17 56 33.48C56.19 33.66 56.31 33.84 56.37 34.01C56.42 34.19 56.39 34.31 56.27 34.4C56.06 34.56 55.84 34.47 55.64 34.13C55.51 33.91 55.35 33.81 55.16 33.84C54.85 33.87 54.49 34.1 54.08 34.52C53.85 34.75 53.65 35.01 53.48 35.3C53.26 35.62 53.12 36.02 53.04 36.49C52.96 36.96 52.92 37.61 52.94 38.42L52.95 39.35L52.84 39.45C52.7 39.57 52.54 39.57 52.38 39.45L52.28 39.33C52.27 39.28 52.25 39.2 52.23 39.06C52.22 38.84 52.21 38.53 52.21 38.13C52.21 37.52 52.14 36.58 51.99 35.33C51.89 34.42 51.84 33.86 51.83 33.64C51.83 33.41 51.85 33.26 51.91 33.18Z" fill="#FFFFFF" fill-opacity="1.000000" fill-rule="nonzero"/>
		<path id="path36" d="M60.75 33.51C60.72 33.47 60.65 33.45 60.53 33.45C60.31 33.45 60.07 33.59 59.82 33.86C59.62 34.06 59.43 34.36 59.24 34.74C59.05 35.13 58.91 35.48 58.83 35.8C58.79 35.96 58.78 36.05 58.79 36.06C58.81 36.08 58.91 36.06 59.09 36C59.27 35.95 59.42 35.89 59.52 35.83C59.63 35.78 59.75 35.68 59.9 35.55C60.04 35.42 60.11 35.34 60.11 35.3L60.15 35.22C60.16 35.22 60.22 35.14 60.31 34.98C60.4 34.82 60.48 34.68 60.53 34.55C60.65 34.31 60.73 34.09 60.77 33.89C60.81 33.69 60.8 33.56 60.75 33.51ZM60.34 32.75C60.48 32.73 60.64 32.74 60.84 32.8C61.03 32.85 61.17 32.92 61.26 33.02C61.33 33.09 61.38 33.19 61.42 33.31C61.46 33.42 61.48 33.59 61.47 33.79C61.46 33.99 61.43 34.18 61.36 34.36C61.31 34.51 61.23 34.71 61.12 34.94C61 35.17 60.91 35.34 60.84 35.47L60.77 35.56L60.7 35.66L60.67 35.71C60.64 35.78 60.53 35.89 60.35 36.05C60.16 36.25 59.91 36.42 59.63 36.56C59.34 36.69 59.08 36.76 58.83 36.76L58.67 36.76L58.65 36.94C58.62 37.05 58.62 37.24 58.65 37.54C58.69 37.96 58.79 38.27 58.95 38.47C59.11 38.67 59.35 38.78 59.66 38.8C60.3 38.85 60.96 38.36 61.64 37.33C61.83 37.05 61.95 36.87 62 36.77C62.05 36.67 62.12 36.53 62.19 36.34C62.25 36.19 62.3 36.09 62.35 36.03C62.41 35.98 62.49 35.95 62.59 35.95C62.69 35.95 62.77 35.99 62.83 36.06C62.9 36.13 62.92 36.21 62.91 36.31C62.87 36.63 62.65 37.09 62.25 37.67C62.04 37.98 61.93 38.14 61.91 38.16L61.86 38.24C61.86 38.27 61.75 38.39 61.52 38.61C61.29 38.84 61.13 38.99 61.02 39.07C60.73 39.28 60.4 39.42 60.04 39.48C59.84 39.52 59.64 39.52 59.44 39.48C58.99 39.39 58.64 39.19 58.41 38.9C58.34 38.83 58.27 38.7 58.19 38.52C58.11 38.34 58.06 38.18 58.01 38.04C57.93 37.7 57.91 37.28 57.96 36.78C58 36.27 58.1 35.78 58.26 35.31C58.32 35.1 58.42 34.85 58.56 34.56C58.69 34.27 58.81 34.06 58.9 33.91C59 33.78 59.05 33.71 59.05 33.69C59.05 33.67 59.12 33.58 59.26 33.43C59.41 33.29 59.53 33.17 59.63 33.09C59.71 33.03 59.82 32.96 59.97 32.89C60.12 32.81 60.24 32.77 60.34 32.75Z" fill="#FFFFFF" fill-opacity="1.000000" fill-rule="nonzero"/>
		<path id="path38" d="M67.28 33.51C67.25 33.47 67.17 33.45 67.06 33.45C66.83 33.45 66.59 33.59 66.34 33.86C66.15 34.06 65.95 34.36 65.76 34.74C65.57 35.13 65.43 35.48 65.35 35.8C65.31 35.96 65.3 36.05 65.32 36.06C65.33 36.08 65.43 36.06 65.62 36C65.8 35.95 65.94 35.89 66.05 35.83C66.15 35.78 66.28 35.68 66.42 35.55C66.56 35.42 66.63 35.34 66.63 35.3L66.67 35.22C66.68 35.22 66.74 35.14 66.83 34.98C66.93 34.82 67 34.68 67.06 34.55C67.17 34.31 67.25 34.09 67.29 33.89C67.33 33.69 67.33 33.56 67.28 33.51ZM66.86 32.75C67 32.73 67.17 32.74 67.36 32.8C67.56 32.85 67.7 32.92 67.79 33.02C67.85 33.09 67.91 33.19 67.95 33.31C67.99 33.42 68 33.59 68 33.79C67.99 33.99 67.95 34.18 67.89 34.36C67.84 34.51 67.76 34.71 67.64 34.94C67.53 35.17 67.43 35.34 67.36 35.47L67.3 35.56L67.23 35.66L67.19 35.71C67.16 35.78 67.05 35.89 66.88 36.05C66.68 36.25 66.44 36.42 66.15 36.56C65.86 36.69 65.6 36.76 65.35 36.76L65.2 36.76L65.17 36.94C65.15 37.05 65.15 37.24 65.17 37.54C65.21 37.96 65.31 38.27 65.48 38.47C65.64 38.67 65.87 38.78 66.18 38.8C66.82 38.85 67.48 38.36 68.16 37.33C68.35 37.05 68.47 36.87 68.52 36.77C68.58 36.67 68.64 36.53 68.71 36.34C68.77 36.19 68.83 36.09 68.88 36.03C68.93 35.98 69.01 35.95 69.11 35.95C69.21 35.95 69.29 35.99 69.36 36.06C69.42 36.13 69.45 36.21 69.43 36.31C69.39 36.63 69.17 37.09 68.77 37.67C68.56 37.98 68.45 38.14 68.43 38.16L68.39 38.24C68.39 38.27 68.27 38.39 68.04 38.61C67.82 38.84 67.65 38.99 67.55 39.07C67.25 39.28 66.92 39.42 66.56 39.48C66.36 39.52 66.16 39.52 65.96 39.48C65.51 39.39 65.16 39.19 64.93 38.9C64.86 38.83 64.79 38.7 64.72 38.52C64.64 38.34 64.58 38.18 64.54 38.04C64.46 37.7 64.44 37.28 64.48 36.78C64.53 36.27 64.63 35.78 64.78 35.31C64.85 35.1 64.95 34.85 65.08 34.56C65.21 34.27 65.33 34.06 65.43 33.91C65.52 33.78 65.57 33.71 65.57 33.69C65.57 33.67 65.64 33.58 65.79 33.43C65.93 33.29 66.05 33.17 66.16 33.09C66.23 33.03 66.34 32.96 66.49 32.89C66.64 32.81 66.77 32.77 66.86 32.75Z" fill="#FFFFFF" fill-opacity="1.000000" fill-rule="nonzero"/>
		<path id="path40" d="M71.41 30.03C71.57 29.96 71.7 30 71.82 30.12C71.86 30.17 71.88 30.26 71.89 30.38C71.9 30.5 71.9 30.91 71.9 31.6C71.9 32.53 71.88 33.31 71.83 33.95C71.78 34.56 71.75 34.94 71.75 35.09L71.75 35.26L71.82 35.1C71.91 34.88 72.01 34.68 72.11 34.48C72.49 33.71 72.86 33.22 73.23 33.01C73.35 32.94 73.49 32.9 73.65 32.89C73.81 32.89 73.94 32.92 74.04 32.98C74.29 33.14 74.44 33.44 74.5 33.9C74.56 34.35 74.56 35.18 74.51 36.38C74.45 37.54 74.46 38.32 74.54 38.72C74.58 38.89 74.6 39.02 74.6 39.11C74.6 39.27 74.52 39.37 74.35 39.41C74.19 39.44 74.06 39.39 73.98 39.24C73.93 39.16 73.89 39.02 73.85 38.83C73.75 38.4 73.75 37.35 73.84 35.68C73.9 34.3 73.84 33.61 73.64 33.61C73.59 33.61 73.5 33.67 73.37 33.8C73.24 33.93 73.14 34.06 73.06 34.19C72.84 34.54 72.62 34.99 72.41 35.54C72.19 36.09 72.01 36.65 71.86 37.22C71.77 37.59 71.71 37.89 71.68 38.13C71.65 38.36 71.63 38.66 71.63 39.02C71.63 39.48 71.61 39.74 71.57 39.8L71.45 39.93L71.27 39.96C71.17 39.96 71.1 39.93 71.06 39.89C71.01 39.84 70.97 39.75 70.93 39.63C70.9 39.52 70.88 39.35 70.87 39.1C70.87 38.85 70.88 38.63 70.91 38.42C70.94 38.24 70.96 37.66 70.99 36.68C71.02 35.66 71.06 34.85 71.1 34.25C71.16 33.61 71.19 32.78 71.21 31.76C71.22 30.75 71.25 30.21 71.29 30.12L71.41 30.03Z" fill="#FFFFFF" fill-opacity="1.000000" fill-rule="nonzero"/>
		<path id="path42" d="M78.95 33.22C78.76 33.13 78.58 33.12 78.4 33.18C78.21 33.24 78.05 33.35 77.91 33.53C77.61 33.95 77.37 34.54 77.2 35.29C77.02 36.04 76.98 36.72 77.05 37.33C77.11 37.73 77.23 38.05 77.43 38.28C77.62 38.51 77.87 38.62 78.17 38.62C78.4 38.62 78.6 38.51 78.8 38.3C78.99 38.09 79.14 37.79 79.26 37.4C79.45 36.8 79.53 36.1 79.5 35.3C79.47 34.49 79.35 33.92 79.13 33.58L79.09 33.39L79.08 33.29L78.95 33.22ZM78.47 32.45C78.64 32.42 78.85 32.45 79.1 32.54C79.35 32.63 79.53 32.73 79.66 32.86C79.74 32.95 79.8 33.06 79.86 33.2C79.92 33.33 79.95 33.45 79.95 33.56C79.95 33.68 79.97 33.8 80.01 33.91C80.1 34.18 80.17 34.62 80.2 35.21C80.22 35.8 80.2 36.31 80.13 36.72C79.98 37.69 79.68 38.39 79.25 38.84C78.82 39.28 78.3 39.42 77.69 39.24C77.3 39.13 76.98 38.89 76.73 38.5C76.49 38.12 76.35 37.65 76.32 37.09C76.29 36.5 76.33 35.94 76.45 35.39C76.58 34.83 76.77 34.25 77.04 33.63C77.08 33.53 77.15 33.41 77.25 33.26C77.35 33.11 77.44 32.99 77.51 32.91C77.76 32.66 78.08 32.51 78.47 32.45Z" fill="#FFFFFF" fill-opacity="1.000000" fill-rule="nonzero"/>
		<path id="path44" d="M85.74 32.42L85.94 32.35L86.17 32.42L86.33 32.57C86.37 32.65 86.39 32.94 86.39 33.44C86.4 33.94 86.38 34.42 86.35 34.88C86.3 35.45 86.28 36.13 86.28 36.93L86.26 38.18L86.38 38.6C86.44 38.83 86.47 39 86.47 39.1C86.46 39.2 86.42 39.28 86.35 39.33C86.25 39.39 86.14 39.41 86.04 39.37C85.94 39.33 85.86 39.25 85.8 39.12C85.66 38.78 85.59 38.19 85.57 37.35L85.55 36.39L85.4 36.78C85.38 36.84 85.31 37.01 85.19 37.31C85.17 37.4 85.09 37.57 84.95 37.83C84.81 38.09 84.71 38.27 84.65 38.38C84.57 38.48 84.47 38.61 84.32 38.77C84.18 38.92 84.07 39.03 83.98 39.09C83.72 39.27 83.45 39.33 83.19 39.26C82.75 39.18 82.43 38.83 82.24 38.22C82.15 37.94 82.09 37.5 82.05 36.89C82.02 36.27 82.03 35.69 82.07 35.13C82.1 34.71 82.12 34.19 82.13 33.54C82.14 33.09 82.16 32.82 82.16 32.72L82.24 32.51C82.3 32.44 82.38 32.4 82.49 32.4C82.59 32.4 82.67 32.44 82.74 32.52L82.83 32.63L82.82 33.64C82.8 34.4 82.78 35 82.75 35.45C82.71 36.2 82.73 36.86 82.8 37.43C82.88 38 83 38.36 83.15 38.51C83.35 38.68 83.62 38.56 83.95 38.16C84.15 37.91 84.36 37.5 84.6 36.92C84.84 36.33 85.06 35.69 85.24 34.99C85.43 34.29 85.54 33.81 85.58 33.57C85.62 33.34 85.63 33.14 85.61 32.97C85.58 32.82 85.58 32.71 85.6 32.63L85.74 32.42Z" fill="#FFFFFF" fill-opacity="1.000000" fill-rule="nonzero"/>
		<path id="path46" d="M90.34 32.63C90.78 32.49 91.23 32.49 91.69 32.64C92.33 32.86 92.73 33.27 92.91 33.86C92.97 34.08 92.97 34.24 92.89 34.34C92.77 34.48 92.63 34.51 92.47 34.42C92.4 34.38 92.33 34.26 92.25 34.07C92.13 33.74 91.92 33.5 91.62 33.35L91.38 33.26C91.31 33.26 91.19 33.25 91.01 33.25C90.75 33.25 90.55 33.29 90.4 33.36C90.17 33.48 90 33.63 89.89 33.82C89.78 34.02 89.76 34.23 89.81 34.44C89.83 34.56 89.87 34.65 89.94 34.72C90.07 34.86 90.35 34.98 90.78 35.07C91.14 35.14 91.42 35.22 91.63 35.32C91.84 35.42 92.04 35.56 92.23 35.75C92.63 36.14 92.83 36.65 92.83 37.27C92.83 37.7 92.73 38.1 92.53 38.47C92.45 38.63 92.39 38.74 92.35 38.8C92.31 38.86 92.22 38.96 92.08 39.09C91.71 39.49 91.29 39.67 90.84 39.64C90.23 39.59 89.71 39.27 89.28 38.68C89.18 38.52 89.12 38.43 89.12 38.41C89.12 38.39 89.09 38.32 89.04 38.22C88.95 38.02 88.9 37.78 88.89 37.5C88.88 37.22 88.92 36.98 89.01 36.79C89.04 36.75 89.08 36.64 89.15 36.49L89.31 36.26L89.5 36.14C89.72 36.08 89.87 36.12 89.94 36.27C90.02 36.42 90 36.56 89.88 36.7C89.72 36.88 89.63 37.09 89.59 37.34C89.58 37.45 89.59 37.59 89.63 37.77C89.66 37.96 89.71 38.08 89.77 38.15L89.84 38.27C89.84 38.33 89.95 38.45 90.15 38.61C90.36 38.77 90.52 38.87 90.65 38.91C90.84 38.97 91 38.98 91.14 38.94C91.27 38.9 91.42 38.79 91.58 38.62C91.79 38.42 91.94 38.15 92.05 37.83C92.16 37.49 92.17 37.16 92.09 36.84C92 36.52 91.83 36.27 91.58 36.09C91.41 35.97 91.06 35.84 90.51 35.71C90.02 35.59 89.66 35.42 89.45 35.21C89.32 35.07 89.22 34.93 89.17 34.8C89.12 34.67 89.1 34.49 89.1 34.25C89.1 34.06 89.11 33.94 89.12 33.87C89.13 33.81 89.16 33.72 89.22 33.61C89.44 33.13 89.81 32.81 90.34 32.63Z" fill="#FFFFFF" fill-opacity="1.000000" fill-rule="nonzero"/>
		<path id="path48" d="M97.33 33.51C97.3 33.47 97.22 33.45 97.11 33.45C96.88 33.45 96.64 33.59 96.39 33.86C96.19 34.06 96 34.36 95.81 34.74C95.62 35.13 95.49 35.48 95.41 35.8C95.36 35.96 95.35 36.05 95.37 36.06C95.38 36.08 95.48 36.06 95.67 36C95.85 35.95 95.99 35.89 96.1 35.83C96.2 35.78 96.33 35.68 96.47 35.55C96.61 35.42 96.68 35.34 96.68 35.3L96.72 35.22C96.74 35.22 96.79 35.14 96.88 34.98C96.98 34.82 97.05 34.68 97.11 34.55C97.22 34.31 97.3 34.09 97.34 33.89C97.38 33.69 97.38 33.56 97.33 33.51ZM96.91 32.75C97.05 32.73 97.22 32.74 97.41 32.8C97.61 32.85 97.75 32.92 97.84 33.02C97.9 33.09 97.96 33.19 98 33.31C98.04 33.42 98.05 33.59 98.05 33.79C98.04 33.99 98 34.18 97.94 34.36C97.89 34.51 97.81 34.71 97.69 34.94C97.58 35.17 97.49 35.34 97.41 35.47L97.35 35.56L97.28 35.66L97.24 35.71C97.21 35.78 97.1 35.89 96.93 36.05C96.73 36.25 96.49 36.42 96.2 36.56C95.91 36.69 95.65 36.76 95.41 36.76L95.25 36.76L95.22 36.94C95.2 37.05 95.2 37.24 95.22 37.54C95.26 37.96 95.36 38.27 95.53 38.47C95.69 38.67 95.92 38.78 96.23 38.8C96.87 38.85 97.53 38.36 98.22 37.33C98.4 37.05 98.52 36.87 98.58 36.77C98.63 36.67 98.69 36.53 98.76 36.34C98.82 36.19 98.88 36.09 98.93 36.03C98.98 35.98 99.06 35.95 99.16 35.95C99.26 35.95 99.34 35.99 99.41 36.06C99.47 36.13 99.5 36.21 99.48 36.31C99.44 36.63 99.22 37.09 98.83 37.67C98.61 37.98 98.5 38.14 98.48 38.16L98.43 38.24C98.43 38.27 98.32 38.39 98.09 38.61C97.87 38.84 97.7 38.99 97.59 39.07C97.3 39.28 96.97 39.42 96.61 39.48C96.41 39.52 96.22 39.52 96.01 39.48C95.56 39.39 95.21 39.19 94.98 38.9C94.91 38.83 94.84 38.7 94.76 38.52C94.69 38.34 94.63 38.18 94.59 38.04C94.51 37.7 94.49 37.28 94.53 36.78C94.58 36.27 94.68 35.78 94.83 35.31C94.9 35.1 95 34.85 95.13 34.56C95.26 34.27 95.38 34.06 95.48 33.91C95.58 33.78 95.62 33.71 95.62 33.69C95.62 33.67 95.69 33.58 95.84 33.43C95.98 33.29 96.1 33.17 96.21 33.09C96.28 33.03 96.39 32.96 96.54 32.89C96.69 32.81 96.82 32.77 96.91 32.75Z" fill="#FFFFFF" fill-opacity="1.000000" fill-rule="nonzero"/>
	</g>
</svg>
